<svg width="29" height="28" viewBox="0 0 29 28" fill="none" xmlns="http://www.w3.org/2000/svg">
<path d="M21.4857 3.48741C21.2538 3.49103 21.0328 3.58654 20.8713 3.75295C20.7098 3.91936 20.621 4.14307 20.6243 4.37494V4.82384C19.4671 5.15157 18.5827 6.16627 18.5827 7.42719V7.42833C18.5827 8.95306 19.8378 10.2083 21.3626 10.2083H22.2194C22.7981 10.2083 23.2493 10.6595 23.2493 11.2382C23.2493 11.8137 22.8032 12.2622 22.2274 12.267L21.1541 12.2761C20.7777 12.2761 20.4741 12.032 20.3703 11.7019C20.3376 11.5901 20.283 11.486 20.2096 11.3956C20.1362 11.3052 20.0455 11.2303 19.9428 11.1754C19.8401 11.1205 19.7275 11.0867 19.6115 11.0759C19.4956 11.0651 19.3786 11.0775 19.2676 11.1124C19.1565 11.1474 19.0535 11.2042 18.9646 11.2794C18.8758 11.3547 18.8028 11.4469 18.7501 11.5508C18.6973 11.6546 18.6658 11.7679 18.6574 11.884C18.649 12.0002 18.6639 12.1168 18.7011 12.2272C18.9732 13.0917 19.7376 13.6465 20.6243 13.8507V14.2916C20.6227 14.4076 20.6441 14.5227 20.6873 14.6303C20.7306 14.7379 20.7948 14.8358 20.8762 14.9184C20.9576 15.0009 21.0546 15.0665 21.1616 15.1113C21.2686 15.156 21.3834 15.1791 21.4993 15.1791C21.6153 15.1791 21.7301 15.156 21.8371 15.1113C21.944 15.0665 22.041 15.0009 22.1225 14.9184C22.2039 14.8358 22.2681 14.7379 22.3113 14.6303C22.3545 14.5227 22.376 14.4076 22.3743 14.2916V13.9897C23.8262 13.9043 24.9993 12.7078 24.9993 11.2382C24.9993 9.71347 23.7441 8.45828 22.2194 8.45828H21.3626C20.7839 8.45828 20.3327 8.00707 20.3327 7.42833V7.42719C20.3327 6.85424 20.76 6.43201 21.3478 6.42345L21.8286 6.41661C22.2272 6.41661 22.5147 6.64345 22.6147 6.97032C22.6475 7.08119 22.7019 7.18447 22.7748 7.27419C22.8477 7.36391 22.9376 7.4383 23.0395 7.49305C23.1413 7.54781 23.2529 7.58185 23.368 7.5932C23.483 7.60456 23.5992 7.59301 23.7097 7.55922C23.8203 7.52543 23.923 7.47007 24.0121 7.39633C24.1011 7.3226 24.1747 7.23195 24.2285 7.12963C24.2823 7.02731 24.3153 6.91534 24.3256 6.80019C24.3358 6.68505 24.3232 6.569 24.2884 6.45877C24.0216 5.58648 23.2517 5.04794 22.3743 4.84435V4.37494C22.376 4.25783 22.3542 4.14157 22.3101 4.03306C22.266 3.92454 22.2006 3.82598 22.1177 3.74322C22.0348 3.66045 21.9362 3.59516 21.8276 3.55122C21.719 3.50728 21.6028 3.48558 21.4857 3.48741ZM14.4765 6.98855C14.4334 6.98997 14.3905 6.99377 14.3478 6.99994H9.83266C9.67806 6.99776 9.52457 7.02632 9.38111 7.08397C9.23764 7.14162 9.10707 7.22721 8.99697 7.33576C8.88687 7.44431 8.79945 7.57366 8.73978 7.71629C8.6801 7.85893 8.64937 8.012 8.64937 8.16661C8.64937 8.32122 8.6801 8.47429 8.73978 8.61693C8.79945 8.75956 8.88687 8.88891 8.99697 8.99746C9.10707 9.10602 9.23764 9.1916 9.38111 9.24925C9.52457 9.3069 9.67806 9.33546 9.83266 9.33328H11.6829L4.34112 16.6751C4.22915 16.7826 4.13976 16.9113 4.07818 17.0538C4.01659 17.1963 3.98406 17.3496 3.98248 17.5049C3.9809 17.6601 4.01031 17.814 4.06898 17.9577C4.12765 18.1015 4.21441 18.232 4.32417 18.3418C4.43392 18.4515 4.56448 18.5383 4.70819 18.597C4.85189 18.6556 5.00586 18.685 5.16107 18.6835C5.31629 18.6819 5.46963 18.6493 5.61211 18.5878C5.75459 18.5262 5.88336 18.4368 5.99086 18.3248L13.3327 10.983V12.8333C13.3305 12.9879 13.359 13.1414 13.4167 13.2848C13.4743 13.4283 13.5599 13.5589 13.6685 13.669C13.777 13.7791 13.9064 13.8665 14.049 13.9262C14.1916 13.9858 14.3447 14.0166 14.4993 14.0166C14.6539 14.0166 14.807 13.9858 14.9496 13.9262C15.0923 13.8665 15.2216 13.7791 15.3302 13.669C15.4387 13.5589 15.5243 13.4283 15.582 13.2848C15.6396 13.1414 15.6682 12.9879 15.666 12.8333V8.31017C15.6885 8.14254 15.6743 7.97203 15.6244 7.81044C15.5745 7.64885 15.49 7.50004 15.3769 7.37433C15.2637 7.24862 15.1246 7.149 14.9691 7.08239C14.8137 7.01578 14.6456 6.98376 14.4765 6.98855ZM14.4822 16.3173C14.173 16.3219 13.8782 16.449 13.6627 16.6707C13.4471 16.8925 13.3284 17.1907 13.3327 17.4999V23.3333C13.3305 23.4879 13.359 23.6414 13.4167 23.7848C13.4743 23.9283 13.5599 24.0589 13.6685 24.169C13.777 24.2791 13.9064 24.3665 14.049 24.4262C14.1916 24.4858 14.3447 24.5166 14.4993 24.5166C14.6539 24.5166 14.807 24.4858 14.9496 24.4262C15.0923 24.3665 15.2216 24.2791 15.3302 24.169C15.4387 24.0589 15.5243 23.9283 15.582 23.7848C15.6396 23.6414 15.6682 23.4879 15.666 23.3333V17.4999C15.6681 17.344 15.639 17.1891 15.5802 17.0446C15.5215 16.9001 15.4343 16.7688 15.324 16.6585C15.2136 16.5483 15.0822 16.4613 14.9377 16.4027C14.7931 16.3441 14.6382 16.315 14.4822 16.3173ZM19.1489 16.3173C18.8397 16.3219 18.5449 16.449 18.3294 16.6707C18.1138 16.8925 17.9951 17.1907 17.9993 17.4999V23.3333C17.9971 23.4879 18.0257 23.6414 18.0833 23.7848C18.141 23.9283 18.2266 24.0589 18.3351 24.169C18.4437 24.2791 18.573 24.3665 18.7157 24.4262C18.8583 24.4858 19.0114 24.5166 19.166 24.5166C19.3206 24.5166 19.4737 24.4858 19.6163 24.4262C19.7589 24.3665 19.8883 24.2791 19.9968 24.169C20.1054 24.0589 20.191 23.9283 20.2486 23.7848C20.3063 23.6414 20.3348 23.4879 20.3327 23.3333V17.4999C20.3348 17.344 20.3056 17.1891 20.2469 17.0446C20.1881 16.9001 20.101 16.7688 19.9906 16.6585C19.8803 16.5483 19.7489 16.4613 19.6043 16.4027C19.4597 16.3441 19.3049 16.315 19.1489 16.3173ZM23.8156 16.3173C23.5063 16.3219 23.2116 16.449 22.996 16.6707C22.7805 16.8925 22.6618 17.1907 22.666 17.4999V23.3333C22.6638 23.4879 22.6924 23.6414 22.75 23.7848C22.8077 23.9283 22.8933 24.0589 23.0018 24.169C23.1104 24.2791 23.2397 24.3665 23.3823 24.4262C23.525 24.4858 23.678 24.5166 23.8327 24.5166C23.9873 24.5166 24.1403 24.4858 24.283 24.4262C24.4256 24.3665 24.555 24.2791 24.6635 24.169C24.7721 24.0589 24.8576 23.9283 24.9153 23.7848C24.9729 23.6414 25.0015 23.4879 24.9993 23.3333V17.4999C25.0015 17.344 24.9723 17.1891 24.9135 17.0446C24.8548 16.9001 24.7677 16.7688 24.6573 16.6585C24.5469 16.5483 24.4156 16.4613 24.271 16.4027C24.1264 16.3441 23.9716 16.315 23.8156 16.3173ZM9.81557 18.6507C9.50635 18.6552 9.21157 18.7823 8.99602 19.004C8.78046 19.2258 8.66176 19.5241 8.66599 19.8333V23.3333C8.6638 23.4879 8.69237 23.6414 8.75001 23.7848C8.80766 23.9283 8.89325 24.0589 9.0018 24.169C9.11036 24.2791 9.23971 24.3665 9.38234 24.4262C9.52497 24.4858 9.67804 24.5166 9.83266 24.5166C9.98727 24.5166 10.1403 24.4858 10.283 24.4262C10.4256 24.3665 10.555 24.2791 10.6635 24.169C10.7721 24.0589 10.8577 23.9283 10.9153 23.7848C10.9729 23.6414 11.0015 23.4879 10.9993 23.3333V19.8333C11.0015 19.6773 10.9723 19.5225 10.9135 19.3779C10.8548 19.2334 10.7677 19.1021 10.6573 18.9919C10.5469 18.8816 10.4156 18.7946 10.271 18.736C10.1264 18.6774 9.97156 18.6484 9.81557 18.6507ZM5.1489 21.5673C4.83968 21.5719 4.54491 21.699 4.32935 21.9207C4.1138 22.1425 3.99509 22.4407 3.99932 22.7499V23.3333C3.99714 23.4879 4.0257 23.6414 4.08335 23.7848C4.141 23.9283 4.22659 24.0589 4.33514 24.169C4.44369 24.2791 4.57304 24.3665 4.71567 24.4262C4.85831 24.4858 5.01138 24.5166 5.16599 24.5166C5.3206 24.5166 5.47367 24.4858 5.61631 24.4262C5.75894 24.3665 5.88829 24.2791 5.99684 24.169C6.1054 24.0589 6.19098 23.9283 6.24863 23.7848C6.30628 23.6414 6.33484 23.4879 6.33266 23.3333V22.7499C6.33479 22.594 6.30562 22.4391 6.24687 22.2946C6.18812 22.1501 6.10099 22.0188 5.99063 21.9085C5.88026 21.7983 5.74891 21.7113 5.60433 21.6527C5.45975 21.5941 5.30489 21.565 5.1489 21.5673Z" fill="#EA5455"/>
</svg>
