<svg width="28" height="28" viewBox="0 0 28 28" fill="none" xmlns="http://www.w3.org/2000/svg">
<path d="M25.2968 12.8363C24.6983 12.8363 24.0415 13.23 22.645 13.9545C21.4882 14.5554 20.4184 15.1265 19.7388 15.543C19.7977 15.7985 19.8327 16.0633 19.8327 16.3363C19.8327 18.2665 18.2624 19.8363 16.3327 19.8363H11.9577C11.4747 19.8363 11.0827 19.4449 11.0827 18.9613C11.0827 18.4777 11.4747 18.0863 11.9577 18.0863H16.3327C17.2975 18.0863 18.0827 17.3011 18.0827 16.3363C18.0827 15.813 17.847 15.3481 17.4819 15.0267C17.0671 14.7525 16.5748 14.5863 16.041 14.5863H13.4785H13.1244C13.1075 14.5863 13.0917 14.5822 13.0748 14.581C11.5371 14.5571 10.7986 14.3985 10.1494 14.2555C9.55904 14.1255 9.00137 14.003 8.06512 14.003C3.78812 14.003 1.34629 19.2535 1.24479 19.477C1.11296 19.7663 1.14854 20.1035 1.33696 20.359L5.42029 25.8971C5.58654 26.1229 5.84846 26.25 6.12262 26.25C6.17804 26.25 6.23287 26.2448 6.28829 26.2343C6.61846 26.1713 6.88562 25.9216 6.97137 25.5967C7.01746 25.4246 7.46312 23.9196 9.04104 23.9196C10.1797 23.9196 11.3575 24.0666 12.4967 24.2084C13.657 24.3536 14.8575 24.503 16.041 24.503C17.6528 24.503 18.813 23.2669 22.166 19.8363C26.4255 15.4782 26.8327 15.0973 26.8327 14.2334C26.8327 13.4855 26.1765 12.8363 25.2968 12.8363ZM20.416 7.58337C20.416 10.4831 18.0658 12.8334 15.166 12.8334C12.2663 12.8334 9.91604 10.4831 9.91604 7.58337C9.91604 4.68362 12.2663 2.33337 15.166 2.33337C18.0658 2.33337 20.416 4.68362 20.416 7.58337ZM16.916 8.31254C16.916 7.42762 16.1968 6.70837 15.3119 6.70837H14.8569L14.9152 6.41671H16.041C16.363 6.41671 16.6244 6.15537 16.6244 5.83337C16.6244 5.51137 16.363 5.25004 16.041 5.25004H14.4369C14.1586 5.25004 13.9195 5.44604 13.8652 5.71904L13.5735 7.17737C13.5391 7.34887 13.5835 7.52679 13.6943 7.66154C13.8051 7.79687 13.9708 7.87504 14.1452 7.87504H15.3119C15.5534 7.87504 15.7494 8.07104 15.7494 8.31254C15.7494 8.61296 15.4466 8.75004 15.166 8.75004C14.6498 8.75004 14.3395 8.56629 14.3167 8.55229C14.0495 8.37904 13.692 8.45254 13.514 8.71854C13.3355 8.98629 13.4079 9.34912 13.6756 9.52762C13.7357 9.56671 14.2858 9.91671 15.166 9.91671C16.1635 9.91671 16.916 9.22721 16.916 8.31254Z" fill="#2C514C"/>
</svg>
