<svg width="29" height="28" viewBox="0 0 29 28" fill="none" xmlns="http://www.w3.org/2000/svg">
<path d="M6.33367 3.49999C6.17908 3.49781 6.02559 3.52637 5.88212 3.58402C5.73866 3.64167 5.60809 3.72726 5.49799 3.83581C5.38789 3.94436 5.30046 4.07371 5.24079 4.21634C5.18112 4.35898 5.15039 4.51205 5.15039 4.66666C5.15039 4.82127 5.18112 4.97434 5.24079 5.11698C5.30046 5.25961 5.38789 5.38896 5.49799 5.49751C5.60809 5.60607 5.73866 5.69165 5.88212 5.7493C6.02559 5.80695 6.17908 5.83551 6.33367 5.83333V6.41666C6.33367 9.86977 8.53909 12.74 11.5837 13.9282V14.0718C8.53903 15.2594 6.33367 18.1298 6.33367 21.5833V22.1667C6.17908 22.1645 6.02559 22.193 5.88212 22.2507C5.73866 22.3083 5.60809 22.3939 5.49799 22.5025C5.38789 22.611 5.30046 22.7404 5.24079 22.883C5.18112 23.0256 5.15039 23.1787 5.15039 23.3333C5.15039 23.4879 5.18112 23.641 5.24079 23.7836C5.30046 23.9263 5.38789 24.0556 5.49799 24.1642C5.60809 24.2727 5.73866 24.3583 5.88212 24.416C6.02559 24.4736 6.17908 24.5022 6.33367 24.5H7.50034H21.5003H22.667C22.8216 24.5022 22.9751 24.4736 23.1186 24.416C23.262 24.3583 23.3926 24.2727 23.5027 24.1642C23.6128 24.0556 23.7002 23.9263 23.7599 23.7836C23.8196 23.641 23.8503 23.4879 23.8503 23.3333C23.8503 23.1787 23.8196 23.0256 23.7599 22.883C23.7002 22.7404 23.6128 22.611 23.5027 22.5025C23.3926 22.3939 23.262 22.3083 23.1186 22.2507C22.9751 22.193 22.8216 22.1645 22.667 22.1667V21.5833C22.667 18.1298 20.4615 15.2599 17.417 14.0718V13.9282C20.4617 12.7405 22.667 9.86977 22.667 6.41666V5.83333C22.8216 5.83551 22.9751 5.80695 23.1186 5.7493C23.262 5.69165 23.3926 5.60607 23.5027 5.49751C23.6128 5.38896 23.7002 5.25961 23.7599 5.11698C23.8196 4.97434 23.8503 4.82127 23.8503 4.66666C23.8503 4.51205 23.8196 4.35898 23.7599 4.21634C23.7002 4.07371 23.6128 3.94436 23.5027 3.83581C23.3926 3.72726 23.262 3.64167 23.1186 3.58402C22.9751 3.52637 22.8216 3.49781 22.667 3.49999H21.5003H7.50034H6.33367ZM8.66701 5.83333H20.3337V6.41666C20.3337 9.14434 18.4714 11.41 15.9587 12.0574C15.7083 12.1221 15.4866 12.2681 15.3282 12.4724C15.1698 12.6768 15.0838 12.928 15.0837 13.1865V14.8123C15.0836 15.0711 15.1695 15.3225 15.3279 15.5271C15.4862 15.7317 15.7082 15.8778 15.9587 15.9425C18.4717 16.5906 20.3337 18.855 20.3337 21.5833V22.1667H18.6213C18.0201 20.4684 16.4045 19.25 14.5003 19.25C12.5962 19.25 10.9805 20.4684 10.3794 22.1667H8.66701V21.5833C8.66701 18.855 10.5292 16.5901 13.042 15.9425C13.2923 15.8779 13.5141 15.7319 13.6725 15.5276C13.8309 15.3232 13.9169 15.072 13.917 14.8135V13.1877C13.9171 12.9289 13.8312 12.6775 13.6728 12.4729C13.5144 12.2683 13.2925 12.1222 13.042 12.0574C10.5291 11.4094 8.66701 9.14434 8.66701 6.41666V5.83333ZM12.167 9.33333C12.167 10.6219 13.2118 11.6667 14.5003 11.6667C15.7889 11.6667 16.8337 10.6219 16.8337 9.33333H12.167Z" fill="#FF9F43"/>
</svg>
