<svg width="28" height="28" viewBox="0 0 28 28" fill="none" xmlns="http://www.w3.org/2000/svg">
<path d="M12.2507 4.08337C6.78248 4.08337 2.33398 8.53187 2.33398 14C2.33398 19.4682 6.78248 23.9167 12.2507 23.9167C12.8486 23.9167 13.4315 23.8546 14.0007 23.7526C14.5677 23.8546 15.1507 23.9167 15.7507 23.9167C21.2169 23.9167 25.6673 19.4663 25.6673 14C25.6673 8.53377 21.2169 4.08337 15.7507 4.08337C15.1507 4.08337 14.5677 4.14552 14.0007 4.24744C13.4315 4.14552 12.8486 4.08337 12.2507 4.08337ZM18.5146 6.321C21.6669 7.45154 23.9173 10.452 23.9173 14C23.9173 17.5481 21.6669 20.5485 18.5146 21.6791C20.7415 19.8591 22.1673 17.0937 22.1673 14C22.1673 10.9064 20.7415 8.14099 18.5146 6.321ZM11.959 8.75004C12.4426 8.75004 12.834 9.14204 12.834 9.62504V9.98051C13.6361 10.1666 14.2859 10.7453 14.5373 11.5357C14.6837 11.9965 14.429 12.4887 13.9688 12.6351C13.5102 12.7798 13.0157 12.5269 12.8693 12.0666C12.7946 11.8309 12.5544 11.6667 12.2837 11.6667L11.8633 11.6724C11.4339 11.6788 11.084 12.0055 11.084 12.4004C11.084 12.8029 11.4395 13.1285 11.8758 13.1285H12.6255C14.0267 13.1285 15.1673 14.2403 15.1673 15.6065C15.1673 16.8997 14.1366 17.9704 12.834 18.0754V18.375C12.834 18.858 12.4426 19.25 11.959 19.25C11.4754 19.25 11.084 18.858 11.084 18.375V18.023C10.2877 17.8427 9.63336 17.2711 9.37728 16.4895C9.22678 16.0304 9.4776 15.536 9.93669 15.3855C10.3952 15.235 10.8902 15.4852 11.0407 15.9449C11.1171 16.177 11.3516 16.3334 11.6252 16.3334H12.6392C13.065 16.3299 13.4173 16.0043 13.4173 15.6065C13.4173 15.2052 13.0618 14.8785 12.6255 14.8785H11.8758C10.4746 14.8785 9.33398 13.7672 9.33398 12.4016C9.33398 11.3102 10.0707 10.3744 11.084 10.0466V9.62504C11.084 9.14204 11.4754 8.75004 11.959 8.75004Z" fill="#00CFE8"/>
</svg>
