<svg width="800" height="1080" viewBox="0 0 800 1080" fill="none" xmlns="http://www.w3.org/2000/svg">
<g clip-path="url(#clip0_12_1305)">
<rect width="800" height="1080" fill="#23216E" fill-opacity="0.05"/>
<g clip-path="url(#clip1_12_1305)">
<path d="M119.037 99H130.389V95.7673H122.498V80.6727H119.037V99Z" fill="#23216E"/>
<path d="M137.211 99.3818C138.586 99.3818 139.795 99.0763 140.839 98.4654C141.891 97.846 142.71 96.9933 143.295 95.9073C143.889 94.8127 144.186 93.5527 144.186 92.1273C144.186 90.7103 143.893 89.4588 143.308 88.3727C142.722 87.2782 141.903 86.4212 140.851 85.8018C139.808 85.1824 138.594 84.8727 137.211 84.8727C135.854 84.8727 134.653 85.1782 133.61 85.7891C132.566 86.4 131.747 87.2527 131.153 88.3473C130.559 89.4333 130.262 90.6933 130.262 92.1273C130.262 93.5442 130.551 94.8 131.128 95.8945C131.713 96.9806 132.528 97.8333 133.571 98.4527C134.615 99.0721 135.828 99.3818 137.211 99.3818ZM137.211 96.1491C136.134 96.1491 135.315 95.7885 134.755 95.0673C134.203 94.3376 133.928 93.3576 133.928 92.1273C133.928 90.9309 134.191 89.9636 134.717 89.2254C135.251 88.4788 136.083 88.1054 137.211 88.1054C138.306 88.1054 139.129 88.4703 139.68 89.2C140.24 89.9297 140.52 90.9054 140.52 92.1273C140.52 93.3067 140.245 94.2739 139.693 95.0291C139.15 95.7757 138.323 96.1491 137.211 96.1491Z" fill="#23216E"/>
<path d="M151.032 99.3818C151.677 99.3818 152.271 99.3054 152.814 99.1527C153.365 99 153.866 98.7836 154.316 98.5036V99.8909C154.333 100.4 154.201 100.824 153.921 101.164C153.65 101.511 153.285 101.77 152.827 101.94C152.368 102.118 151.88 102.207 151.363 102.207C150.879 102.207 150.43 102.101 150.014 101.889C149.607 101.677 149.293 101.367 149.072 100.96L145.865 102.513C146.391 103.404 147.142 104.121 148.117 104.664C149.093 105.215 150.167 105.491 151.337 105.491C152.347 105.491 153.285 105.355 154.15 105.084C155.016 104.821 155.745 104.418 156.339 103.874C156.942 103.331 157.353 102.64 157.574 101.8C157.65 101.503 157.701 101.202 157.727 100.896C157.76 100.599 157.777 100.281 157.777 99.9418V85.2545H154.748V86.0182C154.282 85.6533 153.751 85.3733 153.157 85.1782C152.572 84.9745 151.923 84.8727 151.21 84.8727C149.895 84.8727 148.75 85.1867 147.774 85.8145C146.798 86.4424 146.039 87.3036 145.496 88.3982C144.961 89.4842 144.694 90.7273 144.694 92.1273C144.694 93.5018 144.957 94.7363 145.483 95.8309C146.017 96.9254 146.76 97.7909 147.71 98.4273C148.66 99.0636 149.768 99.3818 151.032 99.3818ZM151.592 96.3018C150.845 96.3018 150.234 96.1151 149.759 95.7418C149.284 95.3685 148.932 94.8679 148.703 94.24C148.474 93.6036 148.359 92.8994 148.359 92.1273C148.359 91.3636 148.478 90.6679 148.716 90.04C148.953 89.4036 149.318 88.8988 149.81 88.5254C150.311 88.1436 150.947 87.9527 151.719 87.9527C152.805 87.9527 153.582 88.3388 154.048 89.1109C154.515 89.8745 154.748 90.88 154.748 92.1273C154.748 93.3745 154.511 94.3842 154.036 95.1563C153.569 95.92 152.754 96.3018 151.592 96.3018Z" fill="#23216E"/>
<path d="M166 99.3818C167.374 99.3818 168.584 99.0763 169.627 98.4654C170.679 97.846 171.498 96.9933 172.083 95.9073C172.677 94.8127 172.974 93.5527 172.974 92.1273C172.974 90.7103 172.682 89.4588 172.096 88.3727C171.511 87.2782 170.692 86.4212 169.64 85.8018C168.596 85.1824 167.383 84.8727 166 84.8727C164.642 84.8727 163.442 85.1782 162.398 85.7891C161.354 86.4 160.536 87.2527 159.942 88.3473C159.348 89.4333 159.051 90.6933 159.051 92.1273C159.051 93.5442 159.339 94.8 159.916 95.8945C160.502 96.9806 161.316 97.8333 162.36 98.4527C163.404 99.0721 164.617 99.3818 166 99.3818ZM166 96.1491C164.922 96.1491 164.103 95.7885 163.543 95.0673C162.992 94.3376 162.716 93.3576 162.716 92.1273C162.716 90.9309 162.979 89.9636 163.505 89.2254C164.04 88.4788 164.871 88.1054 166 88.1054C167.094 88.1054 167.917 88.4703 168.469 89.2C169.029 89.9297 169.309 90.9054 169.309 92.1273C169.309 93.3067 169.033 94.2739 168.482 95.0291C167.939 95.7757 167.111 96.1491 166 96.1491Z" fill="#23216E"/>
<path d="M174.5 83.3454H177.962V80.2909H174.5V83.3454ZM174.5 99H177.962V85.2545H174.5V99Z" fill="#23216E"/>
<path d="M180.225 105.109H183.712V98.5036C184.162 98.7836 184.658 99 185.201 99.1527C185.753 99.3054 186.351 99.3818 186.996 99.3818C188.26 99.3818 189.368 99.0636 190.318 98.4273C191.268 97.7909 192.006 96.9254 192.532 95.8309C193.067 94.7363 193.334 93.5018 193.334 92.1273C193.334 90.7273 193.063 89.4842 192.52 88.3982C191.985 87.3036 191.23 86.4424 190.254 85.8145C189.278 85.1867 188.133 84.8727 186.818 84.8727C186.105 84.8727 185.452 84.9745 184.858 85.1782C184.272 85.3733 183.746 85.6533 183.28 86.0182V85.2545H180.225V105.109ZM186.436 96.3018C185.282 96.3018 184.468 95.92 183.992 95.1563C183.517 94.3842 183.28 93.3745 183.28 92.1273C183.28 90.88 183.513 89.8745 183.98 89.1109C184.455 88.3388 185.231 87.9527 186.309 87.9527C187.081 87.9527 187.713 88.1436 188.205 88.5254C188.706 88.8988 189.075 89.4036 189.312 90.04C189.55 90.6679 189.669 91.3636 189.669 92.1273C189.669 92.8994 189.554 93.6036 189.325 94.24C189.096 94.8679 188.744 95.3685 188.269 95.7418C187.794 96.1151 187.183 96.3018 186.436 96.3018Z" fill="#23216E"/>
<path d="M199.606 99.3818C201.404 99.3818 202.813 98.9788 203.831 98.1727C204.849 97.3666 205.358 96.2594 205.358 94.8509C205.358 93.7818 205.027 92.9376 204.366 92.3182C203.712 91.6988 202.601 91.1854 201.031 90.7782C199.962 90.5066 199.164 90.286 198.638 90.1163C198.121 89.9467 197.777 89.7812 197.607 89.62C197.446 89.4588 197.366 89.2594 197.366 89.0218C197.366 88.623 197.556 88.3176 197.938 88.1054C198.329 87.8933 198.842 87.8085 199.478 87.8509C200.827 87.9527 201.566 88.5297 201.693 89.5818L205.231 88.9454C205.053 87.6982 204.442 86.7097 203.398 85.98C202.355 85.2418 201.023 84.8727 199.402 84.8727C197.739 84.8727 196.411 85.263 195.418 86.0436C194.426 86.8242 193.929 87.8763 193.929 89.2C193.929 90.2521 194.273 91.0836 194.96 91.6945C195.647 92.297 196.831 92.8145 198.511 93.2473C199.504 93.5103 200.233 93.7224 200.7 93.8836C201.175 94.0448 201.481 94.2103 201.616 94.38C201.752 94.5412 201.82 94.7576 201.82 95.0291C201.82 95.4618 201.65 95.8012 201.311 96.0473C200.972 96.2848 200.488 96.4036 199.86 96.4036C199.096 96.4036 198.464 96.2212 197.964 95.8563C197.472 95.4915 197.153 94.9867 197.009 94.3418L193.471 94.8763C193.7 96.3103 194.345 97.4218 195.406 98.2109C196.475 98.9915 197.875 99.3818 199.606 99.3818Z" fill="#23216E"/>
<path d="M211.744 99.4073C212.737 99.4073 213.602 99.2418 214.341 98.9109C215.079 98.58 215.698 98.1388 216.199 97.5873V99H219.253V85.2545H215.766V92.2291C215.766 93.0776 215.668 93.7648 215.473 94.2909C215.287 94.8085 215.045 95.203 214.748 95.4745C214.451 95.7376 214.133 95.9157 213.793 96.0091C213.454 96.1024 213.136 96.1491 212.839 96.1491C212.101 96.1491 211.528 95.9836 211.121 95.6527C210.722 95.3218 210.433 94.9103 210.255 94.4182C210.077 93.926 209.971 93.4382 209.937 92.9545C209.903 92.4624 209.886 92.0594 209.886 91.7454V85.2545H206.373V92.9673C206.373 93.1963 206.39 93.5612 206.424 94.0618C206.458 94.5624 206.556 95.1182 206.717 95.7291C206.878 96.3315 207.145 96.9127 207.519 97.4727C207.901 98.0327 208.431 98.4951 209.11 98.86C209.788 99.2248 210.667 99.4073 211.744 99.4073Z" fill="#23216E"/>
<path d="M221.258 99H224.745V90.6763C224.745 89.8873 224.961 89.2467 225.394 88.7545C225.835 88.2539 226.416 88.0036 227.138 88.0036C227.893 88.0036 228.483 88.2582 228.907 88.7673C229.339 89.2679 229.556 89.9721 229.556 90.88V99H233.018V90.6763C233.018 89.8873 233.234 89.2467 233.667 88.7545C234.108 88.2539 234.689 88.0036 235.41 88.0036C236.166 88.0036 236.755 88.2582 237.179 88.7673C237.612 89.2679 237.829 89.9721 237.829 90.88V99H241.29V89.9636C241.29 88.4618 240.887 87.2485 240.081 86.3236C239.284 85.3903 238.1 84.9236 236.53 84.9236C235.648 84.9236 234.838 85.1145 234.099 85.4963C233.361 85.8782 232.772 86.4 232.33 87.0618C231.974 86.417 231.465 85.8994 230.803 85.5091C230.141 85.1188 229.318 84.9236 228.334 84.9236C227.502 84.9236 226.739 85.0891 226.043 85.42C225.347 85.7424 224.77 86.1879 224.312 86.7563V85.2545H221.258V99Z" fill="#23216E"/>
<path d="M90 70C78.9543 70 70 78.9543 70 90C81.0457 90 90 81.0457 90 70Z" fill="#45D2B0"/>
<path d="M90 110C101.046 110 110 101.046 110 90C98.9543 90 90 98.9543 90 110Z" fill="#45D2B0"/>
<path d="M90 70C101.046 70 110 78.9543 110 90C98.9543 90 90 81.0457 90 70Z" fill="#23216E"/>
<path d="M90 110C78.9543 110 70 101.046 70 90C81.0457 90 90 98.9543 90 110Z" fill="#23216E"/>
</g>
<g clip-path="url(#clip2_12_1305)">
<path d="M1082.42 784.254C1081.04 780.105 1079.19 775.957 1077.81 771.809C964.423 768.582 881.456 749.684 826.605 695.755C766.223 636.295 738.106 535.351 737.184 365.729C733.036 365.268 728.888 364.807 724.278 364.346C724.739 454.689 733.036 526.133 749.629 582.827C764.84 635.373 787.426 675.013 817.847 704.974C875.924 762.59 963.501 781.949 1082.42 784.254ZM1023.42 622.467C1024.34 617.858 1025.27 613.71 1026.19 609.561C954.743 609.561 907.268 600.343 879.151 576.374C850.573 552.406 837.667 512.766 834.902 439.478C833.98 421.502 835.823 403.064 839.511 383.705L827.066 380.94C823.378 401.221 821.535 421.041 822.456 439.939C823.839 474.97 827.527 502.625 833.98 525.211C841.816 551.945 853.8 571.304 870.854 586.054C901.736 611.866 949.673 622.467 1023.42 622.467Z" fill="#F7F2FF"/>
<path d="M381.346 1077.41C385.494 1078.79 390.103 1079.71 394.713 1080.63C417.298 1046.06 430.665 1003.66 434.814 950.189C439.884 889.346 432.97 814.214 413.611 720.645C409.463 720.645 405.314 720.184 400.705 719.724C437.118 894.877 430.665 1004.12 381.807 1076.48C381.758 1076.83 381.596 1077.16 381.346 1077.41ZM284.55 703.591C281.324 706.357 278.558 709.583 275.332 712.81C299.3 751.067 316.355 789.785 322.808 827.12C334.331 899.025 329.722 940.509 306.675 970.009C296.535 982.915 281.785 993.977 262.887 1003.2C265.236 1006.92 267.855 1010.46 270.723 1013.8C290.082 1003.66 305.292 992.133 316.355 977.844C330.643 959.868 338.479 938.665 340.784 910.549C342.628 887.502 340.784 859.385 335.253 824.816C328.8 784.715 310.363 743.692 284.55 703.591Z" fill="#F7F2FF"/>
<path d="M748.708 1103.68C748.708 1103.68 736.263 1017.02 797.566 986.141C858.409 955.72 818.769 910.088 843.659 877.823C868.55 846.018 939.994 834.956 953.822 779.644C953.822 779.644 955.204 866.76 932.619 916.541C909.572 966.321 888.83 978.305 895.284 1024.4C901.276 1070.49 834.441 1136.4 748.708 1103.68Z" fill="#23216E"/>
<path d="M768.528 1091.23C768.528 1091.23 840.894 1047.91 856.105 979.688C873.62 903.635 921.557 896.721 925.245 844.175" stroke="#FEFEFE" stroke-width="1.44271"/>
<path d="M774.981 1046.06C774.981 1046.06 793.879 997.203 837.207 992.594C880.534 987.524 875.464 1002.73 907.729 985.219C940.455 967.704 966.267 978.305 993.462 983.376C993.462 983.376 957.97 1005.96 929.393 1036.84C905.885 1062.19 867.167 1092.16 836.285 1094.92C796.645 1098.61 752.396 1071.87 752.396 1071.87L774.981 1046.06Z" fill="#45D2B0"/>
<path d="M760.692 1076.48C760.692 1076.48 810.473 1031.77 868.089 1022.55C925.705 1012.88 958.431 988.907 958.431 988.907" stroke="#FEFEFE" stroke-width="1.44271"/>
<path d="M656.991 761.668C684.23 761.668 706.311 739.587 706.311 712.349C706.311 685.11 684.23 663.029 656.991 663.029C629.753 663.029 607.672 685.11 607.672 712.349C607.672 739.587 629.753 761.668 656.991 761.668Z" fill="#45D2B0"/>
<path d="M663.435 663.029C676.511 663.044 689.048 668.245 698.294 677.491C707.54 686.737 712.74 699.273 712.755 712.349C712.755 739.544 690.63 761.207 663.435 761.207H660.209C686.021 759.364 706.302 738.161 706.302 712.349C706.308 699.815 701.55 687.747 692.992 678.59C684.433 669.432 672.715 663.87 660.209 663.029H663.435Z" fill="#23216E"/>
<path d="M656.992 753.371C679.648 753.371 698.014 735.005 698.014 712.349C698.014 689.692 679.648 671.326 656.992 671.326C634.335 671.326 615.969 689.692 615.969 712.349C615.969 735.005 634.335 753.371 656.992 753.371Z" fill="#23216E"/>
<path d="M656.992 749.223C677.357 749.223 693.866 732.714 693.866 712.349C693.866 691.983 677.357 675.474 656.992 675.474C636.626 675.474 620.117 691.983 620.117 712.349C620.117 732.714 636.626 749.223 656.992 749.223Z" fill="#45D2B0"/>
<path d="M677.725 667.638C684.178 670.404 689.709 675.013 694.318 680.084L647.764 760.746C640.808 759.346 634.217 756.521 628.405 752.45L677.725 667.638Z" fill="#FEFEFE" fill-opacity="0.2"/>
<path d="M545.438 1103.68C545.438 1103.68 558.344 1017.02 497.04 986.141C435.736 955.72 475.376 910.088 450.947 877.823C426.057 846.018 354.612 834.956 340.324 779.644C340.324 779.644 339.402 866.76 361.987 916.541C385.034 966.321 405.315 978.305 399.323 1024.4C393.331 1070.49 460.165 1136.4 545.438 1103.68Z" fill="#23216E"/>
<path d="M526.079 1091.23C526.079 1091.23 453.713 1047.91 438.502 979.688C420.986 903.635 373.05 896.721 368.901 844.175" stroke="#FEFEFE" stroke-width="1.44271"/>
<path d="M519.164 1046.06C519.164 1046.06 500.726 997.203 457.399 992.594C414.071 987.524 419.142 1002.73 386.877 985.219C354.151 967.704 328.338 978.305 301.144 983.376C301.144 983.376 336.635 1005.96 365.213 1036.84C388.259 1062.19 427.438 1092.16 458.321 1094.92C497.5 1098.61 542.21 1071.87 542.21 1071.87L519.164 1046.06Z" fill="#45D2B0"/>
<path d="M533.453 1076.48C533.453 1076.48 484.133 1031.77 426.517 1022.55C368.901 1012.88 335.714 988.907 335.714 988.907" stroke="#FEFEFE" stroke-width="1.44271"/>
<path d="M807.255 862.151H491.979V1115.66H807.255V862.151Z" fill="#45D2B0"/>
<path d="M832.491 819.285H467.089V862.75H832.491V819.285Z" fill="#23216E"/>
<path d="M467.089 820.206H832.607L773.607 776.879H526.088L467.089 820.206Z" fill="#45D2B0"/>
<path d="M664.358 663.49L669.889 664.873L622.413 747.379C621.046 745.959 619.811 744.416 618.726 742.77L664.358 663.49Z" fill="#FEFEFE" fill-opacity="0.2"/>
<path d="M539.906 980.61H759.871C765.979 980.61 770.934 982.26 770.934 984.298V984.537C770.934 986.575 765.979 988.225 759.871 988.225H539.906C533.794 988.225 528.844 986.575 528.844 984.537V984.298C528.844 982.26 533.803 980.61 539.906 980.61Z" fill="#FEFEFE"/>
<path d="M577.251 802.23H722.444L698.937 794.855H600.758L577.251 802.23Z" fill="#23216E"/>
<path d="M495.657 738.622L463.853 725.716H182.685C181.595 725.72 180.514 725.508 179.505 725.093C178.497 724.677 177.581 724.066 176.809 723.295C176.038 722.524 175.427 721.607 175.012 720.599C174.596 719.59 174.384 718.51 174.389 717.419V660.724C174.384 659.634 174.596 658.553 175.012 657.544C175.427 656.536 176.038 655.62 176.809 654.848C177.581 654.077 178.497 653.466 179.505 653.051C180.514 652.635 181.595 652.423 182.685 652.428H480.446C481.537 652.423 482.618 652.635 483.627 653.051C484.635 653.466 485.551 654.077 486.323 654.848C487.094 655.62 487.705 656.536 488.12 657.544C488.536 658.553 488.747 659.634 488.743 660.724V702.208L497.962 736.317C498.06 736.637 498.07 736.979 497.989 737.304C497.908 737.629 497.74 737.926 497.503 738.163C497.266 738.4 496.969 738.568 496.644 738.649C496.319 738.73 495.977 738.72 495.657 738.622Z" fill="#45D2B0"/>
<path d="M235.693 710.505C236.154 710.044 236.615 709.583 236.154 708.661V708.2L235.232 705.896C233.849 702.208 232.466 698.06 231.083 693.911C234.31 691.607 237.536 689.763 240.763 687.458L243.068 685.615H243.529C243.704 685.433 243.836 685.215 243.916 684.976C243.995 684.736 244.021 684.482 243.99 684.232C243.973 683.993 243.871 683.768 243.702 683.598C243.532 683.429 243.307 683.326 243.068 683.31C242.828 683.047 242.5 682.883 242.146 682.849H239.38C235.551 683.224 231.704 683.378 227.857 683.31C226.474 679.162 224.63 675.013 223.248 671.326L222.326 669.021V668.56C221.865 668.099 221.404 667.638 220.943 667.638C220.482 667.638 220.021 668.099 219.56 668.56L218.638 671.787C217.716 675.474 216.334 679.162 215.412 682.849C211.263 682.849 207.576 683.31 203.889 683.31H199.279C198.818 683.31 198.357 683.771 197.896 684.232V685.154L198.818 686.076L201.123 687.919C204.35 690.224 208.037 692.529 211.263 695.294C210.401 699.041 209.324 702.734 208.037 706.357L207.576 708.2V708.661H207.115C207.122 709.018 207.208 709.368 207.368 709.687C207.527 710.006 207.756 710.286 208.037 710.505H209.42V710.044H209.881L211.263 708.661C214.951 706.357 218.177 704.052 221.404 701.747C225.091 704.052 228.318 706.357 231.544 708.661L233.849 710.044L234.31 710.505H235.693Z" fill="white"/>
<path d="M291.003 710.505C291.464 710.044 291.925 709.583 291.464 708.661V708.2L290.542 705.896C289.16 702.208 287.777 698.06 286.394 693.911C289.621 691.607 292.847 689.763 296.074 687.458L298.378 685.615H298.839C299.014 685.433 299.146 685.215 299.226 684.976C299.306 684.736 299.331 684.482 299.3 684.232C299.284 683.993 299.182 683.768 299.012 683.598C298.843 683.429 298.617 683.326 298.378 683.31C298.139 683.047 297.81 682.883 297.456 682.849H294.23C290.556 683.233 286.861 683.387 283.167 683.31C281.785 679.162 279.941 675.013 278.558 671.326L277.636 669.021V668.56C277.175 668.099 276.714 667.638 276.254 667.638C275.793 667.638 275.332 668.099 274.871 668.56L273.949 671.787C273.027 675.474 271.644 679.162 270.722 682.849C266.574 682.849 262.887 683.31 259.199 683.31H254.59C254.129 683.31 253.668 683.771 253.207 684.232V685.154C253.668 685.615 253.668 686.076 254.129 686.076L256.434 687.919C259.66 690.224 263.347 692.529 266.574 695.294C265.652 698.982 264.269 702.669 263.347 706.357L262.887 708.2C262.887 708.661 262.887 708.661 262.426 708.661C262.432 709.018 262.519 709.368 262.678 709.687C262.838 710.006 263.066 710.286 263.347 710.505H264.73V710.044H265.191L266.574 708.661C270.261 706.357 273.488 704.052 276.714 701.747C280.402 704.052 283.628 706.357 286.855 708.661L289.16 710.044L289.621 710.505H291.003Z" fill="white"/>
<path d="M346.315 710.505C346.776 710.044 346.776 709.583 346.776 708.661V708.2L345.854 705.896C344.471 702.208 343.088 698.06 341.706 693.911C344.932 691.607 348.159 689.763 351.385 687.458L353.69 685.615H354.151C354.326 685.433 354.458 685.215 354.538 684.976C354.617 684.736 354.643 684.482 354.612 684.232C354.595 683.993 354.493 683.768 354.324 683.598C354.154 683.429 353.929 683.326 353.69 683.31C353.45 683.047 353.122 682.883 352.768 682.849H349.541C345.867 683.233 342.172 683.387 338.479 683.31C337.096 679.162 335.253 675.013 333.87 671.326L332.948 669.021V668.56C332.487 668.099 332.026 667.638 331.565 667.638C331.104 667.638 330.643 668.099 330.182 668.56L329.26 671.787C328.339 675.474 326.956 679.162 326.034 682.849C321.886 682.849 318.198 683.31 314.511 683.31H309.901C309.44 683.31 308.979 683.771 308.519 684.232V685.154C308.979 685.615 308.979 686.076 309.44 686.076L311.745 687.919C314.972 690.224 318.659 692.529 321.886 695.294C320.964 698.982 319.581 702.669 318.659 706.357L318.198 708.2C318.198 708.323 318.149 708.44 318.063 708.526C317.977 708.613 317.859 708.661 317.737 708.661C317.737 709.583 317.737 710.044 318.198 710.505H320.042V710.044H320.503L321.886 708.661C325.573 706.357 328.799 704.052 332.026 701.747C335.713 704.052 338.94 706.357 342.166 708.661L344.01 710.044H344.471L344.932 710.505H346.315Z" fill="white"/>
<path d="M401.627 710.505C402.088 710.044 402.088 709.583 402.088 708.661V708.2L401.166 705.896C399.784 702.208 398.401 698.06 397.018 693.911C400.245 691.607 403.471 689.763 406.698 687.458L409.002 685.615H409.463C409.463 685.154 409.924 684.693 409.924 684.232C409.463 683.771 409.463 683.31 409.002 683.31C408.821 683.135 408.602 683.003 408.363 682.923C408.124 682.843 407.87 682.818 407.619 682.849H404.854C401.18 683.233 397.485 683.387 393.792 683.31C392.409 679.162 390.565 675.013 389.182 671.326L388.26 669.021V668.56C387.799 668.099 387.338 667.638 386.878 667.638C386.417 667.638 385.956 668.099 385.495 668.56L384.573 671.787C383.651 675.474 382.268 679.162 381.346 682.849C377.198 682.849 373.511 683.31 369.362 683.31H365.214C364.753 683.31 364.292 683.771 363.831 684.232V685.154C364.292 685.615 364.292 686.076 364.753 686.076L367.058 687.919C370.284 690.224 373.972 692.529 377.198 695.294C376.276 698.982 374.893 702.669 373.972 706.357L373.511 708.2C373.511 708.323 373.462 708.44 373.376 708.526C373.289 708.613 373.172 708.661 373.05 708.661C373.05 709.583 373.05 710.044 373.511 710.505H375.354V710.044H375.815L377.198 708.661C380.425 706.357 384.112 704.052 387.338 701.747C391.026 704.052 394.252 706.357 397.479 708.661L399.323 710.044H399.784L400.245 710.505H401.627Z" fill="white"/>
<path d="M456.939 710.505C457.4 710.044 457.4 709.583 457.4 708.661V708.2L456.478 705.896C455.095 702.208 453.712 698.06 452.33 693.911C455.556 691.607 458.783 689.763 462.009 687.458L464.314 685.615H464.775C464.775 685.154 465.236 684.693 465.236 684.232C464.775 683.771 464.775 683.31 464.314 683.31C464.132 683.135 463.914 683.003 463.675 682.923C463.435 682.843 463.181 682.818 462.931 682.849H460.165C456.491 683.233 452.796 683.387 449.103 683.31C447.259 679.162 445.877 675.013 444.494 671.326L443.572 669.021V668.56C443.111 668.099 442.65 667.638 442.189 667.638C441.728 667.638 441.267 668.099 440.806 668.56L439.884 671.787C438.864 675.54 437.633 679.234 436.197 682.849C432.51 682.849 428.822 683.31 424.674 683.31H420.525C420.064 683.31 419.604 683.771 419.143 684.232V685.154C419.604 685.615 419.604 686.076 420.064 686.076L422.369 687.919C425.596 690.224 429.283 692.529 432.51 695.294C431.588 698.982 430.205 702.669 429.283 706.357L428.822 708.2L428.361 708.661C428.361 709.583 428.361 710.044 428.822 710.505H430.666V710.044H431.127L432.51 708.661C435.736 706.357 439.424 704.052 442.65 701.747C446.337 704.052 449.564 706.357 452.79 708.661L454.634 710.044H455.095L455.556 710.505H456.939Z" fill="white"/>
<path d="M206.193 958.946C208.036 950.65 210.802 947.884 219.099 946.04C221.403 945.579 223.247 943.736 223.247 941.431C223.278 940.229 222.877 939.056 222.115 938.125C221.354 937.194 220.283 936.568 219.099 936.361C210.802 934.517 208.036 931.751 206.193 923.455C205.919 922.303 205.274 921.274 204.358 920.524C203.442 919.775 202.305 919.347 201.122 919.306C198.818 919.306 196.974 921.15 196.513 923.455C194.669 931.751 191.904 934.517 183.607 936.361C182.423 936.568 181.352 937.194 180.591 938.125C179.829 939.056 179.427 940.229 179.459 941.431C179.459 943.736 181.302 945.579 183.607 946.04C191.904 947.884 194.669 950.65 196.513 958.946C196.974 961.251 198.818 963.095 201.122 963.095C202.305 963.054 203.442 962.626 204.358 961.877C205.274 961.127 205.919 960.098 206.193 958.946ZM294.691 900.408H286.855C286.429 900.418 286.005 900.342 285.609 900.183C285.213 900.025 284.853 899.787 284.551 899.486C284.25 899.184 284.013 898.824 283.854 898.428C283.695 898.032 283.619 897.608 283.629 897.182C283.629 895.799 285.012 894.416 286.855 894.416H294.691C295.409 894.465 296.084 894.772 296.593 895.28C297.101 895.789 297.408 896.464 297.457 897.182C297.457 899.025 296.074 900.408 294.691 900.408ZM273.949 900.408H266.114C264.731 900.408 263.348 899.025 263.348 897.182C263.397 896.464 263.704 895.789 264.212 895.28C264.721 894.772 265.396 894.465 266.114 894.416H273.949C275.793 894.416 277.176 895.799 277.176 897.182C277.186 897.608 277.109 898.032 276.951 898.428C276.792 898.824 276.555 899.184 276.253 899.486C275.952 899.787 275.592 900.025 275.196 900.183C274.8 900.342 274.376 900.418 273.949 900.408ZM280.402 915.619C278.559 915.619 277.637 914.236 277.637 912.392V904.557C277.637 903.823 277.928 903.12 278.447 902.601C278.966 902.082 279.669 901.791 280.402 901.791C281.136 901.791 281.839 902.082 282.358 902.601C282.877 903.12 283.168 903.823 283.168 904.557V912.392C283.168 914.236 282.246 915.619 280.402 915.619ZM280.402 894.416C278.559 894.416 277.637 893.033 277.637 891.19V883.354C277.637 882.62 277.928 881.917 278.447 881.398C278.966 880.879 279.669 880.588 280.402 880.588C281.136 880.588 281.839 880.879 282.358 881.398C282.877 881.917 283.168 882.62 283.168 883.354V891.19C283.168 893.033 282.246 894.416 280.402 894.416ZM201.122 928.064C203.427 935.439 207.115 939.126 214.489 941.431C207.115 943.736 203.427 947.423 201.122 954.337C198.818 947.423 195.13 943.736 188.216 941.431C195.13 939.126 198.818 935.439 201.122 928.064Z" fill="#45D2B0"/>
<path d="M217.255 808.683C215.411 816.98 212.646 819.745 204.349 821.589C202.044 822.05 200.661 823.894 200.661 826.659C200.615 827.744 200.963 828.808 201.641 829.655C202.319 830.503 203.281 831.076 204.349 831.269C212.646 833.112 215.411 835.878 217.255 844.175C217.529 845.326 218.173 846.356 219.089 847.105C220.005 847.855 221.142 848.282 222.325 848.323C224.63 848.323 226.473 846.479 227.395 844.175C229.239 835.878 232.005 833.112 240.301 831.269C241.369 831.076 242.331 830.503 243.009 829.655C243.687 828.808 244.035 827.744 243.989 826.659C243.989 823.894 242.606 822.05 240.301 821.589C232.005 819.745 229.239 816.98 227.395 808.683C226.473 806.378 224.63 804.535 222.325 804.535C221.142 804.575 220.005 805.003 219.089 805.753C218.173 806.502 217.529 807.532 217.255 808.683ZM129.217 867.221H137.053C138.436 867.221 139.819 868.604 139.819 870.448C139.77 871.165 139.463 871.841 138.955 872.349C138.446 872.858 137.77 873.165 137.053 873.213H129.217C127.373 873.213 125.991 871.83 125.991 870.448C125.981 870.021 126.057 869.597 126.216 869.201C126.374 868.805 126.612 868.445 126.913 868.144C127.215 867.842 127.574 867.605 127.971 867.446C128.367 867.288 128.791 867.211 129.217 867.221ZM149.498 867.221H157.334C157.76 867.211 158.184 867.288 158.581 867.446C158.977 867.605 159.336 867.842 159.638 868.144C159.94 868.445 160.177 868.805 160.335 869.201C160.494 869.597 160.57 870.021 160.56 870.448C160.56 871.83 159.178 873.213 157.334 873.213H149.498C147.654 873.213 146.272 871.83 146.272 870.448C146.261 870.021 146.338 869.597 146.497 869.201C146.655 868.805 146.892 868.445 147.194 868.144C147.496 867.842 147.855 867.605 148.251 867.446C148.647 867.288 149.072 867.211 149.498 867.221ZM143.045 852.01C143.472 852 143.896 852.077 144.292 852.236C144.688 852.394 145.047 852.631 145.349 852.933C145.651 853.235 145.888 853.594 146.046 853.99C146.205 854.387 146.282 854.811 146.272 855.237V863.073C146.282 863.499 146.205 863.923 146.046 864.319C145.888 864.715 145.651 865.075 145.349 865.377C145.047 865.678 144.688 865.916 144.292 866.074C143.896 866.233 143.472 866.309 143.045 866.299C141.662 866.299 140.279 864.917 140.279 863.073V855.237C140.279 853.393 141.662 852.01 143.045 852.01ZM143.045 873.213C143.472 873.203 143.896 873.28 144.292 873.438C144.688 873.597 145.047 873.834 145.349 874.136C145.651 874.437 145.888 874.797 146.046 875.193C146.205 875.589 146.282 876.013 146.272 876.44V884.276C146.272 885.658 144.889 887.041 143.045 887.041C142.328 886.993 141.652 886.686 141.143 886.177C140.635 885.669 140.328 884.993 140.279 884.276V876.44C140.279 874.596 141.662 873.213 143.045 873.213ZM222.325 839.565C220.02 832.651 216.333 828.964 208.958 826.659C216.333 824.355 220.02 820.667 222.325 813.292C224.63 820.667 228.317 824.355 235.692 826.659C228.317 828.964 224.63 832.651 222.325 839.565Z" fill="#45D2B0"/>
<path d="M381.807 540.883C402.549 534.43 408.541 527.055 414.533 519.68C420.065 512.766 422.83 508.618 426.057 510C429.744 511.383 432.971 517.836 440.346 529.82C447.72 541.344 451.408 547.797 451.408 550.101C451.408 552.867 444.494 563.007 434.353 572.226C423.752 581.444 404.854 586.976 394.253 592.046C383.19 597.116 376.276 601.725 372.128 605.413C367.98 609.1 363.831 610.944 358.761 606.796C354.152 602.186 347.238 592.046 341.706 582.366C335.714 573.148 334.332 568.078 338.941 562.085C344.011 556.093 358.761 548.258 381.807 540.883Z" fill="#45D2B0"/>
<path d="M418.221 521.063C418.221 521.063 420.986 528.898 430.205 525.672L442.65 544.109C442.65 544.109 437.119 549.64 440.345 557.476C440.345 557.476 433.892 568.538 417.299 576.374C401.166 584.21 384.112 588.358 378.12 594.351C378.12 594.351 371.667 585.132 361.987 594.351C361.987 594.351 351.847 584.671 348.159 576.374C348.159 576.374 356.456 572.226 353.229 560.703C362.877 554.534 373.25 549.58 384.112 545.953C401.627 539.961 413.611 528.438 418.221 521.063Z" fill="#EEE5FD"/>
<path d="M408.08 555.632C412.689 562.085 412.228 570.382 407.158 574.07C401.627 577.757 393.791 575.452 389.182 568.538C384.572 562.085 385.033 553.789 390.103 550.101C395.174 546.414 403.47 549.179 408.08 555.632Z" fill="#45D2B0"/>
<path d="M346.316 471.282C360.605 466.673 364.753 461.603 368.901 456.532C373.05 451.462 374.432 448.697 377.198 449.618C379.503 450.54 381.807 455.15 386.878 463.446C391.948 471.743 394.713 475.891 394.713 477.735C394.713 479.579 390.104 486.493 382.729 492.946C375.354 499.399 362.448 503.086 354.612 506.774C347.238 510.461 342.167 513.688 339.402 515.992C336.636 518.297 333.41 520.141 330.183 516.914C326.957 513.688 322.347 506.774 318.199 500.321C314.051 493.407 313.129 490.18 316.355 486.032C319.582 481.884 330.183 476.352 346.316 471.282Z" fill="#45D2B0"/>
<path d="M371.666 457.454C371.666 457.454 373.51 462.985 379.963 460.681L388.721 473.587C387.513 474.754 386.69 476.261 386.36 477.908C386.031 479.555 386.211 481.263 386.877 482.805C386.877 482.805 382.268 490.641 370.744 496.172C359.682 501.704 347.698 504.469 343.549 508.157C343.549 508.157 339.401 502.164 332.487 508.157C332.487 508.157 325.112 501.704 322.808 496.172C322.808 496.172 328.339 492.946 326.495 485.11C333.151 480.806 340.261 477.251 347.698 474.509C360.143 470.36 367.979 462.524 371.666 457.454Z" fill="#EEE5FD"/>
<path d="M364.292 481.423C367.519 486.032 367.058 491.563 363.831 494.329C360.144 496.633 354.613 495.251 351.386 490.641C348.16 486.032 348.621 480.04 351.847 477.735C355.535 474.97 361.066 476.813 364.292 481.423Z" fill="#45D2B0"/>
<path d="M693.857 383.244C715.06 376.791 721.052 368.956 726.583 362.042C732.575 354.667 734.88 350.979 738.567 352.362C741.794 353.284 745.02 359.737 752.856 371.721C760.231 383.705 763.918 390.158 763.918 392.463C763.918 395.229 757.004 405.369 746.403 414.588C736.263 423.806 716.903 429.337 706.302 434.408C695.24 439.478 688.326 444.087 684.177 447.775C680.029 451.462 675.881 453.767 670.81 449.157C666.201 444.548 659.287 434.408 653.756 424.728C647.764 415.51 645.92 410.439 650.99 404.447C655.6 398.455 670.81 390.619 693.857 383.244Z" fill="#45D2B0"/>
<path d="M730.731 363.424C730.731 363.424 733.497 370.799 742.715 368.034L755.161 386.471C755.161 386.471 749.169 392.002 752.856 399.838C752.856 399.838 745.942 410.9 729.349 418.736C713.216 427.033 696.162 430.72 690.169 436.712C690.169 436.712 683.716 427.955 674.037 436.712C674.037 436.712 663.896 427.033 659.748 418.736C659.748 418.736 668.506 414.588 665.279 403.064C674.927 396.895 685.3 391.941 696.162 388.315C714.138 382.323 725.661 370.799 730.731 363.424Z" fill="#EEE5FD"/>
<path d="M720.129 397.994C724.739 404.447 724.278 412.744 719.208 416.431C714.137 420.119 705.841 417.814 701.231 410.9C696.622 404.447 697.083 396.151 702.153 392.463C707.684 388.776 715.52 391.08 720.129 397.994Z" fill="#45D2B0"/>
<path d="M805.401 488.797C736.723 545.953 820.151 589.741 857.025 552.406C877.306 531.664 856.104 504.008 851.033 498.938C846.885 495.25 840.432 490.18 838.588 488.797H805.401ZM836.745 482.805C836.745 482.805 842.737 479.118 844.58 473.587C846.424 468.516 845.502 458.376 837.666 457.454C830.291 456.071 806.323 455.149 804.018 462.524C801.714 470.36 808.628 482.805 808.628 482.805H836.745Z" fill="#45D2B0"/>
<path d="M604.897 342.683C621.03 337.612 625.178 331.62 629.787 326.55C633.936 321.019 636.24 318.253 638.545 319.175C641.31 320.097 643.615 324.706 649.607 333.925C655.138 342.683 657.904 347.753 657.904 349.597C657.904 351.44 652.834 359.276 644.998 366.19C637.162 373.104 622.412 377.252 614.116 381.401C606.28 385.088 600.749 388.776 597.522 391.541C594.296 393.846 591.069 395.69 587.382 392.463C583.694 388.776 578.624 381.401 574.476 374.026C570.327 366.651 568.944 362.964 572.632 358.354C576.319 354.206 587.382 347.753 604.897 342.683Z" fill="#45D2B0"/>
<path d="M633.014 327.472C633.014 327.472 634.858 333.464 641.771 331.159L651.451 344.987C651.451 344.987 646.842 349.136 649.607 355.128C649.607 355.128 644.537 363.424 632.092 369.417C619.647 375.409 606.741 378.635 602.131 382.784C602.131 382.784 597.522 376.331 590.147 382.784C590.147 382.784 582.311 375.87 579.546 369.417C579.546 369.417 585.538 366.19 583.233 357.432C590.598 352.818 598.491 349.104 606.741 346.37C617.149 342.757 626.278 336.19 633.014 327.472Z" fill="#EEE5FD"/>
<path d="M624.717 353.745C628.404 358.354 627.944 364.807 624.256 367.573C620.108 370.338 614.116 368.495 610.428 363.424C607.202 358.354 607.663 352.362 611.35 349.597C615.498 346.831 621.491 348.675 624.717 353.745Z" fill="#45D2B0"/>
<path d="M558.344 1010.11H740.872C745.707 1010.11 749.63 1011.76 749.63 1013.8V1014.04C749.63 1016.07 745.707 1017.72 740.872 1017.72H558.344C553.504 1017.72 549.586 1016.07 549.586 1014.04V1013.8C549.586 1011.76 553.513 1010.11 558.344 1010.11Z" fill="#FEFEFE"/>
<path d="M575.858 1042.37H728.283C732.353 1042.37 735.658 1044.02 735.658 1046.06V1046.3C735.658 1048.34 732.353 1049.99 728.283 1049.99H575.858C571.784 1049.99 568.483 1048.34 568.483 1046.3V1046.06C568.483 1044.02 571.793 1042.37 575.858 1042.37Z" fill="#FEFEFE"/>
</g>
</g>
<defs>
<clipPath id="clip0_12_1305">
<rect width="800" height="1080" fill="white"/>
</clipPath>
<clipPath id="clip1_12_1305">
<rect width="172" height="40" fill="white" transform="translate(70 70)"/>
</clipPath>
<clipPath id="clip2_12_1305">
<rect width="970" height="796.663" fill="white" transform="translate(126 319)"/>
</clipPath>
</defs>
</svg>
