<svg width="800" height="1080" viewBox="0 0 800 1080" fill="none" xmlns="http://www.w3.org/2000/svg">
<g clip-path="url(#clip0_12_1392)">
<rect width="800" height="1080" fill="#23216E" fill-opacity="0.05"/>
<g clip-path="url(#clip1_12_1392)">
<path d="M119.037 99H130.389V95.7673H122.498V80.6727H119.037V99Z" fill="#23216E"/>
<path d="M137.211 99.3818C138.586 99.3818 139.795 99.0763 140.839 98.4654C141.891 97.846 142.71 96.9933 143.295 95.9073C143.889 94.8127 144.186 93.5527 144.186 92.1273C144.186 90.7103 143.893 89.4588 143.308 88.3727C142.722 87.2782 141.903 86.4212 140.851 85.8018C139.808 85.1824 138.594 84.8727 137.211 84.8727C135.854 84.8727 134.653 85.1782 133.61 85.7891C132.566 86.4 131.747 87.2527 131.153 88.3473C130.559 89.4333 130.262 90.6933 130.262 92.1273C130.262 93.5442 130.551 94.8 131.128 95.8945C131.713 96.9806 132.528 97.8333 133.571 98.4527C134.615 99.0721 135.828 99.3818 137.211 99.3818ZM137.211 96.1491C136.134 96.1491 135.315 95.7885 134.755 95.0673C134.203 94.3376 133.928 93.3576 133.928 92.1273C133.928 90.9309 134.191 89.9636 134.717 89.2254C135.251 88.4788 136.083 88.1054 137.211 88.1054C138.306 88.1054 139.129 88.4703 139.68 89.2C140.24 89.9297 140.52 90.9054 140.52 92.1273C140.52 93.3067 140.245 94.2739 139.693 95.0291C139.15 95.7757 138.323 96.1491 137.211 96.1491Z" fill="#23216E"/>
<path d="M151.032 99.3818C151.677 99.3818 152.271 99.3054 152.814 99.1527C153.365 99 153.866 98.7836 154.316 98.5036V99.8909C154.333 100.4 154.201 100.824 153.921 101.164C153.65 101.511 153.285 101.77 152.827 101.94C152.368 102.118 151.88 102.207 151.363 102.207C150.879 102.207 150.43 102.101 150.014 101.889C149.607 101.677 149.293 101.367 149.072 100.96L145.865 102.513C146.391 103.404 147.142 104.121 148.117 104.664C149.093 105.215 150.167 105.491 151.337 105.491C152.347 105.491 153.285 105.355 154.15 105.084C155.016 104.821 155.745 104.418 156.339 103.874C156.942 103.331 157.353 102.64 157.574 101.8C157.65 101.503 157.701 101.202 157.727 100.896C157.76 100.599 157.777 100.281 157.777 99.9418V85.2545H154.748V86.0182C154.282 85.6533 153.751 85.3733 153.157 85.1782C152.572 84.9745 151.923 84.8727 151.21 84.8727C149.895 84.8727 148.75 85.1867 147.774 85.8145C146.798 86.4424 146.039 87.3036 145.496 88.3982C144.961 89.4842 144.694 90.7273 144.694 92.1273C144.694 93.5018 144.957 94.7363 145.483 95.8309C146.017 96.9254 146.76 97.7909 147.71 98.4273C148.66 99.0636 149.768 99.3818 151.032 99.3818ZM151.592 96.3018C150.845 96.3018 150.234 96.1151 149.759 95.7418C149.284 95.3685 148.932 94.8679 148.703 94.24C148.474 93.6036 148.359 92.8994 148.359 92.1273C148.359 91.3636 148.478 90.6679 148.716 90.04C148.953 89.4036 149.318 88.8988 149.81 88.5254C150.311 88.1436 150.947 87.9527 151.719 87.9527C152.805 87.9527 153.582 88.3388 154.048 89.1109C154.515 89.8745 154.748 90.88 154.748 92.1273C154.748 93.3745 154.511 94.3842 154.036 95.1563C153.569 95.92 152.754 96.3018 151.592 96.3018Z" fill="#23216E"/>
<path d="M166 99.3818C167.374 99.3818 168.584 99.0763 169.627 98.4654C170.679 97.846 171.498 96.9933 172.083 95.9073C172.677 94.8127 172.974 93.5527 172.974 92.1273C172.974 90.7103 172.682 89.4588 172.096 88.3727C171.511 87.2782 170.692 86.4212 169.64 85.8018C168.596 85.1824 167.383 84.8727 166 84.8727C164.642 84.8727 163.442 85.1782 162.398 85.7891C161.354 86.4 160.536 87.2527 159.942 88.3473C159.348 89.4333 159.051 90.6933 159.051 92.1273C159.051 93.5442 159.339 94.8 159.916 95.8945C160.502 96.9806 161.316 97.8333 162.36 98.4527C163.404 99.0721 164.617 99.3818 166 99.3818ZM166 96.1491C164.922 96.1491 164.103 95.7885 163.543 95.0673C162.992 94.3376 162.716 93.3576 162.716 92.1273C162.716 90.9309 162.979 89.9636 163.505 89.2254C164.04 88.4788 164.871 88.1054 166 88.1054C167.094 88.1054 167.917 88.4703 168.469 89.2C169.029 89.9297 169.309 90.9054 169.309 92.1273C169.309 93.3067 169.033 94.2739 168.482 95.0291C167.939 95.7757 167.111 96.1491 166 96.1491Z" fill="#23216E"/>
<path d="M174.5 83.3454H177.962V80.2909H174.5V83.3454ZM174.5 99H177.962V85.2545H174.5V99Z" fill="#23216E"/>
<path d="M180.225 105.109H183.712V98.5036C184.162 98.7836 184.658 99 185.201 99.1527C185.753 99.3054 186.351 99.3818 186.996 99.3818C188.26 99.3818 189.368 99.0636 190.318 98.4273C191.268 97.7909 192.006 96.9254 192.532 95.8309C193.067 94.7363 193.334 93.5018 193.334 92.1273C193.334 90.7273 193.063 89.4842 192.52 88.3982C191.985 87.3036 191.23 86.4424 190.254 85.8145C189.278 85.1867 188.133 84.8727 186.818 84.8727C186.105 84.8727 185.452 84.9745 184.858 85.1782C184.272 85.3733 183.746 85.6533 183.28 86.0182V85.2545H180.225V105.109ZM186.436 96.3018C185.282 96.3018 184.468 95.92 183.992 95.1563C183.517 94.3842 183.28 93.3745 183.28 92.1273C183.28 90.88 183.513 89.8745 183.98 89.1109C184.455 88.3388 185.231 87.9527 186.309 87.9527C187.081 87.9527 187.713 88.1436 188.205 88.5254C188.706 88.8988 189.075 89.4036 189.312 90.04C189.55 90.6679 189.669 91.3636 189.669 92.1273C189.669 92.8994 189.554 93.6036 189.325 94.24C189.096 94.8679 188.744 95.3685 188.269 95.7418C187.794 96.1151 187.183 96.3018 186.436 96.3018Z" fill="#23216E"/>
<path d="M199.606 99.3818C201.404 99.3818 202.813 98.9788 203.831 98.1727C204.849 97.3666 205.358 96.2594 205.358 94.8509C205.358 93.7818 205.027 92.9376 204.366 92.3182C203.712 91.6988 202.601 91.1854 201.031 90.7782C199.962 90.5066 199.164 90.286 198.638 90.1163C198.121 89.9467 197.777 89.7812 197.607 89.62C197.446 89.4588 197.366 89.2594 197.366 89.0218C197.366 88.623 197.556 88.3176 197.938 88.1054C198.329 87.8933 198.842 87.8085 199.478 87.8509C200.827 87.9527 201.566 88.5297 201.693 89.5818L205.231 88.9454C205.053 87.6982 204.442 86.7097 203.398 85.98C202.355 85.2418 201.023 84.8727 199.402 84.8727C197.739 84.8727 196.411 85.263 195.418 86.0436C194.426 86.8242 193.929 87.8763 193.929 89.2C193.929 90.2521 194.273 91.0836 194.96 91.6945C195.647 92.297 196.831 92.8145 198.511 93.2473C199.504 93.5103 200.233 93.7224 200.7 93.8836C201.175 94.0448 201.481 94.2103 201.616 94.38C201.752 94.5412 201.82 94.7576 201.82 95.0291C201.82 95.4618 201.65 95.8012 201.311 96.0473C200.972 96.2848 200.488 96.4036 199.86 96.4036C199.096 96.4036 198.464 96.2212 197.964 95.8563C197.472 95.4915 197.153 94.9867 197.009 94.3418L193.471 94.8763C193.7 96.3103 194.345 97.4218 195.406 98.2109C196.475 98.9915 197.875 99.3818 199.606 99.3818Z" fill="#23216E"/>
<path d="M211.744 99.4073C212.737 99.4073 213.602 99.2418 214.341 98.9109C215.079 98.58 215.698 98.1388 216.199 97.5873V99H219.253V85.2545H215.766V92.2291C215.766 93.0776 215.668 93.7648 215.473 94.2909C215.287 94.8085 215.045 95.203 214.748 95.4745C214.451 95.7376 214.133 95.9157 213.793 96.0091C213.454 96.1024 213.136 96.1491 212.839 96.1491C212.101 96.1491 211.528 95.9836 211.121 95.6527C210.722 95.3218 210.433 94.9103 210.255 94.4182C210.077 93.926 209.971 93.4382 209.937 92.9545C209.903 92.4624 209.886 92.0594 209.886 91.7454V85.2545H206.373V92.9673C206.373 93.1963 206.39 93.5612 206.424 94.0618C206.458 94.5624 206.556 95.1182 206.717 95.7291C206.878 96.3315 207.145 96.9127 207.519 97.4727C207.901 98.0327 208.431 98.4951 209.11 98.86C209.788 99.2248 210.667 99.4073 211.744 99.4073Z" fill="#23216E"/>
<path d="M221.258 99H224.745V90.6763C224.745 89.8873 224.961 89.2467 225.394 88.7545C225.835 88.2539 226.416 88.0036 227.138 88.0036C227.893 88.0036 228.483 88.2582 228.907 88.7673C229.339 89.2679 229.556 89.9721 229.556 90.88V99H233.018V90.6763C233.018 89.8873 233.234 89.2467 233.667 88.7545C234.108 88.2539 234.689 88.0036 235.41 88.0036C236.166 88.0036 236.755 88.2582 237.179 88.7673C237.612 89.2679 237.829 89.9721 237.829 90.88V99H241.29V89.9636C241.29 88.4618 240.887 87.2485 240.081 86.3236C239.284 85.3903 238.1 84.9236 236.53 84.9236C235.648 84.9236 234.838 85.1145 234.099 85.4963C233.361 85.8782 232.772 86.4 232.33 87.0618C231.974 86.417 231.465 85.8994 230.803 85.5091C230.141 85.1188 229.318 84.9236 228.334 84.9236C227.502 84.9236 226.739 85.0891 226.043 85.42C225.347 85.7424 224.77 86.1879 224.312 86.7563V85.2545H221.258V99Z" fill="#23216E"/>
<path d="M90 70C78.9543 70 70 78.9543 70 90C81.0457 90 90 81.0457 90 70Z" fill="#45D2B0"/>
<path d="M90 110C101.046 110 110 101.046 110 90C98.9543 90 90 98.9543 90 110Z" fill="#45D2B0"/>
<path d="M90 70C101.046 70 110 78.9543 110 90C98.9543 90 90 81.0457 90 70Z" fill="#23216E"/>
<path d="M90 110C78.9543 110 70 101.046 70 90C81.0457 90 90 98.9543 90 110Z" fill="#23216E"/>
</g>
<g clip-path="url(#clip2_12_1392)">
<path d="M199.618 1092.27L1282.92 1086.54C1318.83 1079.74 1342.75 1042.5 1345.18 1006.05C1347.61 969.611 1333.05 934.163 1316.12 901.84C1299.19 869.517 1279.39 838.051 1269.86 802.769C1244.75 709.671 1294.72 604.71 1255.8 516.478C1232.26 463.113 1175.92 426.006 1117.69 425.481C1054.88 424.9 994.086 462.892 932.325 451.417C845.788 435.38 793.225 329.12 705.252 325.111C644.485 322.346 594.463 370.457 553.998 416.052C513.533 461.648 467.709 511.888 406.943 515.704C368.273 518.137 331.647 500.883 294.303 490.819C256.96 480.754 211.854 479.924 185.338 508.1C159.401 535.75 162.136 579.161 170.919 615.936C179.703 652.711 193.016 691.117 182.548 727.533C170.174 770.805 127.886 798.787 108.275 839.295C85.4319 886.079 96.7566 943.758 123.991 988.081C151.226 1032.4 159.401 1059.31 199.618 1092.27Z" fill="#E8EEF9"/>
<path d="M1119.29 558.755H355.76V1088.53H1119.29V558.755Z" fill="#F2F2F2"/>
<path d="M355.76 558.783H359.324H369.958H411.389L568.112 558.479L1119.21 557.981H1120.26V559.032C1120.26 719.763 1120.26 899.517 1120.26 1088.76V1089.97H1119.1L355.567 1089.72H354.628V1088.81C354.849 927.527 355.015 794.972 355.125 702.758C355.125 656.72 355.318 620.775 355.374 596.277C355.374 584.083 355.374 574.765 355.374 568.461V561.382C355.374 559.806 355.374 559.032 355.374 559.032C355.374 559.032 355.374 559.861 355.374 561.493C355.374 563.124 355.374 565.502 355.374 568.654C355.374 575.014 355.374 584.387 355.374 596.664C355.374 621.19 355.374 657.218 355.622 703.339C355.622 795.414 355.899 927.776 356.119 1088.81L355.18 1087.87L1118.71 1087.65L1117.58 1088.81C1117.58 899.572 1117.58 719.818 1117.58 559.087L1118.63 560.138L568.195 559.612L411.251 559.336L369.543 559.198H358.771L355.76 558.783Z" fill="#23216E"/>
<path d="M393.491 1041.83C392.856 1041.83 392.331 958.661 392.331 856.079C392.331 753.496 392.856 670.324 393.491 670.324C394.126 670.324 394.624 753.469 394.624 856.079C394.624 958.689 394.126 1041.83 393.491 1041.83Z" fill="#23216E"/>
<path d="M1119.29 559.225H355.76V640.379H1119.29V559.225Z" fill="#45D2B0"/>
<path d="M1119.29 640.379C1119.29 640.379 1119.29 638.582 1119.29 635.07C1119.29 631.558 1119.29 626.36 1119.29 619.531C1119.29 605.844 1119.29 585.576 1119.13 559.225L1119.43 559.53L355.926 559.944L356.644 559.225V640.379L355.926 639.66L898.351 639.964L1060.32 640.185H1104.16H1115.56H1119.46H1115.65H1104.35H1060.68L898.876 640.407L355.926 640.711H355.208V558.506H355.954L1119.46 558.921H1119.57V559.225C1119.57 585.659 1119.43 605.982 1119.4 619.697C1119.4 626.526 1119.4 631.697 1119.4 635.181C1119.4 638.665 1119.29 640.379 1119.29 640.379Z" fill="#23216E"/>
<path d="M589.243 902.227H396.032V980.588H589.243V902.227Z" fill="#D7E7F6"/>
<path d="M882.497 902.227H784V980.588H882.497V902.227Z" fill="#D7E7F6"/>
<path d="M786.762 819.829H688.265V898.19H786.762V819.829Z" fill="#D7E7F6"/>
<path d="M786.762 980.615H688.265V1063.04H786.762V980.615Z" fill="#D7E7F6"/>
<path d="M886.391 670.297H393.215V746.943H886.391V670.297Z" fill="#D7E7F6"/>
<path d="M491.961 1051.46C491.325 1051.46 490.828 968.283 490.828 865.701C490.828 763.118 491.325 679.919 491.961 679.919C492.596 679.919 493.121 763.091 493.121 865.701C493.121 968.311 492.568 1051.46 491.961 1051.46Z" fill="#23216E"/>
<path d="M589.243 1050.24C588.607 1050.24 588.083 967.067 588.083 864.484C588.083 761.902 588.635 678.702 589.243 678.702C589.85 678.702 590.375 761.846 590.375 864.457C590.375 967.067 589.906 1050.24 589.243 1050.24Z" fill="#23216E"/>
<path d="M687.739 1058.67C687.104 1058.67 686.607 971.132 686.607 863.213C686.607 755.294 687.104 667.725 687.739 667.725C688.375 667.725 688.899 755.238 688.899 863.213C688.899 971.187 688.375 1058.67 687.739 1058.67Z" fill="#23216E"/>
<path d="M786.237 1068.29C785.601 1068.29 785.077 980.311 785.077 871.978C785.077 763.644 785.601 675.522 786.237 675.522C786.872 675.522 787.369 763.478 787.369 871.978C787.369 980.477 786.872 1068.29 786.237 1068.29Z" fill="#23216E"/>
<path d="M1081.81 744.869C1081.81 745.505 927.547 746.003 737.32 746.003C547.093 746.003 392.773 745.505 392.773 744.869C392.773 744.233 547.01 743.708 737.32 743.708C927.63 743.708 1081.81 744.233 1081.81 744.869Z" fill="#23216E"/>
<path d="M1081.81 816.953C1081.81 817.589 927.547 818.087 737.32 818.087C547.093 818.087 392.773 817.589 392.773 816.953C392.773 816.318 547.01 815.792 737.32 815.792C927.63 815.792 1081.81 816.373 1081.81 816.953Z" fill="#23216E"/>
<path d="M1081.81 899.904C1081.81 900.54 927.547 901.066 737.32 901.066C547.093 901.066 392.773 900.54 392.773 899.904C392.773 899.268 547.01 898.743 737.32 898.743C927.63 898.743 1081.81 899.324 1081.81 899.904Z" fill="#23216E"/>
<path d="M1089.19 1063.48C1089.19 1064.12 931.745 1064.62 737.596 1064.62C543.446 1064.62 385.978 1064.12 385.978 1063.48C385.978 1062.85 543.419 1062.32 737.596 1062.32C931.773 1062.32 1089.19 1062.85 1089.19 1063.48Z" fill="#23216E"/>
<path d="M1089.19 670.407C1089.19 671.043 931.745 671.541 737.596 671.541C543.446 671.541 385.978 671.043 385.978 670.407C385.978 669.771 543.419 669.246 737.596 669.246C931.773 669.246 1089.19 669.688 1089.19 670.407Z" fill="#23216E"/>
<path d="M1087.5 980.284C1087.5 980.92 933.264 981.445 743.009 981.445C552.755 981.445 398.49 980.92 398.49 980.284C398.49 979.648 552.699 979.15 743.009 979.15C933.32 979.15 1087.5 979.648 1087.5 980.284Z" fill="#23216E"/>
<path d="M775.52 921.72C772.542 925.168 769.27 928.351 765.742 931.232C759.499 936.762 750.799 944.56 741.076 952.91L728.84 963.5L728.122 964.108L727.348 963.5C721.841 958.668 716.724 953.407 712.046 947.767C710.083 945.675 708.42 943.321 707.102 940.771C709.25 942.637 711.237 944.681 713.041 946.882C717.984 952.17 723.232 957.165 728.757 961.841H727.348L739.502 951.279C749.224 942.983 758.091 935.435 764.609 930.098C767.989 926.986 771.641 924.182 775.52 921.72Z" fill="#23216E"/>
<path d="M427.631 606.756C433.458 606.756 438.182 602.027 438.182 596.194C438.182 590.36 433.458 585.631 427.631 585.631C421.804 585.631 417.08 590.36 417.08 596.194C417.08 602.027 421.804 606.756 427.631 606.756Z" fill="#F9F8FE"/>
<path d="M495.137 607.282C500.965 607.282 505.689 602.553 505.689 596.719C505.689 590.886 500.965 586.157 495.137 586.157C489.31 586.157 484.586 590.886 484.586 596.719C484.586 602.553 489.31 607.282 495.137 607.282Z" fill="#F9F8FE"/>
<path d="M567.919 595.917C567.919 598.013 567.297 600.062 566.134 601.804C564.97 603.546 563.316 604.903 561.382 605.704C559.447 606.505 557.318 606.713 555.266 606.302C553.213 605.891 551.328 604.88 549.849 603.396C548.371 601.912 547.366 600.022 546.961 597.966C546.556 595.91 546.769 593.78 547.574 591.845C548.379 589.911 549.739 588.259 551.482 587.098C553.226 585.938 555.274 585.322 557.367 585.327C558.755 585.327 560.13 585.601 561.411 586.134C562.693 586.666 563.858 587.447 564.838 588.431C565.818 589.414 566.595 590.582 567.123 591.867C567.652 593.151 567.922 594.528 567.919 595.917Z" fill="#F9F8FE"/>
<path d="M628.741 595.917C628.741 598.012 628.12 600.059 626.958 601.801C625.796 603.542 624.143 604.9 622.21 605.701C620.277 606.503 618.15 606.712 616.098 606.304C614.046 605.895 612.161 604.887 610.682 603.406C609.202 601.925 608.194 600.038 607.786 597.983C607.378 595.929 607.588 593.8 608.388 591.865C609.189 589.93 610.545 588.276 612.285 587.112C614.024 585.948 616.07 585.327 618.162 585.327C619.552 585.324 620.929 585.595 622.215 586.126C623.5 586.657 624.667 587.437 625.651 588.421C626.634 589.405 627.413 590.574 627.943 591.86C628.473 593.147 628.745 594.526 628.741 595.917Z" fill="#F9F8FE"/>
<path d="M689.563 595.917C689.563 598.012 688.942 600.059 687.78 601.801C686.617 603.542 684.965 604.9 683.032 605.701C681.099 606.503 678.972 606.713 676.92 606.304C674.868 605.895 672.983 604.887 671.503 603.406C670.024 601.925 669.016 600.038 668.608 597.983C668.2 595.929 668.409 593.8 669.21 591.865C670.011 589.93 671.367 588.276 673.106 587.112C674.846 585.948 676.891 585.327 678.984 585.327C680.373 585.327 681.749 585.601 683.032 586.133C684.316 586.666 685.482 587.446 686.464 588.429C687.446 589.412 688.226 590.58 688.757 591.865C689.289 593.15 689.563 594.527 689.563 595.917Z" fill="#F9F8FE"/>
<path d="M750.357 595.917C750.351 598.005 749.728 600.045 748.565 601.778C747.403 603.511 745.753 604.861 743.824 605.656C741.896 606.451 739.775 606.656 737.73 606.246C735.685 605.835 733.808 604.827 732.335 603.349C730.862 601.87 729.86 599.988 729.455 597.94C729.05 595.892 729.261 593.77 730.06 591.841C730.86 589.913 732.212 588.265 733.947 587.105C735.681 585.946 737.72 585.327 739.806 585.327C741.194 585.327 742.568 585.601 743.85 586.134C745.132 586.666 746.296 587.447 747.276 588.431C748.256 589.414 749.033 590.582 749.562 591.867C750.09 593.151 750.361 594.528 750.357 595.917Z" fill="#F9F8FE"/>
<path d="M805.709 605.208C811.537 605.208 816.261 600.479 816.261 594.645C816.261 588.812 811.537 584.083 805.709 584.083C799.882 584.083 795.158 588.812 795.158 594.645C795.158 600.479 799.882 605.208 805.709 605.208Z" fill="#F9F8FE"/>
<g opacity="0.26">
<path opacity="0.37" d="M737.264 789.995H469.836V836.834H737.264V789.995Z" fill="#B6C6CE"/>
</g>
<path d="M452.545 558.976C452.214 558.976 452.076 557.207 451.054 554.304C449.587 550.285 447.022 546.759 443.651 544.128C441.258 542.183 438.463 540.792 435.469 540.055C432.474 539.319 429.354 539.256 426.333 539.87C422.647 540.658 419.183 542.261 416.196 544.563C413.209 546.864 410.774 549.805 409.069 553.17C407.487 556.623 406.602 560.354 406.465 564.15C406.327 567.946 406.94 571.732 408.268 575.29C410.465 581.252 414.365 586.435 419.483 590.194C422.983 592.799 426.857 594.859 430.973 596.304C433.901 597.355 435.613 597.797 435.586 598.129C435.558 598.461 433.735 598.461 430.531 597.853C425.997 596.937 421.683 595.153 417.825 592.599C411.899 588.779 407.312 583.201 404.705 576.645C403.076 572.599 402.291 568.262 402.401 563.902C402.51 559.541 403.51 555.249 405.341 551.29C407.319 547.356 410.183 543.935 413.705 541.297C417.228 538.658 421.314 536.873 425.642 536.082C429.441 535.395 433.351 535.661 437.022 536.856C440.167 537.919 443.061 539.612 445.529 541.833C449.116 544.967 451.596 549.175 452.6 553.834C453.208 557.041 452.766 558.976 452.545 558.976Z" fill="#23216E"/>
<path d="M513.201 557.732C512.87 557.732 512.731 555.963 511.71 553.087C510.238 549.063 507.675 545.529 504.307 542.884C501.911 540.943 499.116 539.557 496.121 538.826C493.127 538.094 490.008 538.036 486.989 538.654C483.299 539.432 479.831 541.032 476.843 543.334C473.855 545.636 471.422 548.582 469.725 551.953C468.139 555.404 467.249 559.135 467.107 562.931C466.964 566.727 467.573 570.514 468.897 574.074C471.118 580.029 475.024 585.208 480.138 588.977C483.646 591.57 487.519 593.629 491.629 595.088C494.557 596.138 496.269 596.581 496.214 596.885C496.159 597.189 494.391 597.244 491.187 596.636C486.648 595.695 482.328 593.903 478.454 591.355C472.535 587.538 467.95 581.972 465.334 575.428C463.708 571.381 462.929 567.043 463.043 562.682C463.157 558.321 464.162 554.03 465.996 550.073C467.974 546.136 470.836 542.71 474.359 540.067C477.881 537.424 481.968 535.634 486.298 534.838C490.098 534.165 494.004 534.43 497.678 535.612C500.829 536.672 503.726 538.377 506.185 540.617C509.767 543.743 512.247 547.941 513.256 552.589C513.864 555.935 513.422 557.732 513.201 557.732Z" fill="#23216E"/>
<path d="M574.603 557.622C574.271 557.622 574.133 555.852 573.111 552.949C571.636 548.927 569.061 545.402 565.681 542.773C563.295 540.825 560.505 539.433 557.514 538.702C554.522 537.97 551.405 537.915 548.39 538.543C544.702 539.317 541.236 540.911 538.247 543.209C535.259 545.507 532.825 548.448 531.127 551.815C529.543 555.267 528.655 558.997 528.513 562.793C528.371 566.588 528.978 570.375 530.299 573.935C532.513 579.887 536.421 585.059 541.54 588.811C545.041 591.417 548.915 593.477 553.031 594.922C555.959 596 557.671 596.415 557.616 596.747C557.561 597.079 555.793 597.106 552.589 596.498C548.048 595.561 543.727 593.769 539.855 591.217C533.936 587.388 529.351 581.813 526.735 575.263C525.11 571.215 524.331 566.877 524.445 562.516C524.559 558.155 525.564 553.864 527.398 549.907C529.418 546.004 532.311 542.621 535.851 540.021C539.392 537.422 543.485 535.676 547.81 534.921C551.609 534.234 555.519 534.5 559.19 535.695C562.335 536.757 565.23 538.451 567.698 540.672C571.284 543.805 573.764 548.014 574.769 552.672C575.266 555.797 574.824 557.622 574.603 557.622Z" fill="#23216E"/>
<path d="M635.646 558.977C635.287 558.977 635.176 557.207 634.127 554.304C632.66 550.285 630.095 546.759 626.724 544.128C624.332 542.181 621.537 540.789 618.543 540.053C615.548 539.316 612.427 539.254 609.406 539.87C605.72 540.658 602.256 542.261 599.269 544.563C596.282 546.864 593.847 549.805 592.143 553.17C588.959 560.146 588.671 568.102 591.341 575.29C593.547 581.255 597.456 586.438 602.583 590.194C606.074 592.798 609.939 594.858 614.046 596.304C617.002 597.355 618.714 597.798 618.659 598.129C618.604 598.461 616.808 598.461 613.632 597.853C609.087 596.946 604.762 595.162 600.898 592.599C594.979 588.771 590.394 583.196 587.778 576.645C586.153 572.598 585.373 568.26 585.487 563.899C585.601 559.538 586.607 555.247 588.441 551.29C590.41 547.354 593.267 543.931 596.786 541.292C600.305 538.652 604.389 536.869 608.715 536.082C612.514 535.394 616.424 535.66 620.095 536.856C623.243 537.912 626.139 539.607 628.602 541.833C632.199 544.963 634.689 549.172 635.701 553.834C636.198 557.041 635.867 558.977 635.646 558.977Z" fill="#23216E"/>
<path d="M700.804 558.976C700.445 558.976 700.307 557.207 699.285 554.304C697.818 550.285 695.254 546.759 691.883 544.128C689.489 542.183 686.695 540.792 683.7 540.055C680.706 539.319 677.586 539.256 674.564 539.87C670.878 540.658 667.415 542.261 664.428 544.563C661.441 546.864 659.006 549.805 657.301 553.17C654.117 560.146 653.829 568.102 656.5 575.29C658.705 581.255 662.615 586.438 667.742 590.194C671.229 592.803 675.095 594.864 679.204 596.304C682.132 597.355 683.845 597.797 683.817 598.129C683.79 598.461 681.967 598.461 678.79 597.853C674.245 596.946 669.92 595.161 666.057 592.599C660.137 588.771 655.553 583.196 652.937 576.645C651.305 572.599 650.522 568.26 650.636 563.898C650.75 559.537 651.759 555.245 653.6 551.29C655.569 547.354 658.426 543.931 661.945 541.292C665.463 538.652 669.547 536.869 673.874 536.082C677.673 535.395 681.582 535.661 685.253 536.856C688.398 537.919 691.293 539.612 693.761 541.833C697.348 544.967 699.828 549.175 700.832 553.834C701.44 557.041 701.025 558.976 700.804 558.976Z" fill="#23216E"/>
<path d="M761.543 557.318C761.212 557.318 761.074 555.576 760.052 552.672C758.585 548.653 756.02 545.128 752.649 542.497C750.256 540.551 747.461 539.16 744.467 538.424C741.473 537.688 738.353 537.625 735.331 538.239C731.645 539.027 728.181 540.63 725.194 542.931C722.207 545.232 719.772 548.173 718.068 551.539C716.481 554.989 715.591 558.72 715.449 562.516C715.307 566.312 715.915 570.099 717.239 573.659C719.453 579.619 723.361 584.799 728.481 588.562C731.981 591.168 735.855 593.228 739.971 594.673C742.899 595.724 744.612 596.166 744.556 596.498C744.501 596.83 742.733 596.83 739.529 596.221C734.987 595.305 730.664 593.521 726.796 590.968C720.877 587.139 716.292 581.564 713.676 575.014C712.051 570.966 711.271 566.628 711.385 562.267C711.499 557.906 712.504 553.615 714.339 549.658C716.318 545.725 719.181 542.304 722.703 539.665C726.226 537.026 730.312 535.242 734.64 534.451C738.439 533.764 742.349 534.03 746.02 535.225C749.17 536.276 752.067 537.971 754.528 540.202C758.114 543.335 760.594 547.544 761.599 552.202C762.206 555.52 761.764 557.345 761.543 557.318Z" fill="#23216E"/>
<path d="M826.426 557.041C826.094 557.041 825.956 555.271 824.934 552.396C823.467 548.377 820.903 544.851 817.532 542.22C815.138 540.275 812.344 538.884 809.349 538.148C806.355 537.411 803.235 537.348 800.213 537.962C796.527 538.75 793.064 540.354 790.077 542.655C787.09 544.956 784.655 547.897 782.95 551.262C781.36 554.713 780.471 558.445 780.334 562.242C780.196 566.039 780.813 569.826 782.149 573.382C784.342 579.346 788.243 584.53 793.363 588.286C796.863 590.891 800.737 592.952 804.854 594.397C807.781 595.447 809.494 595.89 809.466 596.194C809.439 596.498 807.616 596.553 804.412 595.945C799.865 595.029 795.54 593.235 791.678 590.664C785.755 586.859 781.175 581.288 778.586 574.737C776.95 570.693 776.162 566.355 776.271 561.993C776.381 557.632 777.385 553.339 779.221 549.382C781.2 545.448 784.063 542.028 787.586 539.389C791.108 536.75 795.194 534.965 799.523 534.174C803.322 533.487 807.231 533.753 810.903 534.948C814.052 536 816.949 537.695 819.41 539.926C822.997 543.059 825.477 547.268 826.481 551.926C827.089 555.105 826.785 557.041 826.426 557.041Z" fill="#23216E"/>
<path d="M766.018 832.825C766.46 833.295 752.042 847.258 733.812 863.987C715.582 880.715 700.473 893.959 700.059 893.489C699.644 893.019 714.035 879.056 732.265 862.3C750.495 845.544 765.576 832.355 766.018 832.825Z" fill="#23216E"/>
<path d="M771.542 888.623C767.369 886.612 763.376 884.243 759.61 881.544C752.428 876.872 742.651 870.208 731.989 862.493C721.327 854.779 712.102 847.479 705.5 842.06C701.776 839.301 698.309 836.21 695.142 832.825C699.127 835.17 702.922 837.823 706.494 840.76L733.342 860.641L760.411 880.19C764.339 882.701 768.061 885.521 771.542 888.623Z" fill="#23216E"/>
<path d="M737.513 780.704H481.989V827.544H737.513V780.704Z" fill="#F2F2F2"/>
<path d="M482.017 780.704H483.232H486.961H501.379L555.185 780.483L737.485 780.179H738.176V780.87C738.176 795.912 738.176 811.672 738.176 827.71V828.428H737.458L482.017 828.014H481.52V827.654C481.52 812.668 481.685 800.944 481.713 792.87V783.828V781.534C481.689 781.285 481.689 781.035 481.713 780.787C481.713 780.787 481.713 781.091 481.713 781.616V783.773C481.713 785.902 481.713 788.944 481.713 792.925C481.713 800.916 481.713 812.585 481.906 827.461L481.547 827.074L737.071 826.742L736.353 827.461V780.704L737.071 781.423L555.682 781.008H501.711H487.127H483.315C482.877 780.932 482.443 780.83 482.017 780.704Z" fill="#23216E"/>
<path d="M530.16 788.114H494.06V820.133H530.16V788.114Z" fill="#23216E"/>
<path d="M541.237 813.414H716.935V804.124L541.237 808.05" fill="#23216E"/>
<path d="M541.237 799.7V791.183H591.093V798.538L541.237 799.7Z" fill="#23216E"/>
<path d="M528.31 766.713C532.315 766.243 547.12 764.446 547.811 763.201C548.501 761.957 528.31 761.791 528.31 761.791L518.477 762.151C521.087 760.559 523.284 758.37 524.885 755.763C525.631 754.519 524.36 752.805 522.372 755.155C520.383 757.505 511.323 761.404 509.003 762.482H508.644C507.235 762.482 506.075 764.833 505.523 766.132L440.088 758.888L435.834 783.054L502.871 779.045C507.429 780.842 521.184 780.566 526.377 780.372C526.377 780.372 542.949 780.87 542.949 779.294C542.949 777.718 530.465 776.308 528.476 776.086C530.713 776.086 546.264 775.257 545.877 773.736C545.491 772.215 532.067 771.773 528.476 771.635C532.315 771.441 547.148 770.556 546.761 769.202C546.374 767.847 532.315 767.045 528.476 766.851L528.31 766.713Z" fill="#F2F2F2"/>
<path d="M528.31 766.713C528.31 766.713 528.31 766.713 528.31 766.879C528.669 766.879 532.26 766.879 538.613 767.377C540.215 767.543 541.983 767.681 543.888 768.013C544.386 768.013 544.855 768.178 545.38 768.317C545.635 768.365 545.885 768.439 546.126 768.538C546.374 768.704 546.706 768.538 546.927 769.257C547.148 769.976 546.374 769.893 546.153 770.059C545.885 770.167 545.608 770.25 545.325 770.308L543.695 770.667C539.193 771.386 534.055 771.773 528.338 772.132L528.724 771.69L528.31 771.248C530.824 771.248 533.448 771.441 536.182 771.635C539.078 771.754 541.96 772.105 544.8 772.685C545.255 772.807 545.678 773.024 546.043 773.321C546.131 773.428 546.192 773.553 546.22 773.688C546.249 773.823 546.245 773.963 546.209 774.096C546.124 774.268 546.001 774.42 545.849 774.538C545.649 774.67 545.437 774.781 545.214 774.87C544.457 775.116 543.681 775.301 542.894 775.423C541.347 775.699 539.773 775.865 538.198 776.031C534.994 776.335 531.707 776.557 528.338 776.722L528.89 776.142L528.365 775.561C530.796 775.838 533.254 776.169 535.768 776.584C537.038 776.778 538.309 777.027 539.607 777.303C540.242 777.469 540.905 777.635 541.568 777.856L542.563 778.243C542.772 778.368 542.967 778.517 543.143 778.686C543.295 778.83 543.384 779.029 543.391 779.239C543.402 779.365 543.385 779.492 543.342 779.611C543.299 779.73 543.231 779.839 543.143 779.93C542.815 780.24 542.401 780.443 541.955 780.51L540.905 780.704C540.215 780.704 539.524 780.87 538.834 780.925C537.48 780.925 536.072 781.091 534.718 781.119C531.956 781.119 529.194 781.119 526.266 781.119L525.631 780.455L526.294 781.119C522.537 781.257 518.67 781.312 514.693 781.119C510.586 781.166 506.491 780.673 502.512 779.653L501.987 779.487V778.879L502.705 779.709L446.468 783.11L435.696 783.746H434.785L434.95 782.833L439.204 758.667V758.003H439.867L505.329 765.275L504.722 765.662C505.083 764.773 505.546 763.928 506.103 763.146C506.404 762.733 506.768 762.37 507.18 762.068C507.636 761.76 508.177 761.605 508.727 761.625H508.506C510.909 760.575 513.256 759.469 515.494 758.335C517.695 757.343 519.764 756.08 521.653 754.575C522.071 754.033 522.611 753.597 523.228 753.303C523.429 753.219 523.645 753.176 523.863 753.176C524.081 753.176 524.297 753.219 524.498 753.303C524.707 753.397 524.89 753.538 525.034 753.716C525.178 753.893 525.278 754.102 525.327 754.326C525.359 754.687 525.319 755.052 525.21 755.398C525.101 755.745 524.925 756.066 524.692 756.344C524.36 756.842 524.001 757.312 523.642 757.782C522.193 759.571 520.445 761.096 518.477 762.289L518.228 761.376C522.095 761.376 525.741 761.072 529.277 761.072C532.812 761.072 536.016 761.072 539.055 761.321C540.601 761.321 542.065 761.487 543.474 761.598C544.884 761.642 546.28 761.893 547.617 762.344C547.744 762.416 547.849 762.521 547.921 762.648C547.921 762.897 547.921 763.174 547.783 763.174C547.648 763.332 547.478 763.455 547.286 763.533L546.347 763.865L544.551 764.307L541.209 764.888C537.011 765.552 533.724 765.911 531.514 766.16L529.001 766.409H528.117C528.394 766.317 528.682 766.261 528.973 766.243L531.486 765.856C533.696 765.524 537.011 765.082 541.126 764.335C542.176 764.142 543.281 763.948 544.413 763.699C544.993 763.561 545.573 763.423 546.153 763.229C546.448 763.157 546.735 763.055 547.01 762.925C547.11 762.885 547.203 762.829 547.286 762.759C547.286 762.759 547.286 762.759 547.424 762.759C547.424 762.759 547.424 762.759 547.258 762.759C544.533 762.194 541.755 761.925 538.972 761.957C535.933 761.957 532.674 761.819 529.222 761.819C525.769 761.819 522.095 762.068 518.173 762.206H516.322L517.897 761.211C519.759 760.083 521.405 758.632 522.758 756.925C523.114 756.482 523.446 756.021 523.753 755.542C524.084 755.045 524.305 754.685 524.222 754.353C524.139 754.021 523.946 753.966 523.532 754.104C523.087 754.361 522.693 754.699 522.371 755.1C520.409 756.725 518.246 758.092 515.936 759.164C513.671 760.298 511.323 761.432 508.892 762.51C507.567 762.372 506.655 764.28 505.965 765.828L505.771 766.215H505.357L440.088 759.662L440.861 759.082L436.635 783.248L435.889 782.418L446.634 781.782L502.899 778.437H503.782L503.617 779.322L503.175 778.575C507.003 779.536 510.939 780.001 514.886 779.957C518.808 779.957 522.675 779.957 526.432 779.957L527.095 780.593L526.459 779.957C529.222 779.957 531.984 779.957 534.746 779.957C536.099 779.957 537.508 779.957 538.806 779.792L540.767 779.598C541.375 779.598 542.121 779.239 542.369 779.294C542.435 779.326 542.492 779.373 542.535 779.432H542.397L542.148 779.266L541.32 778.934C540.721 778.736 540.113 778.57 539.497 778.437C538.254 778.133 536.983 777.911 535.74 777.69C533.254 777.275 530.796 776.944 528.421 776.639H527.896V775.533H528.448C531.818 775.395 535.105 775.202 538.254 774.925C539.828 774.759 541.375 774.621 542.866 774.372C543.596 774.258 544.316 774.092 545.021 773.874L545.38 773.681C545.438 773.748 545.515 773.796 545.601 773.819C545.526 773.849 545.46 773.896 545.408 773.957C545.169 773.812 544.908 773.709 544.634 773.653C541.906 773.062 539.135 772.692 536.348 772.547C533.586 772.326 530.989 772.188 528.503 772.105H528.089V771.192H528.503C534.221 770.888 539.358 770.556 543.778 769.893C544.326 769.821 544.87 769.719 545.408 769.589C545.877 769.589 546.457 769.146 546.623 769.229C546.789 769.312 545.877 768.87 545.435 768.814L544.027 768.483C542.121 768.151 540.381 767.957 538.806 767.791C532.481 767.128 528.862 766.934 528.503 766.824L528.31 766.713Z" fill="#23216E"/>
<path d="M425.614 746.86L391.336 713.818C374.447 713.881 357.573 714.859 340.79 716.749C327.393 718.519 319.604 718.325 315.102 722.611C310.6 726.897 309.357 732.814 308.473 740.279C306.733 755.57 345.513 834.982 345.513 834.982V843.277H404.18C404.18 843.277 404.677 814.99 404.18 781.229L424.371 792.289L440.557 788.64L447.352 749.929L425.614 746.86Z" fill="#D7E7F6"/>
<path d="M425.614 746.86L427.078 746.998L431.304 747.524L447.573 749.708H447.877V750.04C446.22 759.856 443.955 773.017 441.275 788.75V789.054H440.972L424.786 792.759H424.592H424.399L404.208 781.699L405.064 781.174C405.064 799.921 405.064 820.825 405.064 843.249V843.912H404.18H345.43H344.712V834.954V835.258L341.342 828.014C333.056 810.317 325.101 792.953 318.278 776.031C314.867 767.793 311.907 759.375 309.412 750.814C308.827 748.723 308.366 746.6 308.031 744.454C307.671 742.303 307.671 740.108 308.031 737.957C308.458 733.744 309.686 729.652 311.649 725.901C312.692 724.065 314.102 722.465 315.792 721.201C317.472 720.063 319.344 719.238 321.317 718.767C325.109 717.974 328.947 717.411 332.807 717.081C340.292 716.307 347.474 715.283 354.352 714.813C368.162 713.763 380.454 713.431 391.171 713.403H391.336H391.474L416.555 737.874L423.184 744.427L424.869 746.141L425.449 746.749C425.449 746.749 425.228 746.749 424.813 746.252L423.073 744.648L416.306 738.261L390.867 714.012H391.171C380.481 714.012 368.107 714.537 354.434 715.671C347.584 716.141 340.458 717.191 332.945 718.049C329.14 718.382 325.358 718.945 321.621 719.735C319.765 720.152 318.004 720.911 316.428 721.975C314.889 723.146 313.609 724.624 312.671 726.316C310.799 729.913 309.636 733.837 309.246 737.874C308.736 742.039 309.18 746.265 310.544 750.233C313.058 758.725 316.017 767.078 319.411 775.257C326.233 792.124 334.105 809.46 342.475 827.156C343.69 829.645 344.878 832.133 345.982 834.428V834.594V842.889L345.264 842.171H404.18L403.49 842.834C403.49 820.437 403.655 799.534 403.711 780.815V779.792L404.567 780.289L424.73 791.515H424.371L440.557 787.921L440.198 788.308C442.96 772.602 445.391 759.469 447.159 749.597L447.407 749.957L431.111 747.468L426.912 746.777L425.614 746.86Z" fill="#23216E"/>
<path d="M347.087 901.232C347.087 901.232 377.747 964.523 378.824 975.694C379.901 986.864 377.001 1008.43 378.824 1027.79C380.647 1047.14 398.463 1087.37 398.463 1087.37H408.876L405.838 949.675L404.705 844.383L358.053 860.503L347.087 901.232Z" fill="#23216E"/>
<path d="M404.18 843.221C404.18 843.221 404.843 840.733 404.622 844.327C403.379 865.01 353.219 976.302 347.198 980.394C340.569 984.846 302.313 1061.55 296.375 1089.83H286.348C286.348 1089.83 287.094 1036.22 293.06 1020.71C299.026 1005.2 314.605 977.519 314.605 977.519L346.176 841.839L404.18 843.221Z" fill="#23216E"/>
<path d="M338.801 701.458C346.894 686.887 360.898 672.398 373.548 661.421C375.801 659.803 377.414 657.445 378.106 654.757C378.492 651.992 376.117 648.84 373.465 649.531C375.286 648.37 376.809 646.798 377.912 644.941C378.444 643.999 378.63 642.9 378.438 641.835C378.247 640.77 377.689 639.805 376.863 639.107C373.935 637.172 370.289 640.462 366.781 640.545C367.651 638.452 368.219 636.245 368.466 633.992C368.588 632.863 368.476 631.72 368.139 630.636C367.802 629.551 367.246 628.548 366.505 627.688C365.146 626.6 363.545 625.856 361.839 625.519C360.132 625.183 358.369 625.262 356.699 625.752C344.985 627.971 334.457 634.329 327.034 643.669C323.911 647.069 321.645 651.166 320.425 655.62C319.204 660.074 319.065 664.755 320.018 669.274C322.498 681.806 329.113 693.141 338.801 701.458Z" fill="#23216E"/>
<path d="M371.449 647.098C371.449 647.098 383.243 682.573 375.869 696.066C374.487 698.372 372.271 700.055 369.681 700.767C367.489 701.285 365.513 702.474 364.028 704.169C362.542 705.864 361.622 707.98 361.395 710.223C361.036 714.647 360.981 718.85 361.036 722.251C361.048 723.159 360.845 724.056 360.443 724.869C360.04 725.683 359.451 726.388 358.722 726.929C357.994 727.469 357.147 727.828 356.253 727.976C355.359 728.124 354.442 728.058 353.578 727.781C350.261 726.766 347.293 724.843 345.008 722.229C342.724 719.616 341.215 716.415 340.651 712.988L336.646 688.656L330.818 653.817L371.449 647.098Z" fill="#F2F2F2"/>
<path d="M371.449 647.098L370.676 647.291L368.522 647.706L360.235 649.199L330.791 654.315L331.261 653.679C332.807 662.637 334.575 672.868 336.481 683.956L339.243 701.265L340.735 710.362C341.035 713.418 341.977 716.376 343.497 719.044C345.295 722.123 347.968 724.596 351.176 726.15C351.977 726.509 352.778 726.841 353.606 727.118C354.735 727.455 355.945 727.391 357.032 726.938C358.119 726.484 359.017 725.669 359.572 724.629C359.929 723.946 360.118 723.188 360.125 722.417V719.818L360.291 714.647C360.291 712.933 360.291 711.302 360.539 709.588C360.734 707.839 361.382 706.171 362.417 704.749C364.533 702.172 367.451 700.381 370.704 699.661C372.017 699.108 373.202 698.289 374.184 697.255C375.05 696.176 375.714 694.949 376.145 693.633C376.576 692.331 376.918 691.001 377.167 689.652C377.167 688.269 377.554 686.887 377.554 685.642C377.661 683.107 377.615 680.568 377.416 678.039C376.705 670.367 375.375 662.766 373.438 655.31L371.864 649.227C371.643 648.529 371.468 647.818 371.339 647.098C371.669 647.753 371.937 648.438 372.14 649.144C372.61 650.499 373.245 652.545 373.991 655.172C376.149 662.618 377.637 670.243 378.438 677.956C378.667 680.53 378.74 683.115 378.659 685.698C378.659 687.053 378.41 688.463 378.3 689.818C378.067 691.245 377.716 692.651 377.25 694.02C376.805 695.504 376.073 696.885 375.095 698.085C374.008 699.273 372.681 700.216 371.201 700.85C369.749 701.32 368.336 701.902 366.975 702.592C365.655 703.317 364.513 704.327 363.633 705.551C362.73 706.794 362.169 708.253 362.003 709.781C362.003 711.357 362.003 713.071 361.81 714.758V719.846V722.445C361.791 723.407 361.555 724.352 361.119 725.21C360.413 726.556 359.259 727.614 357.857 728.199C356.455 728.785 354.893 728.862 353.44 728.417C352.557 728.113 351.7 727.781 350.844 727.394C347.379 725.715 344.494 723.038 342.558 719.707C341.012 716.872 340.072 713.746 339.796 710.528C339.298 707.458 338.801 704.445 338.304 701.458L335.542 684.122C333.691 673.061 332.006 662.776 330.542 653.706V653.126H331.095L360.926 648.508L369.046 647.319C369.842 647.195 370.645 647.121 371.449 647.098Z" fill="#23216E"/>
<path d="M338.801 701.458C342.384 699.627 345.117 696.475 346.424 692.666C346.85 690.827 346.605 688.897 345.734 687.224C344.863 685.551 343.423 684.244 341.673 683.541C340.448 683.331 339.239 683.035 338.055 682.656C337.01 681.962 336.191 680.977 335.7 679.822C335.21 678.667 335.068 677.393 335.293 676.158C335.4 673.843 336.388 671.656 338.055 670.048C338.905 669.268 339.958 668.746 341.092 668.54C342.226 668.335 343.395 668.455 344.463 668.886C346.369 669.771 347.612 671.79 349.573 672.536C351.018 672.847 352.523 672.724 353.898 672.183C355.274 671.642 356.46 670.707 357.307 669.495C359.551 666.91 361.084 663.784 361.754 660.425C362.307 657.66 362.583 654.204 365.124 652.96C366.424 652.452 367.843 652.328 369.212 652.6C370.579 652.869 371.994 652.754 373.3 652.269C373.912 651.968 374.392 651.452 374.647 650.819C374.902 650.186 374.914 649.481 374.681 648.84L372.388 644.748L328.194 652.269L330.956 678.481L338.801 701.458Z" fill="#23216E"/>
<path d="M404.567 788.999C403.87 783.58 403.51 778.122 403.49 772.658C402.99 767.217 402.824 761.75 402.993 756.289C404.258 761.626 404.906 767.09 404.926 772.575C405.409 778.046 405.288 783.554 404.567 788.999Z" fill="#23216E"/>
<path d="M426.277 781.534C425.723 775.643 425.511 769.725 425.642 763.81C425.504 755.929 425.338 749.238 425.504 746.998H425.918C425.918 747.634 425.918 747.939 425.918 747.939C425.918 747.939 425.752 747.662 425.614 747.054H426.029C426.785 752.626 427.173 758.242 427.189 763.865C427.479 769.77 427.173 775.69 426.277 781.534Z" fill="#23216E"/>
<path opacity="0.37" d="M445.916 759.109L452.545 760.326L447.518 782.418L441.773 782.778L445.916 759.109Z" fill="#B6C6CE"/>
<path opacity="0.37" d="M402.993 756.289L424.537 792.345L404.374 781.146L402.993 756.289Z" fill="#B6C6CE"/>
<path opacity="0.37" d="M347.253 761.985L387.387 815.129H403.766L404.236 843.194H345.485L347.253 761.985Z" fill="#B6C6CE"/>
<path d="M484.448 819.497C483.84 818.17 470.637 820.216 466.963 820.769C470.72 819.802 485.083 816.096 484.448 814.824C483.812 813.553 469.864 815.516 466.024 816.041C469.836 814.824 484.061 810.179 484.475 808.824C484.89 807.469 465.14 811.202 465.14 811.202L455.556 813.442C457.808 811.379 459.54 808.811 460.611 805.949C461.108 804.594 459.506 803.184 458.014 805.949C456.523 808.714 448.485 814.244 446.303 815.709C446.081 815.872 445.878 816.057 445.695 816.262C444.818 817.256 444.143 818.411 443.706 819.663H377.416L349.27 840.512L443.182 832.216V833.323C448.015 834.235 461.439 831.304 466.522 830.115C466.522 830.115 482.763 827.35 482.514 825.857C482.266 824.364 469.67 825.332 467.682 825.497C470.002 824.613 485.111 820.908 484.448 819.497Z" fill="#F2F2F2"/>
<path d="M484.448 819.497C484.448 819.497 484.448 819.497 484.448 819.802C484.251 820.024 484.017 820.211 483.757 820.355C482.751 820.908 481.697 821.371 480.608 821.737C477.846 822.76 473.482 824.004 467.875 825.442L468.096 825.083L467.765 824.834C469.772 824.668 471.954 824.53 474.311 824.419C476.844 824.236 479.389 824.31 481.907 824.64C482.211 824.779 482.68 824.64 483.012 825.442C482.873 826.327 482.376 826.272 482.1 826.521C481.449 826.831 480.775 827.09 480.084 827.295C478.73 827.709 477.322 828.069 475.858 828.401C472.957 829.064 469.919 829.645 466.715 830.226L466.163 829.756L466.743 830.198C463.29 831.028 459.589 831.829 455.694 832.521C451.596 833.409 447.397 833.744 443.209 833.516H442.74V831.912L443.347 832.465L349.435 841.037L346.922 841.258L348.966 839.765L377.084 818.889L377.278 818.723H377.913H443.679L443.016 819.193C443.296 818.379 443.687 817.607 444.176 816.898C444.4 816.54 444.649 816.198 444.922 815.875C444.922 815.875 445.198 815.516 445.336 815.377L445.585 815.129C445.74 814.975 445.929 814.861 446.137 814.797H445.889C447.933 813.359 449.949 811.894 451.882 810.373C453.817 808.984 455.595 807.39 457.186 805.617C457.525 805.067 457.913 804.548 458.346 804.069C458.642 803.77 459.015 803.559 459.423 803.46C459.676 803.413 459.937 803.429 460.182 803.506C460.428 803.583 460.651 803.719 460.832 803.903C461.095 804.235 461.256 804.636 461.296 805.059C461.335 805.481 461.25 805.906 461.053 806.281C460.832 806.834 460.583 807.387 460.307 807.94C459.214 810.098 457.735 812.038 455.943 813.663L455.39 812.585C463.938 810.399 472.621 808.782 481.382 807.746H482.956H483.785C484.193 807.736 484.589 807.884 484.89 808.161C485.028 808.161 485.111 808.714 485.028 808.852L484.835 809.156C484.729 809.309 484.586 809.433 484.42 809.516C484.194 809.683 483.953 809.831 483.702 809.958C483.26 810.207 482.791 810.428 482.321 810.649C480.47 811.451 478.62 812.142 476.797 812.806C473.151 814.106 469.615 815.267 466.218 816.345L466.549 815.765V815.931L465.997 815.543C469.864 815.018 473.537 814.548 477.045 814.244C478.813 814.078 480.526 813.967 482.211 813.967H483.481L484.144 814.106C484.337 814.106 484.724 814.106 484.89 814.797C484.882 814.965 484.829 815.129 484.737 815.27C484.645 815.411 484.516 815.524 484.365 815.599C484.198 815.735 484.012 815.847 483.813 815.931C483.455 816.119 483.086 816.285 482.708 816.428C477.585 818.229 472.365 819.743 467.074 820.963L467.267 820.631L466.936 820.41C472.626 819.553 477.018 819.055 480.028 818.917C483.039 818.778 484.669 819.11 484.475 819.414C484.669 818.723 478.316 819.055 467.019 820.99H466.743V820.714V820.438H466.991C472.234 819.152 477.407 817.592 482.487 815.765C482.846 815.599 483.205 815.46 483.536 815.267L483.978 814.99C484.032 815.007 484.09 815.007 484.144 814.99H484.337C484.144 815.156 484.337 814.99 483.978 814.99H483.453H482.266C480.636 814.99 478.924 814.99 477.183 815.295C473.703 815.626 470.03 816.124 466.135 816.677H465.665V816.235V816.069V815.654L466.08 815.516C469.45 814.41 472.985 813.221 476.603 811.921C478.399 811.23 480.249 810.566 482.128 809.737C482.574 809.553 483.007 809.34 483.426 809.101C483.632 809.004 483.827 808.883 484.006 808.741C484.006 808.741 484.199 808.603 484.172 808.603H484.448C484.448 808.603 484.31 808.824 484.199 808.824H483.177H481.658C472.961 809.901 464.343 811.545 455.86 813.746L453.484 814.354L455.307 812.668C456.967 811.141 458.334 809.323 459.34 807.304C459.782 806.336 460.5 805.009 460.086 804.76C459.672 804.511 459.782 804.622 459.423 804.981C459.047 805.392 458.723 805.847 458.456 806.336C456.799 808.205 454.947 809.892 452.932 811.368C450.971 812.917 448.955 814.382 446.883 815.848L446.524 815.35C446.567 815.519 446.642 815.679 446.745 815.82L446.552 816.013L446.22 816.401C445.975 816.696 445.753 817.01 445.557 817.341C445.134 817.954 444.799 818.624 444.563 819.331L444.397 819.802H443.928L378.161 819.94H377.775L378.189 819.774L350.043 840.65L349.574 839.378L443.486 831.083H444.093V832.797L443.651 832.244C447.716 832.485 451.794 832.178 455.777 831.332C459.644 830.696 463.318 829.922 466.825 829.12L467.406 829.59L466.853 829.12C470.057 828.594 473.096 828.014 475.996 827.405C477.432 827.074 478.758 826.742 480.167 826.355C480.806 826.162 481.433 825.931 482.045 825.663L482.431 825.415C482.431 825.415 482.431 825.415 482.708 825.415C482.487 825.415 482.57 825.415 482.431 825.415L482.017 825.276C479.565 824.939 477.085 824.846 474.615 825C472.295 825 470.112 825.193 468.124 825.304H467.709V824.723H467.958C478.896 822.235 485.083 820.133 484.448 819.497Z" fill="#23216E"/>
<path d="M379.073 818.308C379.073 818.308 324.134 716.002 316.953 721.256C309.771 726.51 302.59 742.298 310.268 769.672C317.947 797.045 347.364 841.839 347.364 841.839L375.482 820.963L379.073 818.308Z" fill="#D7E7F6"/>
<path d="M379.073 818.308C379.073 818.308 379.073 818.474 378.603 818.751L377.001 820.023L370.786 824.806L347.64 842.254L347.226 842.558L346.949 842.115C339.823 831.055 331.509 817.645 323.223 801.857C318.836 793.585 314.98 785.042 311.677 776.28C308.078 766.743 306.207 756.64 306.153 746.445C306.218 741.434 307.095 736.466 308.749 731.735C309.609 729.42 310.75 727.219 312.147 725.182C312.849 724.187 313.644 723.261 314.522 722.417C314.933 721.96 315.386 721.544 315.875 721.173C316.128 720.914 316.428 720.708 316.759 720.565C317.18 720.417 317.637 720.417 318.058 720.565C319.267 721.031 320.354 721.769 321.234 722.721C322.09 723.551 322.891 724.436 323.665 725.321C325.184 727.09 326.427 728.943 327.891 730.851C330.653 734.528 333.028 738.233 335.376 741.911C344.712 756.482 352.418 770.003 358.882 781.368C365.345 792.732 370.344 802.05 373.797 808.493L377.692 815.93L378.686 817.894C378.803 818.113 378.896 818.345 378.962 818.585C378.798 818.402 378.658 818.197 378.548 817.977L377.443 816.069L373.3 808.769L357.998 781.865C351.452 770.584 343.635 757.118 334.244 742.63C331.896 739.035 329.438 735.358 326.786 731.708C325.46 729.911 324.024 728.086 322.587 726.371C321.872 725.49 321.096 724.658 320.267 723.883C319.559 723.108 318.692 722.495 317.726 722.085C317.312 722.085 317.339 722.085 316.759 722.5C316.319 722.848 315.903 723.227 315.516 723.634C314.7 724.489 313.961 725.414 313.307 726.399C311.99 728.344 310.914 730.443 310.103 732.648C308.492 737.233 307.652 742.055 307.617 746.915C307.644 756.919 309.43 766.84 312.892 776.225C316.165 784.932 319.975 793.428 324.3 801.663C332.448 817.424 340.652 831 347.64 841.977H346.949L370.344 824.889L376.67 820.382L378.355 819.221L379.073 818.308Z" fill="#23216E"/>
<g opacity="0.26">
<path d="M373.383 694.297C374.156 694.85 374.046 696.675 372.444 698.859C370.328 701.526 367.43 703.46 364.157 704.389C361.119 705.327 357.906 705.554 354.766 705.053C352.418 704.638 350.982 703.864 350.871 702.868C350.65 700.795 356.396 699.136 362.086 697.338C364.848 696.481 367.389 695.569 369.267 694.822C371.145 694.076 372.554 693.689 373.383 694.297Z" fill="#B6C6CE"/>
</g>
<path d="M124.46 974.781C102.557 955.868 101.342 919.232 115.152 893.794C123.439 878.365 137.967 864.954 138.575 847.397C139.652 816.594 98.5794 799.202 93.9943 768.704C90.8455 747.828 106.175 728.639 122.113 714.648C138.05 700.657 156.556 687.384 163.379 667.31C168.13 653.485 166.445 638.195 166.831 623.485C167.218 608.775 170.477 592.71 182.023 583.558C196.635 572 219.45 576.839 232.736 589.89C246.021 602.94 251.684 621.881 254.833 640.241C257.981 658.6 259.197 677.541 265.881 694.961C272.372 711.965 283.918 727.173 287.177 745.091C293.171 777.801 270.411 808.354 247.485 832.41C236.437 843.885 224.283 858.125 228.15 873.526C232.294 890.254 252.595 896.752 263.257 910.301C277.371 928.218 271.543 955.896 256.075 972.763C240.608 989.629 218.483 998.173 197.021 1005.8C197.021 1005.8 160.893 1006.22 124.46 974.781Z" fill="#45D2B0"/>
<path d="M124.461 974.781C124.461 974.781 124.847 975.03 125.538 975.583L128.659 978.044C130.013 979.15 131.698 980.505 133.852 981.97C136.006 983.436 138.409 985.233 141.337 986.975C148.45 991.481 156.002 995.251 163.876 998.229C174.464 1002.4 185.658 1004.83 197.022 1005.42C209.219 1001.32 221.077 996.272 232.487 990.321C238.86 986.813 244.834 982.622 250.303 977.823C253.143 975.263 255.784 972.49 258.203 969.528C260.625 966.411 262.744 963.068 264.528 959.546C266.371 955.925 267.816 952.115 268.837 948.182C269.964 944.138 270.568 939.965 270.632 935.767C270.796 931.461 270.264 927.156 269.058 923.02C267.893 918.778 265.944 914.792 263.312 911.269C257.788 904.08 249.916 899.047 242.486 893.185C238.59 890.277 235.106 886.854 232.128 883.01C229.079 879.014 227.282 874.203 226.963 869.185C226.732 864.015 227.835 858.872 230.167 854.254C232.418 849.65 235.199 845.325 238.453 841.369C241.713 837.359 245.331 833.599 248.922 829.756C252.513 825.912 255.965 821.986 259.39 817.921C266.363 809.685 272.472 800.753 277.62 791.266C282.966 781.535 286.204 770.785 287.122 759.717C287.738 748.337 285.367 736.993 280.244 726.814C275.466 716.307 269.196 706.242 265.025 695.071C256.435 672.564 256.987 647.679 250.441 624.148C248.108 615.193 244.319 606.683 239.227 598.959C236.681 595.173 233.664 591.726 230.25 588.701C226.918 585.77 223.166 583.356 219.119 581.539C211.014 577.711 201.855 576.736 193.127 578.774C188.923 579.944 185.02 582.007 181.684 584.822C178.347 587.637 175.656 591.138 173.792 595.088C170.124 602.954 168.102 611.489 167.854 620.167C167.412 628.766 167.854 637.393 167.605 645.909C167.602 654.425 166.01 662.864 162.909 670.794C159.548 678.385 154.873 685.322 149.099 691.283C138.05 703.256 124.709 712.242 114.103 723.274C108.838 728.658 104.289 734.699 100.568 741.247C98.7784 744.435 97.3428 747.811 96.2871 751.312C95.2146 754.745 94.6106 758.307 94.4917 761.902C94.4006 768.925 96.1328 775.852 99.5188 782.004C102.811 787.955 106.758 793.52 111.285 798.594C115.65 803.654 120.124 808.465 124.24 813.414C128.44 818.147 132.048 823.375 134.984 828.981C137.744 834.445 139.129 840.501 139.017 846.622C138.881 852.391 137.466 858.058 134.874 863.213C129.957 873.277 123.135 881.323 118.08 889.591C113.292 897.226 109.898 905.652 108.054 914.476C106.531 921.922 106.094 929.55 106.756 937.122C107.61 947.651 111.199 957.774 117.169 966.486C118.761 968.722 120.524 970.83 122.444 972.79C123.77 974.09 124.406 974.781 124.406 974.781L122.362 972.873C120.336 971.001 118.487 968.946 116.837 966.735C110.722 958.033 107.024 947.861 106.12 937.26C105.408 929.631 105.798 921.938 107.28 914.421C109.11 905.48 112.504 896.934 117.307 889.176C122.389 880.881 129.156 872.724 133.88 862.825C136.398 857.788 137.766 852.254 137.885 846.622C137.872 840.683 136.412 834.836 133.631 829.59C130.767 824.057 127.253 818.886 123.163 814.189C119.019 809.294 114.545 804.511 110.153 799.423C105.563 794.301 101.561 788.681 98.2206 782.667C94.7316 776.339 92.9424 769.213 93.0278 761.985C93.1378 758.287 93.7511 754.622 94.8508 751.091C95.9236 747.503 97.3871 744.045 99.215 740.777C103.004 734.117 107.647 727.982 113.026 722.528C123.743 711.33 136.973 702.343 147.966 690.509C153.616 684.656 158.188 677.851 161.473 670.407C164.482 662.629 166.027 654.361 166.031 646.02C166.334 637.559 165.81 628.959 166.279 620.222C166.506 611.343 168.565 602.606 172.328 594.563C174.296 590.442 177.124 586.791 180.622 583.858C184.119 580.924 188.205 578.776 192.602 577.558C201.642 575.402 211.145 576.377 219.561 580.323C223.819 582.197 227.775 584.694 231.3 587.733C234.803 590.833 237.903 594.364 240.525 598.24C245.701 606.103 249.554 614.761 251.933 623.872C258.534 647.706 258.009 672.509 266.461 694.656C270.687 705.717 276.819 715.726 281.625 726.344C286.857 736.735 289.267 748.321 288.614 759.939C287.677 771.191 284.383 782.12 278.946 792.013C273.738 801.537 267.574 810.505 260.55 818.779C257.098 822.871 253.617 826.852 249.999 830.668C246.381 834.484 242.818 838.217 239.586 842.198C236.334 846.057 233.552 850.29 231.3 854.807C229.07 859.193 227.987 864.073 228.151 868.991C228.404 873.798 230.066 878.424 232.929 882.291C235.846 886.041 239.245 889.388 243.039 892.245C250.413 898.079 258.479 903.139 264.058 910.577C266.803 914.209 268.837 918.328 270.052 922.716C271.266 926.983 271.788 931.417 271.599 935.85C271.511 940.125 270.88 944.371 269.721 948.486C268.673 952.505 267.172 956.392 265.246 960.071C263.448 963.669 261.282 967.07 258.783 970.219C256.328 973.194 253.64 975.967 250.745 978.514C245.286 983.366 239.312 987.603 232.929 991.15C221.468 997.112 209.542 1002.13 197.27 1006.16C185.784 1005.54 174.477 1003.05 163.793 998.782C155.939 995.729 148.415 991.884 141.337 987.307C138.409 985.537 136.006 983.74 133.907 982.219C131.808 980.698 130.095 979.454 128.742 978.21L125.704 975.666L124.461 974.781Z" fill="#23216E"/>
<path d="M190.088 1031.44C189.674 1031.44 189.37 959.822 189.37 871.507C189.37 783.193 189.674 711.578 190.088 711.578C190.503 711.578 190.806 783.165 190.806 871.507C190.806 959.85 190.475 1031.44 190.088 1031.44Z" fill="#23216E"/>
<path d="M190.42 800.363C190.172 800.363 189.978 797.239 188.21 792.566C185.969 786.483 181.996 781.19 176.783 777.343C171.57 773.495 165.344 771.261 158.877 770.916C153.905 770.612 150.839 771.386 150.784 771.109C151.447 770.762 152.167 770.537 152.911 770.446C154.884 770.054 156.893 769.869 158.904 769.893C165.674 769.936 172.258 772.12 177.714 776.132C183.171 780.145 187.221 785.78 189.288 792.234C189.915 794.157 190.341 796.14 190.558 798.151C190.558 799.534 190.531 800.363 190.42 800.363Z" fill="#23216E"/>
<path d="M211.467 848.198C206.501 854.46 202.188 861.214 198.596 868.355C195.446 875.702 193.067 883.356 191.497 891.194C191.338 888.819 191.533 886.433 192.077 884.116C194.114 872.76 199.042 862.123 206.385 853.231C207.822 851.311 209.535 849.615 211.467 848.198Z" fill="#23216E"/>
<g opacity="0.22">
<path d="M238.646 614.692C239.475 614.222 241.16 615.162 243.37 617.872C246.282 621.941 248.365 626.545 249.501 631.42C251.233 638.684 252.324 646.086 252.761 653.54C253.107 662.155 254.651 670.679 257.346 678.868C260.439 687.163 266.24 695.928 273.311 706.187C280.382 716.445 288.862 728.804 292.646 745.865C293.606 750.324 294.042 754.88 293.944 759.441C293.8 764.267 293.029 769.054 291.651 773.681C288.829 782.52 284.306 790.72 278.338 797.819C272.928 804.381 266.978 810.476 260.55 816.041C254.556 821.322 248.783 826.272 243.977 831.332C239.459 835.747 235.723 840.899 232.929 846.567C230.695 851.536 229.691 856.971 230.001 862.411C230.308 867.824 231.758 873.111 234.255 877.922C235.404 880.189 236.813 882.314 238.453 884.254C240.294 886.35 242.328 888.266 244.53 889.978C250.874 894.578 256.626 899.946 261.655 905.96C266.946 913.037 270.074 921.499 270.659 930.32C271.028 937.845 269.882 945.367 267.29 952.44C265.112 958.76 261.901 964.675 257.788 969.942C256.766 971.159 255.799 972.376 254.75 973.509C253.7 974.643 252.623 975.721 251.545 976.717C249.419 978.68 247.237 980.422 245.082 982.053C241.073 984.963 236.811 987.508 232.349 989.657C225.468 992.966 218.255 995.534 210.832 997.316C198.955 1000.08 192.215 1000.27 191.497 998.45C190.779 996.625 196.496 992.726 206.606 986.892C212.571 983.517 218.352 979.825 223.924 975.832C227.193 973.461 230.277 970.846 233.15 968.007C234.614 966.514 235.912 964.965 237.403 963.306C238.066 962.477 238.646 961.647 239.282 960.818C239.917 959.988 240.414 959.048 240.994 958.053C245.733 950.437 247.785 941.452 246.822 932.532C246.252 928.451 244.538 924.616 241.878 921.471C237.745 917.529 233.23 914.01 228.399 910.964C224.913 908.501 221.659 905.724 218.676 902.669C215.485 899.275 212.704 895.516 210.39 891.471C205.622 883.19 202.745 873.955 201.965 864.429C201.156 854.367 202.845 844.26 206.882 835.009C210.883 826.24 216.411 818.254 223.206 811.423C229.531 804.898 235.939 799.562 241.768 794.529C247.127 790.077 252.141 785.225 256.766 780.013C260.571 775.79 263.559 770.896 265.577 765.579C267.166 760.884 267.555 755.865 266.71 750.98C263.395 729.496 243.508 709.228 237.928 684.896C236.598 679.299 235.949 673.561 235.995 667.808C235.995 662.61 236.354 657.937 236.768 653.679C237.569 645.245 238.37 638.443 238.481 632.941C238.867 621.909 236.768 615.825 238.646 614.692Z" fill="#475477"/>
</g>
<path d="M175.56 1020.79C175.56 1020.79 175.56 1037.6 167.273 1049.3C160.699 1058.56 171.693 1088.42 171.693 1088.42H208.954C208.954 1088.42 221.991 1050.96 209.893 1042.05C203.181 1037.13 193.845 1026.74 197.795 1011.39L175.56 1020.79Z" fill="#F2F2F2"/>
<path d="M175.56 1020.79C176.009 1020.52 176.48 1020.29 176.968 1020.1L181.222 1018.16L197.601 1010.98L198.43 1010.62L198.237 1011.5C196.865 1016.76 197.145 1022.31 199.038 1027.4C200.162 1030.31 201.758 1033.02 203.761 1035.42C205.994 1038.01 208.504 1040.34 211.246 1042.39C213.806 1045.27 215.306 1048.93 215.5 1052.78C215.858 1056.69 215.775 1060.62 215.251 1064.51C214.205 1072.71 212.355 1080.8 209.727 1088.65L209.534 1089.12H171.14L171.002 1088.67C167.697 1079.77 165.57 1070.48 164.677 1061.02C164.142 1056.91 164.905 1052.73 166.859 1049.08C168.807 1046.31 170.386 1043.3 171.555 1040.12C173.218 1035.55 174.349 1030.79 174.924 1025.96C175.145 1024.3 175.256 1023 175.339 1022.12C175.358 1021.67 175.414 1021.23 175.505 1020.79C175.558 1021.24 175.558 1021.7 175.505 1022.15C175.505 1023.03 175.505 1024.33 175.284 1026.02C174.859 1030.88 173.829 1035.68 172.218 1040.28C171.077 1043.57 169.498 1046.69 167.522 1049.55C165.774 1053.03 165.129 1056.97 165.671 1060.83C166.654 1070.19 168.836 1079.39 172.162 1088.2L171.527 1087.76H208.843L208.153 1088.26C210.741 1080.51 212.59 1072.52 213.677 1064.42C214.181 1060.64 214.273 1056.81 213.953 1053C213.807 1049.47 212.474 1046.09 210.169 1043.41C207.396 1041.32 204.867 1038.93 202.629 1036.28C200.578 1033.79 198.946 1030.99 197.795 1027.98C195.863 1022.65 195.641 1016.85 197.16 1011.39L197.767 1011.92L181.388 1018.61L176.968 1020.35C176.509 1020.53 176.039 1020.68 175.56 1020.79Z" fill="#23216E"/>
<g opacity="0.37">
<path d="M242.403 972.237C243.121 974.09 239.337 977.325 234.117 979.869C228.896 982.413 224.007 983.353 223.068 981.639C222.129 979.924 225.526 976.109 231.023 973.343C236.52 970.578 241.657 970.385 242.403 972.237Z" fill="#B6C6CE"/>
</g>
</g>
</g>
<defs>
<clipPath id="clip0_12_1392">
<rect width="800" height="1080" fill="white"/>
</clipPath>
<clipPath id="clip1_12_1392">
<rect width="172" height="40" fill="white" transform="translate(70 70)"/>
</clipPath>
<clipPath id="clip2_12_1392">
<rect width="1274" height="771" fill="white" transform="translate(93 325)"/>
</clipPath>
</defs>
</svg>
