<svg width="800" height="1080" viewBox="0 0 800 1080" fill="none" xmlns="http://www.w3.org/2000/svg">
<g clip-path="url(#clip0_12_1148)">
<rect width="800" height="1080" fill="#23216E" fill-opacity="0.05"/>
<g clip-path="url(#clip1_12_1148)">
<path d="M119.036 99H130.389V95.7673H122.498V80.6727H119.036V99Z" fill="#23216E"/>
<path d="M137.211 99.3818C138.586 99.3818 139.795 99.0763 140.839 98.4654C141.891 97.846 142.71 96.9933 143.295 95.9073C143.889 94.8127 144.186 93.5527 144.186 92.1273C144.186 90.7103 143.893 89.4588 143.308 88.3727C142.722 87.2782 141.903 86.4212 140.851 85.8018C139.808 85.1824 138.594 84.8727 137.211 84.8727C135.854 84.8727 134.653 85.1782 133.61 85.7891C132.566 86.4 131.747 87.2527 131.153 88.3473C130.559 89.4333 130.262 90.6933 130.262 92.1273C130.262 93.5442 130.551 94.8 131.128 95.8945C131.713 96.9806 132.528 97.8333 133.571 98.4527C134.615 99.0721 135.828 99.3818 137.211 99.3818ZM137.211 96.1491C136.134 96.1491 135.315 95.7885 134.755 95.0673C134.203 94.3376 133.928 93.3576 133.928 92.1273C133.928 90.9309 134.191 89.9636 134.717 89.2254C135.251 88.4788 136.083 88.1054 137.211 88.1054C138.306 88.1054 139.129 88.4703 139.68 89.2C140.24 89.9297 140.52 90.9054 140.52 92.1273C140.52 93.3067 140.245 94.2739 139.693 95.0291C139.15 95.7757 138.323 96.1491 137.211 96.1491Z" fill="#23216E"/>
<path d="M151.032 99.3818C151.677 99.3818 152.271 99.3054 152.814 99.1527C153.365 99 153.866 98.7836 154.316 98.5036V99.8909C154.333 100.4 154.201 100.824 153.921 101.164C153.649 101.511 153.285 101.77 152.826 101.94C152.368 102.118 151.88 102.207 151.363 102.207C150.879 102.207 150.43 102.101 150.014 101.889C149.607 101.677 149.292 101.367 149.072 100.96L145.865 102.513C146.391 103.404 147.142 104.121 148.117 104.664C149.093 105.215 150.167 105.491 151.337 105.491C152.347 105.491 153.285 105.355 154.15 105.084C155.016 104.821 155.745 104.418 156.339 103.874C156.942 103.331 157.353 102.64 157.574 101.8C157.65 101.503 157.701 101.202 157.727 100.896C157.76 100.599 157.777 100.281 157.777 99.9418V85.2545H154.748V86.0182C154.282 85.6533 153.751 85.3733 153.157 85.1782C152.572 84.9745 151.923 84.8727 151.21 84.8727C149.895 84.8727 148.75 85.1867 147.774 85.8145C146.798 86.4424 146.039 87.3036 145.496 88.3982C144.961 89.4842 144.694 90.7273 144.694 92.1273C144.694 93.5018 144.957 94.7363 145.483 95.8309C146.017 96.9254 146.76 97.7909 147.71 98.4273C148.66 99.0636 149.768 99.3818 151.032 99.3818ZM151.592 96.3018C150.845 96.3018 150.234 96.1151 149.759 95.7418C149.284 95.3685 148.932 94.8679 148.703 94.24C148.474 93.6036 148.359 92.8994 148.359 92.1273C148.359 91.3636 148.478 90.6679 148.716 90.04C148.953 89.4036 149.318 88.8988 149.81 88.5254C150.311 88.1436 150.947 87.9527 151.719 87.9527C152.805 87.9527 153.582 88.3388 154.048 89.1109C154.515 89.8745 154.748 90.88 154.748 92.1273C154.748 93.3745 154.511 94.3842 154.036 95.1563C153.569 95.92 152.754 96.3018 151.592 96.3018Z" fill="#23216E"/>
<path d="M166 99.3818C167.374 99.3818 168.583 99.0763 169.627 98.4654C170.679 97.846 171.498 96.9933 172.083 95.9073C172.677 94.8127 172.974 93.5527 172.974 92.1273C172.974 90.7103 172.682 89.4588 172.096 88.3727C171.511 87.2782 170.692 86.4212 169.64 85.8018C168.596 85.1824 167.383 84.8727 166 84.8727C164.642 84.8727 163.442 85.1782 162.398 85.7891C161.354 86.4 160.536 87.2527 159.942 88.3473C159.348 89.4333 159.051 90.6933 159.051 92.1273C159.051 93.5442 159.339 94.8 159.916 95.8945C160.502 96.9806 161.316 97.8333 162.36 98.4527C163.403 99.0721 164.617 99.3818 166 99.3818ZM166 96.1491C164.922 96.1491 164.103 95.7885 163.543 95.0673C162.992 94.3376 162.716 93.3576 162.716 92.1273C162.716 90.9309 162.979 89.9636 163.505 89.2254C164.04 88.4788 164.871 88.1054 166 88.1054C167.094 88.1054 167.917 88.4703 168.469 89.2C169.029 89.9297 169.309 90.9054 169.309 92.1273C169.309 93.3067 169.033 94.2739 168.482 95.0291C167.939 95.7757 167.111 96.1491 166 96.1491Z" fill="#23216E"/>
<path d="M174.5 83.3454H177.962V80.2909H174.5V83.3454ZM174.5 99H177.962V85.2545H174.5V99Z" fill="#23216E"/>
<path d="M180.225 105.109H183.712V98.5036C184.162 98.7836 184.658 99 185.201 99.1527C185.753 99.3054 186.351 99.3818 186.996 99.3818C188.26 99.3818 189.368 99.0636 190.318 98.4273C191.268 97.7909 192.006 96.9254 192.532 95.8309C193.067 94.7363 193.334 93.5018 193.334 92.1273C193.334 90.7273 193.063 89.4842 192.52 88.3982C191.985 87.3036 191.23 86.4424 190.254 85.8145C189.278 85.1867 188.133 84.8727 186.818 84.8727C186.105 84.8727 185.452 84.9745 184.858 85.1782C184.272 85.3733 183.746 85.6533 183.28 86.0182V85.2545H180.225V105.109ZM186.436 96.3018C185.282 96.3018 184.468 95.92 183.992 95.1563C183.517 94.3842 183.28 93.3745 183.28 92.1273C183.28 90.88 183.513 89.8745 183.98 89.1109C184.455 88.3388 185.231 87.9527 186.309 87.9527C187.081 87.9527 187.713 88.1436 188.205 88.5254C188.706 88.8988 189.075 89.4036 189.312 90.04C189.55 90.6679 189.669 91.3636 189.669 92.1273C189.669 92.8994 189.554 93.6036 189.325 94.24C189.096 94.8679 188.744 95.3685 188.269 95.7418C187.794 96.1151 187.183 96.3018 186.436 96.3018Z" fill="#23216E"/>
<path d="M199.606 99.3818C201.404 99.3818 202.813 98.9788 203.831 98.1727C204.849 97.3666 205.358 96.2594 205.358 94.8509C205.358 93.7818 205.027 92.9376 204.366 92.3182C203.712 91.6988 202.601 91.1854 201.031 90.7782C199.962 90.5066 199.164 90.286 198.638 90.1163C198.121 89.9467 197.777 89.7812 197.607 89.62C197.446 89.4588 197.366 89.2594 197.366 89.0218C197.366 88.623 197.556 88.3176 197.938 88.1054C198.329 87.8933 198.842 87.8085 199.478 87.8509C200.827 87.9527 201.566 88.5297 201.693 89.5818L205.231 88.9454C205.053 87.6982 204.442 86.7097 203.398 85.98C202.355 85.2418 201.023 84.8727 199.402 84.8727C197.739 84.8727 196.411 85.263 195.418 86.0436C194.426 86.8242 193.929 87.8763 193.929 89.2C193.929 90.2521 194.273 91.0836 194.96 91.6945C195.647 92.297 196.831 92.8145 198.511 93.2473C199.504 93.5103 200.233 93.7224 200.7 93.8836C201.175 94.0448 201.481 94.2103 201.616 94.38C201.752 94.5412 201.82 94.7576 201.82 95.0291C201.82 95.4618 201.65 95.8012 201.311 96.0473C200.972 96.2848 200.488 96.4036 199.86 96.4036C199.096 96.4036 198.464 96.2212 197.964 95.8563C197.472 95.4915 197.153 94.9867 197.009 94.3418L193.471 94.8763C193.7 96.3103 194.345 97.4218 195.406 98.2109C196.475 98.9915 197.875 99.3818 199.606 99.3818Z" fill="#23216E"/>
<path d="M211.744 99.4073C212.737 99.4073 213.602 99.2418 214.341 98.9109C215.079 98.58 215.698 98.1388 216.199 97.5873V99H219.253V85.2545H215.766V92.2291C215.766 93.0776 215.668 93.7648 215.473 94.2909C215.287 94.8085 215.045 95.203 214.748 95.4745C214.451 95.7376 214.133 95.9157 213.793 96.0091C213.454 96.1024 213.136 96.1491 212.839 96.1491C212.101 96.1491 211.528 95.9836 211.121 95.6527C210.722 95.3218 210.433 94.9103 210.255 94.4182C210.077 93.926 209.971 93.4382 209.937 92.9545C209.903 92.4624 209.886 92.0594 209.886 91.7454V85.2545H206.373V92.9673C206.373 93.1963 206.39 93.5612 206.424 94.0618C206.458 94.5624 206.556 95.1182 206.717 95.7291C206.878 96.3315 207.145 96.9127 207.519 97.4727C207.901 98.0327 208.431 98.4951 209.11 98.86C209.788 99.2248 210.667 99.4073 211.744 99.4073Z" fill="#23216E"/>
<path d="M221.258 99H224.745V90.6763C224.745 89.8873 224.961 89.2467 225.394 88.7545C225.835 88.2539 226.416 88.0036 227.138 88.0036C227.893 88.0036 228.483 88.2582 228.907 88.7673C229.339 89.2679 229.556 89.9721 229.556 90.88V99H233.018V90.6763C233.018 89.8873 233.234 89.2467 233.667 88.7545C234.108 88.2539 234.689 88.0036 235.41 88.0036C236.166 88.0036 236.755 88.2582 237.179 88.7673C237.612 89.2679 237.829 89.9721 237.829 90.88V99H241.29V89.9636C241.29 88.4618 240.887 87.2485 240.081 86.3236C239.284 85.3903 238.1 84.9236 236.53 84.9236C235.648 84.9236 234.838 85.1145 234.099 85.4963C233.361 85.8782 232.772 86.4 232.33 87.0618C231.974 86.417 231.465 85.8994 230.803 85.5091C230.141 85.1188 229.318 84.9236 228.334 84.9236C227.502 84.9236 226.739 85.0891 226.043 85.42C225.347 85.7424 224.77 86.1879 224.312 86.7563V85.2545H221.258V99Z" fill="#23216E"/>
<path d="M90 70C78.9543 70 70 78.9543 70 90C81.0457 90 90 81.0457 90 70Z" fill="#45D2B0"/>
<path d="M90 110C101.046 110 110 101.046 110 90C98.9543 90 90 98.9543 90 110Z" fill="#45D2B0"/>
<path d="M90 70C101.046 70 110 78.9543 110 90C98.9543 90 90 81.0457 90 70Z" fill="#23216E"/>
<path d="M90 110C78.9543 110 70 101.046 70 90C81.0457 90 90 98.9543 90 110Z" fill="#23216E"/>
</g>
<g clip-path="url(#clip2_12_1148)">
<path d="M1115 1065.28H105V1065.78H1115V1065.28Z" fill="#EBEBEB"/>
<path d="M906.111 1079.03H766.893V1079.54H906.111V1079.03Z" fill="#EBEBEB"/>
<path d="M583.74 975.211H193.699C190.643 975.205 187.714 973.988 185.556 971.826C183.397 969.664 182.185 966.734 182.185 963.679V415.531C182.211 412.494 183.435 409.59 185.591 407.45C187.747 405.31 190.66 404.106 193.699 404.101H583.74C586.799 404.101 589.733 405.316 591.896 407.478C594.059 409.641 595.275 412.574 595.275 415.632V963.679C595.275 966.738 594.059 969.671 591.896 971.833C589.733 973.996 586.799 975.211 583.74 975.211ZM193.699 404.505C190.777 404.51 187.977 405.674 185.913 407.742C183.849 409.809 182.69 412.61 182.69 415.531V963.679C182.69 966.6 183.849 969.402 185.913 971.469C187.977 973.536 190.777 974.7 193.699 974.706H583.74C586.664 974.7 589.466 973.537 591.533 971.47C593.6 969.404 594.764 966.602 594.77 963.679V415.531C594.764 412.608 593.6 409.807 591.533 407.74C589.466 405.674 586.664 404.51 583.74 404.505H193.699Z" fill="#EBEBEB"/>
<path d="M1020.69 975.211H630.625C627.567 975.205 624.637 973.989 622.475 971.827C620.313 969.666 619.096 966.736 619.09 963.679V415.531C619.122 412.492 620.351 409.588 622.51 407.448C624.669 405.309 627.585 404.106 630.625 404.101H1020.69C1023.72 404.111 1026.63 405.317 1028.78 407.457C1030.93 409.596 1032.15 412.497 1032.18 415.531V963.679C1032.18 966.731 1030.97 969.658 1028.82 971.819C1026.66 973.98 1023.74 975.2 1020.69 975.211ZM630.625 404.505C627.701 404.51 624.899 405.674 622.832 407.74C620.764 409.807 619.601 412.608 619.595 415.531V963.679C619.601 966.602 620.764 969.404 622.832 971.47C624.899 973.537 627.701 974.7 630.625 974.706H1020.69C1023.61 974.7 1026.41 973.537 1028.48 971.47C1030.55 969.404 1031.71 966.602 1031.72 963.679V415.531C1031.71 412.608 1030.55 409.807 1028.48 407.74C1026.41 405.674 1023.61 404.51 1020.69 404.505H630.625Z" fill="#EBEBEB"/>
<path d="M220.826 767.103H564.812V450.488L220.826 450.488L220.826 767.103Z" fill="#E6E6E6"/>
<path d="M212.646 767.103H561.258V450.488L212.646 450.488L212.646 767.103Z" fill="#F5F5F5"/>
<path d="M546.613 751.27V466.321H227.311V751.27H546.613Z" fill="#FAFAFA"/>
<path d="M507.161 751.25L399.778 466.301H354.57L461.954 751.25H507.161Z" fill="white"/>
<path d="M449.127 751.25L341.764 466.301H310.636L417.999 751.25H449.127Z" fill="white"/>
<path d="M352.874 751.25V466.301H335.381V751.25H352.874Z" fill="#E6E6E6"/>
<path d="M450.238 751.25V466.301H432.745V751.25H450.238Z" fill="#E6E6E6"/>
<path d="M349.744 761.287V454.527H327.645V761.287H349.744Z" fill="#F5F5F5"/>
<path d="M447.087 761.307V454.548H424.989V761.307H447.087Z" fill="#F5F5F5"/>
<path d="M228.866 751.25L228.866 466.301H227.311L227.311 751.25H228.866Z" fill="#E6E6E6"/>
<path d="M1005.68 453.356H651.794V700.824H1005.68V453.356Z" fill="#EBEBEB"/>
<path d="M993.276 688.444V465.756H664.197V688.444H993.276Z" fill="white"/>
<path d="M666.661 688.444V465.756H664.196V688.444H666.661Z" fill="#E0E0E0"/>
<path d="M770.368 510.709H689.972V623.639H770.368V510.709Z" fill="#F5F5F5"/>
<path d="M788.225 543.748H756.834V575.131H788.225V543.748Z" fill="#F5F5F5"/>
<path d="M779.115 607.927H747.724V639.31H779.115V607.927Z" fill="#F0F0F0"/>
<path d="M554.793 1050.76C554.793 1047.89 555.645 1045.08 557.241 1042.69C558.837 1040.3 561.105 1038.44 563.759 1037.34C566.413 1036.25 569.333 1035.96 572.151 1036.52C574.968 1037.08 577.556 1038.46 579.587 1040.49C581.618 1042.52 583.001 1045.11 583.562 1047.93C584.122 1050.74 583.835 1053.66 582.735 1056.32C581.636 1058.97 579.775 1061.24 577.386 1062.83C574.998 1064.43 572.19 1065.28 569.317 1065.28C565.465 1065.28 561.771 1063.75 559.047 1061.03C556.324 1058.3 554.793 1054.61 554.793 1050.76Z" fill="#E0E0E0"/>
<path d="M579.296 1050.76C579.296 1047.89 580.147 1045.08 581.742 1042.69C583.337 1040.31 585.604 1038.45 588.257 1037.35C590.91 1036.25 593.829 1035.96 596.646 1036.52C599.462 1037.08 602.05 1038.46 604.082 1040.49C606.114 1042.51 607.499 1045.1 608.062 1047.91C608.625 1050.73 608.34 1053.65 607.244 1056.3C606.147 1058.96 604.289 1061.22 601.903 1062.82C599.517 1064.42 596.711 1065.28 593.84 1065.28C591.931 1065.28 590.04 1064.91 588.276 1064.18C586.511 1063.45 584.908 1062.38 583.557 1061.03C582.206 1059.69 581.134 1058.08 580.403 1056.32C579.672 1054.56 579.296 1052.67 579.296 1050.76Z" fill="#E0E0E0"/>
<path d="M956.511 743.374H551.825V1052.76H956.511V743.374Z" fill="#F5F5F5"/>
<path d="M943.341 756.056H564.974V1040.06H943.341V756.056Z" fill="#EBEBEB"/>
<path d="M937.967 875.509H570.367V1034.83H937.967V875.509Z" fill="#F5F5F5"/>
<path d="M937.967 762.034H570.367V871.47H937.967V762.034Z" fill="#F5F5F5"/>
<path d="M637.25 878.215H871.085C871.8 878.21 872.483 877.922 872.986 877.415C873.49 876.908 873.772 876.223 873.772 875.509C873.767 874.798 873.482 874.118 872.979 873.615C872.477 873.113 871.796 872.828 871.085 872.823H637.25C636.539 872.828 635.859 873.113 635.356 873.615C634.854 874.118 634.569 874.798 634.564 875.509C634.564 876.223 634.846 876.908 635.349 877.415C635.852 877.922 636.536 878.21 637.25 878.215Z" fill="#EBEBEB"/>
<path d="M637.25 764.74H871.085C871.796 764.735 872.477 764.45 872.979 763.948C873.482 763.445 873.767 762.765 873.772 762.054C873.772 761.34 873.49 760.655 872.986 760.148C872.483 759.641 871.8 759.353 871.085 759.348H637.25C636.536 759.353 635.852 759.641 635.349 760.148C634.846 760.655 634.564 761.34 634.564 762.054C634.569 762.765 634.854 763.445 635.356 763.948C635.859 764.45 636.539 764.735 637.25 764.74Z" fill="#EBEBEB"/>
<path d="M412.303 907.296H234.099V1065.26H412.303V907.296Z" fill="#F5F5F5"/>
<path d="M412.303 1065.28H481.569V907.316H412.303V1065.28Z" fill="#EBEBEB"/>
<path d="M416.161 879.588H225.311V907.296H416.161V879.588Z" fill="#EBEBEB"/>
<path d="M416.14 907.296H490.335V879.588H416.14V907.296Z" fill="#E0E0E0"/>
<path d="M901.223 559.419H416.888C408.911 559.419 402.445 565.884 402.445 573.859V834.332C402.445 842.306 408.911 848.771 416.888 848.771H901.223C909.2 848.771 915.666 842.306 915.666 834.332V573.859C915.666 565.884 909.2 559.419 901.223 559.419Z" fill="#E0E0E0"/>
<path d="M908.596 552.048H424.261C416.284 552.048 409.818 558.513 409.818 566.488V826.96C409.818 834.935 416.284 841.4 424.261 841.4H908.596C916.573 841.4 923.039 834.935 923.039 826.96V566.488C923.039 558.513 916.573 552.048 908.596 552.048Z" fill="white"/>
<path d="M908.616 842.329H424.261C420.164 842.323 416.236 840.694 413.34 837.798C410.443 834.902 408.813 830.975 408.808 826.88V566.366C408.813 562.271 410.443 558.344 413.34 555.448C416.236 552.552 420.164 550.923 424.261 550.917H908.616C912.713 550.923 916.64 552.552 919.537 555.448C922.434 558.344 924.064 562.271 924.069 566.366V826.88C924.064 830.975 922.434 834.902 919.537 837.798C916.64 840.694 912.713 842.323 908.616 842.329ZM424.261 553.058C420.7 553.063 417.286 554.48 414.768 556.997C412.25 559.515 410.833 562.927 410.828 566.488V827.001C410.833 830.561 412.25 833.974 414.768 836.491C417.286 839.009 420.7 840.425 424.261 840.43H908.616C912.177 840.425 915.591 839.009 918.109 836.491C920.627 833.974 922.044 830.561 922.049 827.001V566.488C922.044 562.927 920.627 559.515 918.109 556.997C915.591 554.48 912.177 553.063 908.616 553.058H424.261Z" fill="#45D2B0"/>
<path d="M635.856 677.721H449.187C447.193 677.715 445.281 676.919 443.873 675.507C442.464 674.095 441.673 672.182 441.673 670.188V644.419C441.673 642.425 442.464 640.512 443.873 639.1C445.281 637.688 447.193 636.892 449.187 636.887H635.856C637.85 636.892 639.762 637.688 641.17 639.1C642.579 640.512 643.37 642.425 643.37 644.419V670.127C643.378 671.12 643.19 672.104 642.816 673.024C642.442 673.944 641.89 674.78 641.192 675.486C640.493 676.191 639.663 676.752 638.747 677.136C637.831 677.519 636.848 677.718 635.856 677.721ZM449.187 638.967C447.728 638.972 446.331 639.555 445.301 640.589C444.271 641.622 443.693 643.021 443.693 644.48V670.188C443.69 670.911 443.831 671.627 444.105 672.296C444.38 672.965 444.785 673.573 445.295 674.085C445.806 674.597 446.412 675.004 447.08 675.281C447.748 675.558 448.464 675.701 449.187 675.701H635.856C636.579 675.701 637.295 675.558 637.963 675.281C638.631 675.004 639.237 674.597 639.748 674.085C640.258 673.573 640.663 672.965 640.938 672.296C641.213 671.627 641.353 670.911 641.35 670.188V644.419C641.35 642.961 640.772 641.561 639.742 640.528C638.712 639.495 637.315 638.912 635.856 638.906L449.187 638.967Z" fill="#E0E0E0"/>
<path d="M734.189 732.227H449.187C447.196 732.221 445.288 731.428 443.88 730.02C442.472 728.613 441.678 726.705 441.673 724.714V698.946C441.673 696.951 442.464 695.038 443.873 693.626C445.281 692.214 447.193 691.418 449.187 691.413H734.189C736.184 691.418 738.095 692.214 739.504 693.626C740.913 695.038 741.704 696.951 741.704 698.946V724.674C741.706 725.663 741.514 726.643 741.138 727.558C740.762 728.473 740.209 729.305 739.511 730.006C738.813 730.707 737.984 731.264 737.071 731.645C736.158 732.026 735.179 732.224 734.189 732.227ZM449.187 693.473C447.728 693.478 446.331 694.061 445.301 695.095C444.271 696.128 443.693 697.527 443.693 698.986V724.714C443.693 726.171 444.272 727.568 445.302 728.598C446.333 729.628 447.73 730.207 449.187 730.207H734.189C735.646 730.207 737.044 729.628 738.074 728.598C739.105 727.568 739.684 726.171 739.684 724.714V698.946C739.684 697.487 739.105 696.088 738.076 695.054C737.046 694.021 735.648 693.438 734.189 693.432L449.187 693.473Z" fill="#E0E0E0"/>
<path d="M451.349 719.948C451.081 719.948 450.824 719.842 450.635 719.652C450.445 719.463 450.339 719.206 450.339 718.938V704.802C450.339 704.534 450.445 704.277 450.635 704.088C450.824 703.899 451.081 703.792 451.349 703.792C451.617 703.792 451.874 703.899 452.063 704.088C452.252 704.277 452.359 704.534 452.359 704.802V718.938C452.359 719.206 452.252 719.463 452.063 719.652C451.874 719.842 451.617 719.948 451.349 719.948Z" fill="#E0E0E0"/>
<path d="M859.611 677.721H672.943C670.948 677.715 669.037 676.919 667.628 675.507C666.22 674.095 665.429 672.182 665.429 670.188V644.419C665.429 642.425 666.22 640.512 667.628 639.1C669.037 637.688 670.948 636.892 672.943 636.887H859.611C861.606 636.892 863.517 637.688 864.926 639.1C866.335 640.512 867.126 642.425 867.126 644.419V670.127C867.134 671.12 866.945 672.104 866.572 673.024C866.198 673.944 865.646 674.78 864.948 675.486C864.249 676.191 863.418 676.752 862.502 677.136C861.587 677.519 860.604 677.718 859.611 677.721ZM672.943 638.967C671.484 638.972 670.087 639.555 669.057 640.589C668.027 641.622 667.449 643.021 667.449 644.48V670.188C667.446 670.911 667.586 671.627 667.861 672.296C668.136 672.965 668.54 673.573 669.051 674.085C669.561 674.597 670.168 675.004 670.836 675.281C671.504 675.558 672.22 675.701 672.943 675.701H859.611C860.335 675.701 861.051 675.558 861.719 675.281C862.387 675.004 862.993 674.597 863.504 674.085C864.014 673.573 864.418 672.965 864.693 672.296C864.968 671.627 865.108 670.911 865.106 670.188V644.419C865.106 642.961 864.527 641.561 863.498 640.528C862.468 639.495 861.07 638.912 859.611 638.906L672.943 638.967Z" fill="#E0E0E0"/>
<path opacity="0.2" d="M570.63 601.505H450.985C448.785 601.5 446.676 600.624 445.121 599.068C443.565 597.513 442.688 595.405 442.683 593.205C442.688 591.006 443.565 588.898 445.121 587.342C446.676 585.787 448.785 584.911 450.985 584.905H570.63C572.83 584.911 574.939 585.787 576.494 587.342C578.05 588.898 578.927 591.006 578.932 593.205C578.927 595.405 578.05 597.513 576.494 599.068C574.939 600.624 572.83 601.5 570.63 601.505Z" fill="#45D2B0"/>
<path opacity="0.2" d="M603.556 761.549H473.913C473.036 761.544 472.196 761.193 471.576 760.574C470.956 759.954 470.605 759.114 470.6 758.237C470.605 757.361 470.956 756.521 471.576 755.901C472.196 755.281 473.036 754.931 473.913 754.926H603.556C604.432 754.931 605.269 755.282 605.886 755.903C606.503 756.523 606.849 757.363 606.849 758.237C606.849 759.112 606.503 759.952 605.886 760.572C605.269 761.193 604.432 761.544 603.556 761.549Z" fill="#45D2B0"/>
<path d="M449.369 764.982C453.062 764.982 456.055 761.99 456.055 758.298C456.055 754.606 453.062 751.614 449.369 751.614C445.676 751.614 442.683 754.606 442.683 758.298C442.683 761.99 445.676 764.982 449.369 764.982Z" fill="#45D2B0"/>
<path d="M675.105 665.442C674.837 665.442 674.58 665.336 674.39 665.146C674.201 664.957 674.095 664.7 674.095 664.432V650.296C674.095 650.028 674.201 649.771 674.39 649.582C674.58 649.393 674.837 649.286 675.105 649.286C675.372 649.286 675.629 649.393 675.819 649.582C676.008 649.771 676.115 650.028 676.115 650.296V664.432C676.115 664.7 676.008 664.957 675.819 665.146C675.629 665.336 675.372 665.442 675.105 665.442Z" fill="#E0E0E0"/>
<path d="M451.349 665.442C451.081 665.442 450.824 665.336 450.635 665.146C450.445 664.957 450.339 664.7 450.339 664.432V650.296C450.339 650.028 450.445 649.771 450.635 649.582C450.824 649.393 451.081 649.286 451.349 649.286C451.617 649.286 451.874 649.393 452.063 649.582C452.252 649.771 452.359 650.028 452.359 650.296V664.432C452.359 664.7 452.252 664.957 452.063 665.146C451.874 665.336 451.617 665.442 451.349 665.442Z" fill="#E0E0E0"/>
<path d="M778.145 785.602H709.061C702.97 785.602 698.032 790.538 698.032 796.628V809.108C698.032 815.198 702.97 820.135 709.061 820.135H778.145C784.236 820.135 789.174 815.198 789.174 809.108V796.628C789.174 790.538 784.236 785.602 778.145 785.602Z" fill="#45D2B0"/>
<path d="M381.356 469.088C366.428 466.846 363.034 480.397 347.339 479.852C348.246 482.417 349.656 484.774 351.488 486.786C353.32 488.797 355.535 490.422 358.005 491.565C358.005 491.565 345.541 500.612 348.329 514.143C358.085 503.096 371.195 513.577 385.477 513.153C415.11 512.224 425.877 498.512 415.554 486.738C425.089 474.621 399.011 468.199 399.617 459.213C396.627 460.606 396.728 466.341 396.728 466.341C389.474 466.581 382.371 464.233 376.69 459.718C376.306 465.251 381.356 469.088 381.356 469.088Z" fill="#263238"/>
<path d="M410.02 486.173C411.266 486.488 412.566 486.528 413.829 486.291C415.093 486.054 416.29 485.545 417.337 484.8C418.384 484.055 419.256 483.091 419.894 481.975C420.532 480.859 420.919 479.618 421.029 478.337C425.675 488.313 418.383 493.726 410.02 486.173Z" fill="#263238"/>
<path d="M423.958 1094.34L409.898 1102.44L389.193 1071.2L403.253 1063.12L423.958 1094.34Z" fill="#FF8B7B"/>
<path opacity="0.2" d="M403.253 1063.12L389.193 1071.22L399.879 1087.31L413.938 1079.21L403.253 1063.12Z" fill="black"/>
<path d="M325.18 700.844C325.18 700.844 291.163 834.594 287.608 880.82C283.729 931.428 391.314 1085.56 391.314 1085.56L417.574 1071.78C417.574 1071.78 367.761 983.874 334.532 884.475C350.692 832.474 382.79 705.246 382.79 705.246L325.18 700.844Z" fill="#45D2B0"/>
<g opacity="0.3">
<path d="M325.18 700.844C325.18 700.844 291.163 834.594 287.608 880.82C283.729 931.428 391.314 1085.56 391.314 1085.56L417.574 1071.78C417.574 1071.78 367.761 983.874 334.532 884.475C350.692 832.474 382.79 705.246 382.79 705.246L325.18 700.844Z" fill="white"/>
</g>
<path opacity="0.4" d="M355.318 753.472C341.966 776.857 337.461 832.716 340.895 863.23C350.228 830.737 361.984 786.147 370.69 752.644C364.832 748.059 359.075 746.807 355.318 753.472Z" fill="#45D2B0"/>
<path d="M418.544 1071.7L390.365 1086.46L382.204 1077.01L415.595 1062.15L418.544 1071.7Z" fill="#45D2B0"/>
<path d="M349.217 586.077L334.613 611.199C332.209 615.379 329.846 619.56 327.644 623.659C326.553 625.679 325.624 627.698 324.594 629.718C323.563 631.737 322.816 633.635 322.452 634.625L321.665 627.153C321.867 628.082 321.988 629.031 322.17 629.899C322.351 630.768 322.473 631.676 322.675 632.464C322.877 633.252 323.018 634.1 323.18 634.887L323.442 636.059C323.442 636.281 323.442 636.463 323.442 636.644C323.442 636.826 323.442 636.846 323.442 636.927C323.442 637.008 323.442 637.129 323.018 637.129C323.878 637.243 324.706 637.528 325.454 637.967C326.202 638.406 326.855 638.989 327.374 639.684C327.893 640.379 328.268 641.171 328.476 642.012C328.685 642.854 328.723 643.729 328.588 644.585C328.453 645.442 328.149 646.263 327.692 647C327.235 647.737 326.635 648.376 325.928 648.878C325.221 649.38 324.42 649.735 323.574 649.923C322.727 650.111 321.851 650.128 320.998 649.973H319.564H318.554C317.948 649.973 317.322 649.832 316.756 649.731C315.626 649.522 314.517 649.211 313.443 648.802C311.443 648.025 309.554 646.986 307.828 645.712C306.214 644.518 304.725 643.165 303.384 641.673C302.737 640.946 302.151 640.199 301.545 639.431C300.939 638.664 300.495 637.896 299.97 637.129C299.412 636.291 299.025 635.352 298.831 634.364C298.637 633.376 298.639 632.36 298.839 631.374L299.182 629.657C299.841 626.541 300.746 623.482 301.889 620.509C302.838 617.863 303.909 615.399 304.939 612.976C306.959 608.149 309.282 603.525 311.625 598.981C313.968 594.437 316.372 589.994 318.857 585.592C321.341 581.189 323.907 576.908 326.694 572.566C328.561 569.702 331.472 567.679 334.807 566.927C338.143 566.175 341.64 566.754 344.556 568.54C347.471 570.326 349.575 573.179 350.419 576.492C351.263 579.804 350.781 583.315 349.076 586.278L349.217 586.077Z" fill="#FF8B7B"/>
<path d="M341.036 561.621C357.479 560.389 365.559 572.001 357.721 591.146C353.01 602.059 347.661 612.686 341.703 622.973C340.39 625.295 339.198 627.355 338.208 629.031L305.262 603.424C311.665 588.258 330.027 562.529 341.036 561.621Z" fill="#263238"/>
<path opacity="0.3" d="M337.441 580.422C348.349 573.354 333.179 606.534 326.937 620.307L317.241 612.774C319.847 602.939 329.058 585.854 337.441 580.422Z" fill="black"/>
<path d="M383.538 1117.24L367.398 1116.01L367.862 1078.47L384.002 1079.7L383.538 1117.24Z" fill="#FF8B7B"/>
<path opacity="0.2" d="M384.002 1079.72L367.862 1078.49L367.62 1097.83L383.78 1099.07L384.002 1079.72Z" fill="black"/>
<path d="M356.671 703.247C356.671 703.247 346.773 825.668 346.228 872.096C345.622 922.926 361.014 1092.66 361.014 1092.66L390.587 1094.93C390.587 1094.93 388.365 930.297 393.576 880.315C399.232 826.072 411.474 707.427 411.474 707.427L356.671 703.247Z" fill="#45D2B0"/>
<path opacity="0.3" d="M356.671 703.247C356.671 703.247 346.773 825.668 346.228 872.096C345.622 922.926 361.014 1092.66 361.014 1092.66L390.587 1094.93C390.587 1094.93 388.365 930.297 393.576 880.315C399.232 826.072 411.474 707.427 411.474 707.427L356.671 703.247Z" fill="white"/>
<path d="M325.179 700.844L411.494 707.427C412.625 699.753 412.565 674.55 416.079 642.804C418.516 619.202 422.997 595.857 429.472 573.031C429.977 571.314 430.502 569.618 431.027 567.921C431.027 567.921 426.725 566.69 420.503 565.296C415.352 564.145 408.888 562.852 402.505 562.065C390.341 560.433 378.093 559.495 365.822 559.258C360.146 559.359 354.57 559.864 350.126 560.389C344.43 561.096 341.057 561.802 341.057 561.802C341.057 561.802 322.19 607.887 325.179 700.844Z" fill="#45D2B0"/>
<path d="M328.997 635.271C330.693 632.78 332.862 630.646 335.38 628.991C337.058 628.193 338.672 627.268 340.208 626.224C340.366 626.12 340.549 626.06 340.738 626.05C340.926 626.04 341.114 626.08 341.283 626.167C341.451 626.253 341.593 626.382 341.696 626.541C341.798 626.7 341.856 626.883 341.864 627.072C341.864 628.344 341.258 630.384 337.824 633.131C337.299 637.17 331.098 641.027 331.098 641.027L328.997 635.271Z" fill="#FF8B7B"/>
<path opacity="0.3" d="M341.441 645.914L359.358 647.287L349.642 610.977L331.724 609.604L341.441 645.914Z" fill="black"/>
<path d="M340.209 645.813L358.146 647.186L348.43 610.876L330.492 609.503L340.209 645.813Z" fill="white"/>
<path opacity="0.3" d="M416.08 642.703C418.518 619.102 422.999 595.757 429.472 572.93C423.736 572.001 413.838 571.799 411.575 581.008C409.111 590.883 409.717 614.612 416.08 642.703Z" fill="black"/>
<path d="M437.067 580.422C437.976 583.249 438.704 585.693 439.39 588.318C440.077 590.944 440.703 593.508 441.41 596.134C442.562 601.364 443.612 606.635 444.339 612.007C445.135 617.456 445.64 622.943 445.854 628.445C446.101 634.259 445.851 640.082 445.107 645.853V646.5C444.789 648.93 443.665 651.184 441.915 652.901C440.703 654.067 439.345 655.072 437.875 655.89C436.801 656.498 435.68 657.018 434.522 657.445C432.716 658.121 430.849 658.621 428.947 658.94C425.883 659.455 422.783 659.732 419.675 659.768C414.152 659.817 408.632 659.499 403.152 658.818C397.839 658.172 392.627 657.324 387.456 656.274C382.285 655.224 377.235 654.052 372.084 652.538C370.572 652.097 369.268 651.127 368.412 649.806C367.555 648.484 367.203 646.899 367.418 645.339C367.634 643.779 368.403 642.348 369.586 641.308C370.769 640.268 372.286 639.688 373.862 639.674H373.983L389.052 639.512C394.062 639.512 399.031 639.33 403.919 639.088C408.808 638.846 413.615 638.462 418.059 637.856C420.049 637.586 422.014 637.161 423.937 636.584C424.547 636.403 425.136 636.159 425.695 635.857C425.877 635.857 425.856 635.695 425.796 635.736C425.431 635.87 425.105 636.092 424.846 636.382L421.554 643.43C421.63 639.018 421.414 634.606 420.907 630.222C420.382 625.638 419.574 620.953 418.706 616.248C417.837 611.542 416.686 606.817 415.635 602.111C415.11 599.748 414.484 597.386 413.898 595.023L412.12 588.157L412.019 587.773C411.217 584.487 411.713 581.019 413.406 578.09C415.098 575.162 417.856 573 421.105 572.054C424.353 571.109 427.841 571.454 430.841 573.016C433.841 574.579 436.122 577.239 437.209 580.442L437.067 580.422Z" fill="#FF8B7B"/>
<path d="M431.008 567.821C415.212 562.873 405.778 572.97 408.404 593.549C410.281 605.328 413.105 616.938 416.848 628.264L451.652 617.56C448.622 601.243 441.573 571.132 431.008 567.821Z" fill="#263238"/>
<path d="M367.599 559.157C378.426 557.46 380.749 551.079 380.527 543.688C380.49 541.855 380.335 540.027 380.062 538.215L394.202 528.117L404.565 520.726C401.05 532.338 396.485 553.644 403.959 562.125C393.974 569.24 383.196 575.17 371.841 579.796C371.18 580.058 370.472 580.182 369.761 580.16C369.05 580.139 368.35 579.973 367.706 579.673C367.061 579.372 366.484 578.943 366.011 578.412C365.538 577.882 365.178 577.26 364.953 576.585C361.539 565.538 367.599 559.157 367.599 559.157Z" fill="#FF8B7B"/>
<path opacity="0.2" d="M380.023 538.215C380.295 540.027 380.451 541.855 380.487 543.688C385.537 543.062 393.375 539.204 394.486 533.59C394.602 531.752 394.487 529.907 394.143 528.097L380.023 538.215Z" fill="black"/>
<path d="M405.353 496.836C406.1 512.991 407.373 522.301 400.242 531.591C389.536 545.546 369.155 540.901 363.64 525.532C358.691 511.638 358.267 487.647 373.114 479.084C376.309 477.175 379.949 476.135 383.672 476.069C387.394 476.003 391.069 476.913 394.33 478.709C397.591 480.505 400.324 483.123 402.258 486.303C404.192 489.483 405.259 493.115 405.353 496.836Z" fill="#FF8B7B"/>
<path d="M398.606 487.061C394.061 495.301 397.515 501.319 397.515 501.319L398.364 497.441C398.364 497.441 404.1 503.5 402.404 510.528C412.463 505.176 413.595 484.375 398.606 487.061Z" fill="#263238"/>
<path d="M406.99 489.525C388.81 493.564 378.589 491.686 375.357 490.999C382.972 490.474 384.972 486.96 384.972 486.96C384.972 486.96 366.792 491.423 363.095 489.99C366.752 478.923 375.215 473.834 392.446 474.5C409.677 475.167 406.99 489.525 406.99 489.525Z" fill="#263238"/>
<path d="M413.09 511.82C411.442 515.431 408.584 518.352 405.01 520.08C400.424 522.099 398.162 518.06 399.455 513.052C400.606 508.609 404.383 502.187 408.969 502.207C413.554 502.228 415.19 507.276 413.09 511.82Z" fill="#FF8B7B"/>
<path d="M381.739 504.57C381.881 505.883 381.315 507.014 380.467 507.135C379.618 507.256 378.81 506.287 378.669 504.994C378.527 503.702 379.113 502.551 379.941 502.43C380.77 502.308 381.739 503.278 381.739 504.57Z" fill="#263238"/>
<path d="M367.175 506.57C367.316 507.862 366.751 509.013 365.902 509.134C365.054 509.255 364.266 508.286 364.125 506.973C363.983 505.661 364.549 504.53 365.397 504.429C366.246 504.328 367.034 505.257 367.175 506.57Z" fill="#263238"/>
<path d="M371.882 506.59C370.771 510.777 369.107 514.798 366.933 518.545C369.438 520.383 373.215 518.868 373.215 518.868L371.882 506.59Z" fill="#FF5652"/>
<path d="M378.871 521.655C380.339 521.293 381.718 520.636 382.923 519.722C384.129 518.809 385.135 517.659 385.88 516.344C385.903 516.299 385.917 516.25 385.921 516.2C385.924 516.149 385.917 516.099 385.9 516.051C385.883 516.004 385.856 515.96 385.822 515.924C385.787 515.887 385.745 515.858 385.698 515.839C385.609 515.796 385.507 515.788 385.413 515.819C385.319 515.849 385.24 515.914 385.193 516.001C384.363 517.418 383.217 518.624 381.843 519.524C380.469 520.425 378.906 520.995 377.275 521.191C377.225 521.195 377.177 521.21 377.133 521.235C377.089 521.259 377.051 521.292 377.021 521.332C376.99 521.372 376.968 521.418 376.957 521.466C376.945 521.515 376.943 521.565 376.952 521.615C376.959 521.665 376.976 521.714 377.003 521.758C377.029 521.802 377.064 521.84 377.106 521.87C377.147 521.9 377.194 521.922 377.244 521.933C377.294 521.945 377.345 521.946 377.396 521.938C377.894 521.879 378.386 521.784 378.871 521.655Z" fill="#263238"/>
<path d="M385.779 499.219C385.899 499.183 386.009 499.121 386.102 499.037C386.174 498.966 386.231 498.881 386.27 498.787C386.309 498.693 386.33 498.593 386.33 498.492C386.33 498.39 386.309 498.29 386.27 498.196C386.231 498.103 386.174 498.018 386.102 497.946C385.285 497.059 384.264 496.384 383.127 495.979C381.99 495.574 380.772 495.453 379.577 495.624C379.477 495.64 379.381 495.677 379.295 495.733C379.21 495.789 379.137 495.862 379.082 495.948C379.027 496.034 378.99 496.13 378.975 496.231C378.959 496.331 378.965 496.434 378.992 496.533C379.011 496.632 379.05 496.726 379.106 496.81C379.163 496.894 379.236 496.965 379.321 497.02C379.406 497.075 379.501 497.112 379.601 497.129C379.7 497.146 379.802 497.142 379.901 497.118C380.841 496.998 381.796 497.106 382.686 497.433C383.575 497.76 384.373 498.296 385.011 498.996C385.105 499.102 385.227 499.179 385.363 499.219C385.499 499.258 385.643 499.258 385.779 499.219Z" fill="#263238"/>
<path d="M360.348 502.369C360.469 502.338 360.58 502.278 360.672 502.193C360.764 502.109 360.833 502.002 360.873 501.884C361.174 500.956 361.684 500.11 362.363 499.41C363.042 498.71 363.873 498.174 364.792 497.845C364.891 497.825 364.985 497.783 365.067 497.724C365.15 497.665 365.219 497.589 365.27 497.502C365.322 497.414 365.354 497.317 365.366 497.216C365.377 497.115 365.368 497.013 365.337 496.916C365.285 496.722 365.158 496.555 364.984 496.453C364.81 496.351 364.603 496.322 364.408 496.371C363.249 496.762 362.199 497.419 361.339 498.288C360.48 499.158 359.836 500.217 359.459 501.379C359.424 501.475 359.408 501.576 359.412 501.678C359.416 501.78 359.441 501.879 359.484 501.971C359.527 502.063 359.589 502.146 359.664 502.214C359.739 502.283 359.828 502.335 359.924 502.369C360.061 502.414 360.21 502.414 360.348 502.369Z" fill="#263238"/>
<path d="M377.296 641.128L360.712 630.889L362.247 651.265C362.247 651.265 376.124 656.233 378.023 648.883L377.296 641.128Z" fill="#FF8B7B"/>
<path d="M365.983 634.14C364.236 631.65 362.02 629.523 359.459 627.88C357.601 626.851 355.837 625.662 354.187 624.326C354.03 624.22 353.848 624.159 353.66 624.149C353.472 624.138 353.284 624.178 353.117 624.265C352.95 624.352 352.809 624.482 352.709 624.642C352.609 624.802 352.555 624.985 352.55 625.174C352.55 626.426 353.621 629.213 356.994 632.04C357.621 636.079 363.883 639.916 363.883 639.916L365.983 634.14Z" fill="#FF8B7B"/>
<path d="M346.39 632.605L347.864 645.369C347.929 645.911 348.157 646.422 348.517 646.833C348.878 647.244 349.355 647.536 349.884 647.671L362.307 651.266L360.772 631.071L349.48 629.637C349.07 629.572 348.651 629.602 348.254 629.726C347.858 629.85 347.496 630.065 347.196 630.352C346.897 630.64 346.668 630.993 346.528 631.384C346.388 631.775 346.341 632.193 346.39 632.605Z" fill="#FF8B7B"/>
<path d="M321.139 638.502L335.501 631.252L335.138 649.185C335.138 649.185 320.25 653.628 319.361 646.055L321.139 638.502Z" fill="#FF8B7B"/>
<path d="M341.703 631.919V646.055C341.703 646.441 341.577 646.815 341.344 647.122C341.11 647.429 340.782 647.65 340.41 647.752L335.057 649.145L335.421 631.212L339.461 630.162C339.728 630.085 340.01 630.073 340.283 630.126C340.556 630.179 340.812 630.296 341.031 630.468C341.25 630.639 341.425 630.86 341.542 631.112C341.659 631.365 341.714 631.641 341.703 631.919Z" fill="#FF8B7B"/>
<path d="M777.983 880.517C791.538 894.007 789.578 907.7 780.003 917.393C770.429 927.087 756.652 929.126 743.098 915.616C729.544 902.106 721.262 878.235 730.978 868.542C740.694 858.848 764.429 867.027 777.983 880.517Z" fill="#23216E"/>
<path d="M825.958 969.031C809.212 972 799.112 964.063 795.658 952.714C792.204 941.364 796.547 930.883 813.313 927.914C830.079 924.946 852.824 930.661 856.339 942.051C859.853 953.441 842.724 966.083 825.958 969.031Z" fill="#23216E"/>
<path d="M737.523 995.547C749.643 999.586 757.904 994.759 761.763 986.742C765.621 978.725 763.439 970.485 751.38 966.547C739.32 962.609 721.847 964.305 718.03 972.323C714.212 980.34 725.443 991.548 737.523 995.547Z" fill="#23216E"/>
<path d="M835.33 879.73C823.736 895.623 809.414 896.915 797.94 890.069C786.467 883.223 782.184 870.783 793.779 854.91C805.374 839.037 828.483 825.729 839.956 832.575C851.43 839.421 846.945 863.856 835.33 879.73Z" fill="#23216E"/>
<path d="M767.741 1087.92C767.223 1087.92 766.724 1087.72 766.348 1087.36C765.972 1087.01 765.747 1086.52 765.721 1086C759.52 966.325 804.849 873.368 805.313 872.439C805.552 871.96 805.971 871.595 806.479 871.425C806.986 871.254 807.541 871.292 808.02 871.53C808.5 871.769 808.865 872.188 809.035 872.695C809.205 873.203 809.167 873.757 808.929 874.237C808.485 875.145 763.6 967.133 769.761 1085.78C769.775 1086.04 769.736 1086.31 769.647 1086.56C769.558 1086.81 769.42 1087.04 769.242 1087.24C769.064 1087.43 768.848 1087.59 768.608 1087.71C768.368 1087.82 768.108 1087.88 767.842 1087.9L767.741 1087.92Z" fill="#263238"/>
<path d="M784.508 938.537H784.326C784.06 938.514 783.802 938.439 783.565 938.316C783.329 938.193 783.119 938.024 782.948 937.819C782.777 937.614 782.649 937.378 782.57 937.123C782.491 936.869 782.463 936.601 782.488 936.336C782.488 936.073 784.75 910.082 766.873 901.459C766.633 901.345 766.418 901.185 766.24 900.988C766.062 900.791 765.924 900.56 765.835 900.31C765.746 900.06 765.707 899.794 765.72 899.529C765.734 899.263 765.8 899.003 765.914 898.763C766.028 898.523 766.188 898.308 766.385 898.13C766.582 897.952 766.813 897.814 767.063 897.725C767.314 897.636 767.579 897.597 767.845 897.611C768.11 897.624 768.37 897.69 768.61 897.804C789.053 907.578 786.629 935.528 786.508 936.719C786.458 937.216 786.226 937.676 785.856 938.012C785.487 938.347 785.007 938.534 784.508 938.537Z" fill="#263238"/>
<path d="M769.862 1015.36C769.354 1015.36 768.863 1015.17 768.488 1014.82C768.114 1014.48 767.883 1014.01 767.842 1013.5C767.842 1013.24 765.499 988.438 743.744 981.532C743.47 981.471 743.213 981.354 742.987 981.188C742.761 981.022 742.573 980.812 742.433 980.569C742.293 980.326 742.205 980.057 742.175 979.779C742.145 979.501 742.172 979.219 742.257 978.952C742.341 978.685 742.48 978.439 742.665 978.228C742.849 978.018 743.076 977.848 743.33 977.73C743.583 977.612 743.859 977.548 744.139 977.541C744.419 977.535 744.697 977.588 744.956 977.695C769.337 985.409 771.842 1012.89 771.862 1013.18C771.901 1013.71 771.731 1014.23 771.386 1014.63C771.042 1015.04 770.553 1015.29 770.024 1015.34L769.862 1015.36Z" fill="#263238"/>
<path d="M774.226 984.46H773.741C773.222 984.331 772.775 984.001 772.498 983.543C772.222 983.085 772.138 982.536 772.267 982.016C781.72 943.646 811.556 944.595 811.859 944.595C812.394 944.619 812.899 944.855 813.26 945.251C813.622 945.647 813.812 946.17 813.788 946.706C813.764 947.241 813.528 947.745 813.132 948.107C812.736 948.469 812.213 948.658 811.677 948.634C810.586 948.634 784.831 947.948 776.185 982.966C776.07 983.396 775.815 983.776 775.46 984.046C775.106 984.316 774.672 984.462 774.226 984.46Z" fill="#263238"/>
<path d="M851.693 1070.33C851.693 1082.13 849.077 1093.78 844.033 1104.45C838.989 1115.12 831.644 1124.53 822.524 1132.02C821.336 1133.04 819.825 1133.6 818.262 1133.6H722.393C720.83 1133.6 719.319 1133.04 718.131 1132.02C709.016 1124.53 701.673 1115.11 696.63 1104.44C691.587 1093.78 688.968 1082.13 688.962 1070.33C688.95 1062.66 690.052 1055.04 692.234 1047.69C693.446 1043.65 696.456 1041.03 699.769 1041.03H840.886C842.691 1041.18 844.398 1041.91 845.752 1043.11C847.107 1044.31 848.036 1045.92 848.4 1047.69C850.59 1055.04 851.699 1062.66 851.693 1070.33Z" fill="#23216E"/>
<path d="M851.451 1076.21C805.019 1091.3 759.477 1109.01 715.04 1129.24C715.586 1129.74 716.171 1130.23 716.737 1130.73C760.604 1110.8 805.552 1093.33 851.37 1078.41C851.35 1077.68 851.41 1076.95 851.451 1076.21Z" fill="white"/>
<path d="M822.403 1040.97H818.908C781.558 1067.36 745.259 1095.83 709.828 1124.13C710.273 1124.63 710.737 1125.14 711.202 1125.62C747.36 1096.78 784.346 1067.76 822.403 1040.97Z" fill="white"/>
<path d="M799.88 1040.97C761.782 1053.47 726.028 1073.28 692.678 1094.06C692.9 1094.7 693.102 1095.37 693.325 1096.08C728.432 1074.1 766.226 1053.32 806.586 1041.01L799.88 1040.97Z" fill="white"/>
<path d="M690.193 1056.6C700.967 1050.91 711.949 1045.7 723.139 1040.97H718.089C708.797 1045 699.647 1049.38 690.638 1054.09C690.476 1054.92 690.335 1055.77 690.193 1056.6Z" fill="white"/>
<path d="M740.371 1040.97H737.401L690.234 1084.55C690.376 1085.31 690.557 1086.1 690.719 1086.87L740.371 1040.97Z" fill="white"/>
</g>
</g>
<defs>
<clipPath id="clip0_12_1148">
<rect width="800" height="1080" fill="white"/>
</clipPath>
<clipPath id="clip1_12_1148">
<rect width="172" height="40" fill="white" transform="translate(70 70)"/>
</clipPath>
<clipPath id="clip2_12_1148">
<rect width="1010" height="752.48" fill="white" transform="translate(105 404)"/>
</clipPath>
</defs>
</svg>
