<svg width="123" height="29" viewBox="0 0 123 29" fill="none" xmlns="http://www.w3.org/2000/svg">
<g clip-path="url(#clip0_199_150)">
<path d="M34.9385 20.6625H43.0273V18.3592H37.405V7.60431H34.9385V20.6625Z" fill="white"/>
<path d="M47.8878 20.9345C48.8672 20.9345 49.7286 20.7169 50.4722 20.2816C51.2218 19.8403 51.8052 19.2327 52.2224 18.459C52.6455 17.6791 52.8572 16.7813 52.8572 15.7657C52.8572 14.7561 52.6485 13.8644 52.2314 13.0906C51.8143 12.3107 51.2309 11.7001 50.4813 11.2588C49.7377 10.8175 48.8732 10.5968 47.8878 10.5968C46.9205 10.5968 46.065 10.8145 45.3215 11.2497C44.5779 11.685 43.9945 12.2926 43.5713 13.0725C43.1481 13.8462 42.9365 14.744 42.9365 15.7657C42.9365 16.7752 43.1421 17.67 43.5532 18.4498C43.9703 19.2237 44.5507 19.8312 45.2943 20.2726C46.0379 20.7139 46.9024 20.9345 47.8878 20.9345ZM47.8878 18.6312C47.12 18.6312 46.5366 18.3743 46.1376 17.8605C45.7446 17.3405 45.5482 16.6423 45.5482 15.7657C45.5482 14.9133 45.7356 14.2241 46.1104 13.6981C46.4913 13.1661 47.0837 12.9001 47.8878 12.9001C48.6677 12.9001 49.254 13.1601 49.647 13.68C50.046 14.1999 50.2455 14.8951 50.2455 15.7657C50.2455 16.606 50.0491 17.2952 49.656 17.8332C49.2692 18.3652 48.6797 18.6312 47.8878 18.6312Z" fill="white"/>
<path d="M57.7346 20.9345C58.1941 20.9345 58.6173 20.8801 59.0042 20.7713C59.3972 20.6625 59.7539 20.5083 60.0743 20.3088V21.2973C60.0864 21.66 59.9926 21.9622 59.7931 22.2041C59.5997 22.4519 59.3398 22.6363 59.0133 22.7573C58.6868 22.8842 58.3392 22.9477 57.9705 22.9477C57.6258 22.9477 57.3054 22.8721 57.0092 22.721C56.719 22.5699 56.4953 22.3492 56.3381 22.059L54.053 23.1653C54.4278 23.8001 54.9628 24.3109 55.6581 24.6978C56.3533 25.0908 57.118 25.2873 57.9523 25.2873C58.6717 25.2873 59.3398 25.1905 59.9564 24.9971C60.573 24.8097 61.0929 24.5225 61.5161 24.1356C61.9453 23.7487 62.2386 23.256 62.3957 22.6575C62.4501 22.4459 62.4864 22.2313 62.5045 22.0136C62.5287 21.8021 62.5408 21.5754 62.5408 21.3335V10.8688H60.3826V11.413C60.0501 11.153 59.6722 10.9535 59.2491 10.8145C58.8319 10.6693 58.3695 10.5968 57.8616 10.5968C56.9246 10.5968 56.1084 10.8205 55.4133 11.2678C54.718 11.7152 54.1769 12.3288 53.79 13.1087C53.4091 13.8825 53.2188 14.7682 53.2188 15.7657C53.2188 16.745 53.4061 17.6246 53.781 18.4045C54.1618 19.1844 54.6908 19.801 55.3679 20.2545C56.0449 20.7078 56.8339 20.9345 57.7346 20.9345ZM58.1336 18.74C57.6017 18.74 57.1664 18.607 56.8278 18.341C56.4893 18.0751 56.2384 17.7184 56.0752 17.271C55.912 16.8176 55.8303 16.3158 55.8303 15.7657C55.8303 15.2216 55.915 14.7259 56.0843 14.2785C56.2536 13.8251 56.5135 13.4654 56.8641 13.1994C57.2208 12.9273 57.6742 12.7913 58.2243 12.7913C58.9982 12.7913 59.5513 13.0664 59.8838 13.6165C60.2164 14.1606 60.3826 14.877 60.3826 15.7657C60.3826 16.6543 60.2133 17.3737 59.8748 17.9239C59.5423 18.468 58.9619 18.74 58.1336 18.74Z" fill="white"/>
<path d="M68.3995 20.9345C69.3789 20.9345 70.2404 20.7169 70.9839 20.2816C71.7334 19.8403 72.3169 19.2327 72.7338 18.459C73.157 17.6791 73.3686 16.7813 73.3686 15.7657C73.3686 14.7561 73.1605 13.8644 72.743 13.0906C72.3262 12.3107 71.7427 11.7001 70.993 11.2588C70.2494 10.8175 69.3849 10.5968 68.3995 10.5968C67.4322 10.5968 66.5768 10.8145 65.8332 11.2497C65.0896 11.685 64.5062 12.2926 64.083 13.0725C63.6599 13.8462 63.4482 14.744 63.4482 15.7657C63.4482 16.7752 63.6538 17.67 64.0649 18.4498C64.482 19.2237 65.0624 19.8312 65.806 20.2726C66.5496 20.7139 67.4141 20.9345 68.3995 20.9345ZM68.3995 18.6312C67.6317 18.6312 67.0483 18.3743 66.6493 17.8605C66.2564 17.3405 66.0599 16.6423 66.0599 15.7657C66.0599 14.9133 66.2473 14.2241 66.6221 13.6981C67.003 13.1661 67.5954 12.9001 68.3995 12.9001C69.1794 12.9001 69.7658 13.1601 70.1587 13.68C70.5577 14.1999 70.7572 14.8951 70.7572 15.7657C70.7572 16.606 70.5607 17.2952 70.1678 17.8332C69.7809 18.3652 69.1914 18.6312 68.3995 18.6312Z" fill="white"/>
<path d="M74.4561 9.50861H76.9227V7.33228H74.4561V9.50861ZM74.4561 20.6625H76.9227V10.8688H74.4561V20.6625Z" fill="white"/>
<path d="M78.5352 25.0152H81.0196V20.3088C81.3403 20.5083 81.6937 20.6625 82.0806 20.7713C82.4739 20.8801 82.8999 20.9345 83.3595 20.9345C84.2601 20.9345 85.0495 20.7078 85.7264 20.2545C86.4033 19.801 86.9291 19.1844 87.3039 18.4045C87.6851 17.6246 87.8753 16.745 87.8753 15.7657C87.8753 14.7682 87.6822 13.8825 87.2953 13.1087C86.9142 12.3288 86.3762 11.7152 85.6808 11.2678C84.9854 10.8205 84.1696 10.5968 83.2327 10.5968C82.7247 10.5968 82.2594 10.6693 81.8362 10.8145C81.4186 10.9535 81.0439 11.153 80.7118 11.413V10.8688H78.5352V25.0152ZM82.9605 18.74C82.1383 18.74 81.5583 18.468 81.2191 17.9239C80.8807 17.3737 80.7118 16.6543 80.7118 15.7657C80.7118 14.877 80.8779 14.1606 81.2106 13.6165C81.549 13.0664 82.1019 12.7913 82.87 12.7913C83.4201 12.7913 83.8704 12.9273 84.2209 13.1994C84.5779 13.4654 84.8408 13.8251 85.0096 14.2785C85.1792 14.7259 85.264 15.2216 85.264 15.7657C85.264 16.3158 85.1821 16.8176 85.0189 17.271C84.8557 17.7184 84.6049 18.0751 84.2665 18.341C83.9281 18.607 83.4927 18.74 82.9605 18.74Z" fill="white"/>
<path d="M92.3438 20.9345C93.6249 20.9345 94.6288 20.6474 95.3542 20.0731C96.0795 19.4987 96.4421 18.7098 96.4421 17.7063C96.4421 16.9445 96.2063 16.343 95.7353 15.9017C95.2694 15.4604 94.4778 15.0946 93.3592 14.8045C92.5975 14.611 92.0289 14.4538 91.6541 14.3329C91.2858 14.212 91.0407 14.0941 90.9196 13.9793C90.8048 13.8644 90.7478 13.7223 90.7478 13.553C90.7478 13.2689 90.8832 13.0513 91.1554 12.9001C91.434 12.749 91.7995 12.6886 92.2526 12.7188C93.2138 12.7913 93.7403 13.2024 93.8308 13.952L96.3517 13.4986C96.2248 12.61 95.7895 11.9057 95.0456 11.3858C94.3025 10.8598 93.3535 10.5968 92.1985 10.5968C91.0136 10.5968 90.0674 10.8749 89.3599 11.4311C88.6531 11.9872 88.299 12.7369 88.299 13.68C88.299 14.4296 88.5441 15.0221 89.0336 15.4573C89.5231 15.8866 90.3667 16.2553 91.5637 16.5637C92.2712 16.7511 92.7906 16.9022 93.1233 17.0171C93.4618 17.1319 93.6798 17.2498 93.776 17.3708C93.8729 17.4856 93.9213 17.6398 93.9213 17.8332C93.9213 18.1415 93.8002 18.3834 93.5587 18.5587C93.3171 18.7279 92.9723 18.8126 92.5248 18.8126C91.9805 18.8126 91.5302 18.6826 91.1739 18.4226C90.8234 18.1627 90.5961 17.803 90.4935 17.3435L87.9727 17.7244C88.1358 18.7461 88.5954 19.538 89.3513 20.1003C90.113 20.6564 91.1105 20.9345 92.3438 20.9345Z" fill="white"/>
<path d="M100.993 20.9527C101.7 20.9527 102.317 20.8348 102.843 20.599C103.369 20.3633 103.81 20.0489 104.167 19.656V20.6625H106.343V10.8688H103.859V15.8382C103.859 16.4428 103.789 16.9324 103.65 17.3073C103.517 17.6761 103.345 17.9571 103.133 18.1506C102.922 18.338 102.695 18.4649 102.453 18.5315C102.211 18.598 101.985 18.6312 101.773 18.6312C101.247 18.6312 100.839 18.5133 100.549 18.2776C100.265 18.0418 100.059 17.7486 99.9319 17.398C99.8051 17.0473 99.7296 16.6997 99.7054 16.3551C99.6811 16.0045 99.669 15.7173 99.669 15.4936V10.8688H97.166V16.3642C97.166 16.5274 97.1781 16.7874 97.2023 17.144C97.2266 17.5007 97.2964 17.8967 97.4111 18.332C97.5258 18.7612 97.7161 19.1753 97.9825 19.5743C98.2547 19.9733 98.6323 20.3028 99.1161 20.5628C99.5992 20.8227 100.225 20.9527 100.993 20.9527Z" fill="white"/>
<path d="M107.771 20.6625H110.256V14.7319C110.256 14.1697 110.41 13.7133 110.718 13.3626C111.033 13.0059 111.447 12.8276 111.961 12.8276C112.499 12.8276 112.919 13.009 113.221 13.3717C113.529 13.7284 113.684 14.2301 113.684 14.877V20.6625H116.15V14.7319C116.15 14.1697 116.304 13.7133 116.613 13.3626C116.927 13.0059 117.341 12.8276 117.855 12.8276C118.393 12.8276 118.813 13.009 119.115 13.3717C119.424 13.7284 119.578 14.2301 119.578 14.877V20.6625H122.044V14.2241C122.044 13.154 121.757 12.2895 121.183 11.6306C120.615 10.9656 119.771 10.6331 118.653 10.6331C118.024 10.6331 117.447 10.7691 116.921 11.0411C116.395 11.3132 115.975 11.685 115.66 12.1565C115.407 11.6971 115.044 11.3283 114.572 11.0502C114.101 10.7721 113.514 10.6331 112.813 10.6331C112.22 10.6331 111.677 10.751 111.181 10.9867C110.685 11.2165 110.274 11.5339 109.947 11.9389V10.8688H107.771V20.6625Z" fill="white"/>
<path d="M14.25 0C6.37994 0 0 6.37994 0 14.25C7.87006 14.25 14.25 7.87006 14.25 0Z" fill="#45D2B0"/>
<path d="M14.25 28.5C22.1201 28.5 28.5 22.1201 28.5 14.25C20.6299 14.25 14.25 20.6299 14.25 28.5Z" fill="#45D2B0"/>
<path d="M14.25 0C22.1201 0 28.5 6.37994 28.5 14.25C20.6299 14.25 14.25 7.87006 14.25 0Z" fill="white"/>
<path d="M14.25 28.5C6.37994 28.5 -6.88022e-07 22.1201 0 14.25C7.87006 14.25 14.25 20.6299 14.25 28.5Z" fill="white"/>
</g>
<defs>
<clipPath id="clip0_199_150">
<rect width="122.55" height="28.5" fill="white"/>
</clipPath>
</defs>
</svg>
