<svg width="25" height="24" viewBox="0 0 25 24" fill="none" xmlns="http://www.w3.org/2000/svg">
<g clip-path="url(#clip0_12_2383)">
<path d="M22.5627 5.65593C21.7992 5.99362 20.9896 6.2154 20.1607 6.31393C21.0344 5.79136 21.6884 4.96894 22.0007 3.99993C21.1807 4.48793 20.2817 4.82993 19.3447 5.01493C18.7153 4.34151 17.881 3.89489 16.9716 3.74451C16.0622 3.59413 15.1286 3.74842 14.316 4.18338C13.5033 4.61834 12.8571 5.30961 12.4778 6.14972C12.0985 6.98983 12.0074 7.93171 12.2187 8.82893C10.5558 8.74558 8.92902 8.31345 7.44397 7.56059C5.95893 6.80773 4.64882 5.75097 3.59869 4.45893C3.22698 5.09738 3.03164 5.82315 3.03269 6.56193C3.03269 8.01193 3.77069 9.29293 4.89269 10.0429C4.2287 10.022 3.57932 9.84271 2.99869 9.51993V9.57193C2.99889 10.5376 3.33306 11.4735 3.94454 12.221C4.55601 12.9684 5.40717 13.4814 6.35369 13.6729C5.7373 13.84 5.09099 13.8646 4.46369 13.7449C4.73055 14.5762 5.25069 15.3031 5.95128 15.824C6.65186 16.3449 7.49782 16.6337 8.37069 16.6499C7.50317 17.3313 6.50986 17.8349 5.44757 18.1321C4.38527 18.4293 3.27481 18.5142 2.17969 18.3819C4.09139 19.6114 6.31678 20.264 8.58969 20.2619C16.2827 20.2619 20.4897 13.8889 20.4897 8.36193C20.4897 8.18193 20.4847 7.99993 20.4767 7.82193C21.2956 7.23009 22.0023 6.49695 22.5637 5.65693L22.5627 5.65593Z" fill="#6A7C94"/>
</g>
<defs>
<clipPath id="clip0_12_2383">
<rect width="24" height="24" fill="white" transform="translate(0.400391)"/>
</clipPath>
</defs>
</svg>
