<svg width="26" height="25" viewBox="0 0 26 25" fill="none" xmlns="http://www.w3.org/2000/svg">
<path d="M24.2968 10.8363C23.6983 10.8363 23.0415 11.23 21.645 11.9545C20.4882 12.5554 19.4184 13.1265 18.7388 13.543C18.7977 13.7985 18.8327 14.0633 18.8327 14.3363C18.8327 16.2665 17.2624 17.8363 15.3327 17.8363H10.9577C10.4747 17.8363 10.0827 17.4449 10.0827 16.9613C10.0827 16.4777 10.4747 16.0863 10.9577 16.0863H15.3327C16.2975 16.0863 17.0827 15.3011 17.0827 14.3363C17.0827 13.813 16.847 13.3481 16.4819 13.0267C16.0671 12.7525 15.5748 12.5863 15.041 12.5863H12.4785H12.1244C12.1075 12.5863 12.0917 12.5822 12.0748 12.581C10.5371 12.5571 9.79862 12.3985 9.14937 12.2555C8.55904 12.1255 8.00137 12.003 7.06512 12.003C2.78812 12.003 0.346289 17.2535 0.244789 17.477C0.112956 17.7663 0.148539 18.1035 0.336956 18.359L4.42029 23.8971C4.58654 24.1229 4.84846 24.25 5.12262 24.25C5.17804 24.25 5.23287 24.2448 5.28829 24.2343C5.61846 24.1713 5.88562 23.9216 5.97137 23.5967C6.01746 23.4246 6.46312 21.9196 8.04104 21.9196C9.17971 21.9196 10.3575 22.0666 11.4967 22.2084C12.657 22.3536 13.8575 22.503 15.041 22.503C16.6528 22.503 17.813 21.2669 21.166 17.8363C25.4255 13.4782 25.8327 13.0973 25.8327 12.2334C25.8327 11.4855 25.1765 10.8363 24.2968 10.8363ZM19.416 5.58337C19.416 8.48312 17.0658 10.8334 14.166 10.8334C11.2663 10.8334 8.91604 8.48312 8.91604 5.58337C8.91604 2.68362 11.2663 0.333374 14.166 0.333374C17.0658 0.333374 19.416 2.68362 19.416 5.58337ZM15.916 6.31254C15.916 5.42762 15.1968 4.70837 14.3119 4.70837H13.8569L13.9152 4.41671H15.041C15.363 4.41671 15.6244 4.15537 15.6244 3.83337C15.6244 3.51137 15.363 3.25004 15.041 3.25004H13.4369C13.1586 3.25004 12.9195 3.44604 12.8652 3.71904L12.5735 5.17737C12.5391 5.34887 12.5835 5.52679 12.6943 5.66154C12.8051 5.79687 12.9708 5.87504 13.1452 5.87504H14.3119C14.5534 5.87504 14.7494 6.07104 14.7494 6.31254C14.7494 6.61296 14.4466 6.75004 14.166 6.75004C13.6498 6.75004 13.3395 6.56629 13.3167 6.55229C13.0495 6.37904 12.692 6.45254 12.514 6.71854C12.3355 6.98629 12.4079 7.34912 12.6756 7.52762C12.7357 7.56671 13.2858 7.91671 14.166 7.91671C15.1635 7.91671 15.916 7.22721 15.916 6.31254Z" fill="#2C514C"/>
</svg>
